<?xml version="1.0" encoding="UTF-8"?>
<svg version="1.1" xmlns="http://www.w3.org/2000/svg" width="83" height="103">
<path d="M0 0 C5.28 0 10.56 0 16 0 C16 1.32 16 2.64 16 4 C19.63 4 23.26 4 27 4 C27 5.32 27 6.64 27 8 C28.32 8 29.64 8 31 8 C31 9.32 31 10.64 31 12 C33.31 12 35.62 12 38 12 C38 13.32 38 14.64 38 16 C39.32 16 40.64 16 42 16 C42 17.32 42 18.64 42 20 C43.32 20 44.64 20 46 20 C46 21.32 46 22.64 46 24 C46.99 24 47.98 24 49 24 C49 28.29 49 32.58 49 37 C48.01 37 47.02 37 46 37 C46.495 40.96 46.495 40.96 47 45 C45.35 45 43.7 45 42 45 C42.2784375 46.670625 42.2784375 46.670625 42.5625 48.375 C43 52 43 52 42 54 C43.32 54 44.64 54 46 54 C46 55.32 46 56.64 46 58 C46.99 58 47.98 58 49 58 C49 61.96 49 65.92 49 70 C48.01 70 47.02 70 46 70 C46 71.32 46 72.64 46 74 C44.515 74.495 44.515 74.495 43 75 C43 75.66 43 76.32 43 77 C42.360625 77.28875 41.72125 77.5775 41.0625 77.875 C38.84793921 78.82823451 38.84793921 78.82823451 38 81 C37.01 81 36.02 81 35 81 C35 82.32 35 83.64 35 85 C33.68 85 32.36 85 31 85 C31 86.32 31 87.64 31 89 C29.515 89.495 29.515 89.495 28 90 C28 90.66 28 91.32 28 92 C26.68 92 25.36 92 24 92 C24 93.32 24 94.64 24 96 C22.02 96.495 22.02 96.495 20 97 C20 97.99 20 98.98 20 100 C18.68 100 17.36 100 16 100 C16 100.99 16 101.98 16 103 C10.72 103 5.44 103 0 103 C0 102.01 0 101.02 0 100 C-1.32 100 -2.64 100 -4 100 C-4 98.68 -4 97.36 -4 96 C-5.65 96 -7.3 96 -9 96 C-9 94.68 -9 93.36 -9 92 C-10.98 92.495 -10.98 92.495 -13 93 C-13 92.01 -13 91.02 -13 90 C-14.32 89.67 -15.64 89.34 -17 89 C-17 86.69 -17 84.38 -17 82 C-18.485 81.505 -18.485 81.505 -20 81 C-20 79.68 -20 78.36 -20 77 C-21.32 77 -22.64 77 -24 77 C-24 76.01 -24 75.02 -24 74 C-26.64 74 -29.28 74 -32 74 C-32 73.01 -32 72.02 -32 71 C-32.66 70.67 -33.32 70.34 -34 70 C-34 66.04 -34 62.08 -34 58 C-33.01 58 -32.02 58 -31 58 C-31.33 56.68 -31.66 55.36 -32 54 C-30.68 54 -29.36 54 -28 54 C-28 51.03 -28 48.06 -28 45 C-29.32 45 -30.64 45 -32 45 C-32 42.69 -32 40.38 -32 38 C-32.66 37.67 -33.32 37.34 -34 37 C-34 35.35 -34 33.7 -34 32 C-33.34 31.67 -32.68 31.34 -32 31 C-32 30.01 -32 29.02 -32 28 C-30.68 28 -29.36 28 -28 28 C-28 27.01 -28 26.02 -28 25 C-29.98 25 -31.96 25 -34 25 C-34 23.35 -34 21.7 -34 20 C-32.02 20 -30.04 20 -28 20 C-28 18.68 -28 17.36 -28 16 C-26.68 16 -25.36 16 -24 16 C-24 14.68 -24 13.36 -24 12 C-22.68 11.67 -21.36 11.34 -20 11 C-20 10.01 -20 9.02 -20 8 C-16.535 7.505 -16.535 7.505 -13 7 C-13 6.01 -13 5.02 -13 4 C-8.71 4 -4.42 4 0 4 C0 2.68 0 1.36 0 0 Z " fill="#151E29" transform="translate(34,0)"/>
<path d="M0 0 C2.97 0 5.94 0 9 0 C9 0.99 9 1.98 9 3 C10.32 3 11.64 3 13 3 C13 6.63 13 10.26 13 14 C13.99 14 14.98 14 16 14 C16 11.69 16 9.38 16 7 C18.31 7 20.62 7 23 7 C23 9.31 23 11.62 23 14 C24.32 14 25.64 14 27 14 C27 15.32 27 16.64 27 18 C28.32 18 29.64 18 31 18 C31 18.99 31 19.98 31 21 C33.64 21 36.28 21 39 21 C39 20.01 39 19.02 39 18 C40.32 18 41.64 18 43 18 C43 16.68 43 15.36 43 14 C43.99 14 44.98 14 46 14 C46 11.36 46 8.72 46 6 C50.95 6 55.9 6 61 6 C61 9.96 61 13.92 61 18 C60.01 18 59.02 18 58 18 C58 19.32 58 20.64 58 22 C56.515 22.495 56.515 22.495 55 23 C55 23.66 55 24.32 55 25 C54.0409375 25.433125 54.0409375 25.433125 53.0625 25.875 C50.84793921 26.82823451 50.84793921 26.82823451 50 29 C49.01 29 48.02 29 47 29 C47 30.32 47 31.64 47 33 C45.68 33 44.36 33 43 33 C43 34.32 43 35.64 43 37 C42.01 37.33 41.02 37.66 40 38 C40 38.66 40 39.32 40 40 C38.68 40 37.36 40 36 40 C36 41.32 36 42.64 36 44 C34.02 44.495 34.02 44.495 32 45 C32 45.99 32 46.98 32 48 C30.68 48 29.36 48 28 48 C28 48.99 28 49.98 28 51 C22.72 51 17.44 51 12 51 C12 50.01 12 49.02 12 48 C10.68 48 9.36 48 8 48 C8 46.68 8 45.36 8 44 C6.35 44 4.7 44 3 44 C3 42.68 3 41.36 3 40 C1.02 40.495 1.02 40.495 -1 41 C-1 40.01 -1 39.02 -1 38 C-2.32 37.67 -3.64 37.34 -5 37 C-5.09752461 31.53862186 -4.77249145 26.40744018 -4 21 C-6.31 21 -8.62 21 -11 21 C-11.33 16.38 -11.66 11.76 -12 7 C-10.68 7 -9.36 7 -8 7 C-8 9.31 -8 11.62 -8 14 C-6.68 14 -5.36 14 -4 14 C-4 10.37 -4 6.74 -4 3 C-2.68 3 -1.36 3 0 3 C0 2.01 0 1.02 0 0 Z " fill="#F5DAB7" transform="translate(22,52)"/>
<path d="M0 0 C5.28 0 10.56 0 16 0 C16 1.32 16 2.64 16 4 C19.63 4 23.26 4 27 4 C27 5.32 27 6.64 27 8 C28.32 8 29.64 8 31 8 C31 9.32 31 10.64 31 12 C33.31 12 35.62 12 38 12 C38 13.32 38 14.64 38 16 C39.32 16 40.64 16 42 16 C42 17.32 42 18.64 42 20 C43.32 20 44.64 20 46 20 C46 21.32 46 22.64 46 24 C46.99 24 47.98 24 49 24 C49 28.29 49 32.58 49 37 C48.01 37 47.02 37 46 37 C46.495 40.96 46.495 40.96 47 45 C45.35 45 43.7 45 42 45 C42.2784375 46.670625 42.2784375 46.670625 42.5625 48.375 C43 52 43 52 42 54 C43.32 54 44.64 54 46 54 C46 55.32 46 56.64 46 58 C42.04 58 38.08 58 34 58 C34 60.64 34 63.28 34 66 C33.01 66 32.02 66 31 66 C31 67.32 31 68.64 31 70 C29.68 70 28.36 70 27 70 C27 70.99 27 71.98 27 73 C24.36 73 21.72 73 19 73 C19 72.01 19 71.02 19 70 C17.68 70 16.36 70 15 70 C15 68.68 15 67.36 15 66 C13.68 66 12.36 66 11 66 C11 63.69 11 61.38 11 59 C8.69 59 6.38 59 4 59 C4 61.31 4 63.62 4 66 C3.01 66 2.02 66 1 66 C1 62.37 1 58.74 1 55 C-0.32 55 -1.64 55 -3 55 C-3 54.01 -3 53.02 -3 52 C-5.97 52 -8.94 52 -12 52 C-12 52.99 -12 53.98 -12 55 C-13.32 55 -14.64 55 -16 55 C-16 53.68 -16 52.36 -16 51 C-14.68 51 -13.36 51 -12 51 C-12 50.01 -12 49.02 -12 48 C-8.04 48 -4.08 48 0 48 C0 49.32 0 50.64 0 52 C1.32 52 2.64 52 4 52 C4 52.99 4 53.98 4 55 C6.31 55 8.62 55 11 55 C11 54.01 11 53.02 11 52 C12.32 52 13.64 52 15 52 C15 56.29 15 60.58 15 65 C16.32 65 17.64 65 19 65 C19 61.7 19 58.4 19 55 C20.65 55 22.3 55 24 55 C24 58.63 24 62.26 24 66 C22.35 66 20.7 66 19 66 C19 66.99 19 67.98 19 69 C21.64 69 24.28 69 27 69 C27 68.01 27 67.02 27 66 C27.99 66 28.98 66 30 66 C30 62.37 30 58.74 30 55 C29.01 55 28.02 55 27 55 C27 53.68 27 52.36 27 51 C23.04 51 19.08 51 15 51 C15 50.01 15 49.02 15 48 C19.95 48 24.9 48 30 48 C30 48.99 30 49.98 30 51 C32.64 51 35.28 51 38 51 C38 50.01 38 49.02 38 48 C36.68 48 35.36 48 34 48 C34 46.68 34 45.36 34 44 C33.01 44 32.02 44 31 44 C31 42.68 31 41.36 31 40 C29.68 40 28.36 40 27 40 C27 37.36 27 34.72 27 32 C24.36 32 21.72 32 19 32 C19 33.32 19 34.64 19 36 C17.68 36 16.36 36 15 36 C15.33 34.68 15.66 33.36 16 32 C16.66 32 17.32 32 18 32 C18.33 28.04 18.66 24.08 19 20 C17.68 20 16.36 20 15 20 C15 21.32 15 22.64 15 24 C12.69 24 10.38 24 8 24 C8 22.68 8 21.36 8 20 C9.32 20 10.64 20 12 20 C12 19.01 12 18.02 12 17 C13.32 17 14.64 17 16 17 C16 15.35 16 13.7 16 12 C13.36 12 10.72 12 8 12 C8 13.32 8 14.64 8 16 C4.04 16 0.08 16 -4 16 C-4 14.68 -4 13.36 -4 12 C-1.36 12 1.28 12 4 12 C4 10.68 4 9.36 4 8 C6.64 8 9.28 8 12 8 C12 7.01 12 6.02 12 5 C8.37 5 4.74 5 1 5 C0.67 3.35 0.34 1.7 0 0 Z " fill="#18212B" transform="translate(34,0)"/>
<path d="M0 0 C2.64 0 5.28 0 8 0 C8 2.64 8 5.28 8 8 C9.32 8 10.64 8 12 8 C12 9.32 12 10.64 12 12 C12.99 12 13.98 12 15 12 C15 13.32 15 14.64 15 16 C16.32 16 17.64 16 19 16 C19 16.99 19 17.98 19 19 C16.36 19 13.72 19 11 19 C11 18.01 11 17.02 11 16 C6.05 16 1.1 16 -4 16 C-4 16.99 -4 17.98 -4 19 C-0.04 19 3.92 19 8 19 C8 20.32 8 21.64 8 23 C8.99 23 9.98 23 11 23 C11 26.63 11 30.26 11 34 C10.01 34 9.02 34 8 34 C8 34.99 8 35.98 8 37 C5.36 37 2.72 37 0 37 C0 36.01 0 35.02 0 34 C1.65 34 3.3 34 5 34 C5 30.37 5 26.74 5 23 C3.35 23 1.7 23 0 23 C0 26.3 0 29.6 0 33 C-1.32 33 -2.64 33 -4 33 C-4 28.71 -4 24.42 -4 20 C-5.32 20 -6.64 20 -8 20 C-8 20.99 -8 21.98 -8 23 C-10.31 23 -12.62 23 -15 23 C-15 22.01 -15 21.02 -15 20 C-16.32 20 -17.64 20 -19 20 C-19 18.68 -19 17.36 -19 16 C-22.96 16 -26.92 16 -31 16 C-31 16.99 -31 17.98 -31 19 C-32.32 19 -33.64 19 -35 19 C-35 20.32 -35 21.64 -35 23 C-35.99 23 -36.98 23 -38 23 C-38 20.69 -38 18.38 -38 16 C-37.01 16 -36.02 16 -35 16 C-35 14.68 -35 13.36 -35 12 C-31.04 12 -27.08 12 -23 12 C-23 10.68 -23 9.36 -23 8 C-21.68 8 -20.36 8 -19 8 C-19 9.32 -19 10.64 -19 12 C-16.69 12 -14.38 12 -12 12 C-12 10.68 -12 9.36 -12 8 C-9.36 8 -6.72 8 -4 8 C-4 6.68 -4 5.36 -4 4 C-2.68 4 -1.36 4 0 4 C0 2.68 0 1.36 0 0 Z " fill="#DBB093" transform="translate(53,32)"/>
<path d="M0 0 C0.33 0.99 0.66 1.98 1 3 C4.63 3 8.26 3 12 3 C12 3.99 12 4.98 12 6 C9.36 6 6.72 6 4 6 C4 7.32 4 8.64 4 10 C1.36 10 -1.28 10 -4 10 C-4 11.32 -4 12.64 -4 14 C-0.04 14 3.92 14 8 14 C8 12.68 8 11.36 8 10 C10.64 10 13.28 10 16 10 C16 11.65 16 13.3 16 15 C14.68 15 13.36 15 12 15 C12 15.99 12 16.98 12 18 C10.68 18 9.36 18 8 18 C8 19.32 8 20.64 8 22 C10.31 22 12.62 22 15 22 C15 20.68 15 19.36 15 18 C16.32 18 17.64 18 19 18 C19 19.65 19 21.3 19 23 C18.01 23 17.02 23 16 23 C15.67 24.32 15.34 25.64 15 27 C12.69 27 10.38 27 8 27 C8 27.99 8 28.98 8 30 C6.68 30 5.36 30 4 30 C4 28.68 4 27.36 4 26 C4.99 26 5.98 26 7 26 C7 25.01 7 24.02 7 23 C3.04 23 -0.92 23 -5 23 C-5 21.68 -5 20.36 -5 19 C-5.99 19 -6.98 19 -8 19 C-8 21.31 -8 23.62 -8 26 C-10.64 26 -13.28 26 -16 26 C-16 24.68 -16 23.36 -16 22 C-14.68 22 -13.36 22 -12 22 C-12 20.68 -12 19.36 -12 18 C-11.01 18 -10.02 18 -9 18 C-9 17.01 -9 16.02 -9 15 C-9.99 15 -10.98 15 -12 15 C-12 13.68 -12 12.36 -12 11 C-15.96 11 -19.92 11 -24 11 C-22.68 10.34 -21.36 9.68 -20 9 C-20 8.01 -20 7.02 -20 6 C-16.535 5.505 -16.535 5.505 -13 5 C-13 4.01 -13 3.02 -13 2 C-8.71 2 -4.42 2 0 2 C0 1.34 0 0.68 0 0 Z M-19 26 C-18.01 26 -17.02 26 -16 26 C-16 27.65 -16 29.3 -16 31 C-17.32 31 -18.64 31 -20 31 C-20 31.99 -20 32.98 -20 34 C-21.32 34 -22.64 34 -24 34 C-24 32.68 -24 31.36 -24 30 C-22.68 30 -21.36 30 -20 30 C-19.67 28.68 -19.34 27.36 -19 26 Z " fill="#575A63" transform="translate(34,2)"/>
<path d="M0 0 C2.31 0 4.62 0 7 0 C6.01 1.32 5.02 2.64 4 4 C10.93 4.495 10.93 4.495 18 5 C18 5.33 18 5.66 18 6 C13.05 6 8.1 6 3 6 C3 7.32 3 8.64 3 10 C6.96 10 10.92 10 15 10 C15 11.32 15 12.64 15 14 C15.99 14 16.98 14 18 14 C18 17.63 18 21.26 18 25 C17.01 25 16.02 25 15 25 C15 25.99 15 26.98 15 28 C12.36 28 9.72 28 7 28 C7 27.01 7 26.02 7 25 C8.65 25 10.3 25 12 25 C12 21.37 12 17.74 12 14 C10.35 14 8.7 14 7 14 C7 17.3 7 20.6 7 24 C5.68 24 4.36 24 3 24 C3 19.71 3 15.42 3 11 C1.68 11 0.36 11 -1 11 C-1 11.99 -1 12.98 -1 14 C-3.31 14 -5.62 14 -8 14 C-8 12.68 -8 11.36 -8 10 C-8.99 10 -9.98 10 -11 10 C-11 9.01 -11 8.02 -11 7 C-8.69 7 -6.38 7 -4 7 C-4 5.68 -4 4.36 -4 3 C-2.68 3 -1.36 3 0 3 C0 2.01 0 1.02 0 0 Z " fill="#F9E3C0" transform="translate(46,41)"/>
<path d="M0 0 C2.97 0 5.94 0 9 0 C9 0.99 9 1.98 9 3 C10.32 3 11.64 3 13 3 C13.02715383 4.74991334 13.04646551 6.49994945 13.0625 8.25 C13.07410156 9.22453125 13.08570312 10.1990625 13.09765625 11.203125 C13.01195577 13.65758678 12.70706066 15.66168914 12 18 C11.01 18 10.02 18 9 18 C9 18.99 9 19.98 9 21 C6.03 21 3.06 21 0 21 C0 20.01 0 19.02 0 18 C-1.32 18 -2.64 18 -4 18 C-4 13.05 -4 8.1 -4 3 C-2.68 3 -1.36 3 0 3 C0 2.01 0 1.02 0 0 Z " fill="#77716D" transform="translate(22,52)"/>
<path d="M0 0 C2.475 0.495 2.475 0.495 5 1 C5 2.32 5 3.64 5 5 C6.32 5 7.64 5 9 5 C9 6.32 9 7.64 9 9 C10.65 9 12.3 9 14 9 C14 9.99 14 10.98 14 12 C21.26 12 28.52 12 36 12 C36 11.01 36 10.02 36 9 C37.32 9 38.64 9 40 9 C40 7.68 40 6.36 40 5 C41.32 5 42.64 5 44 5 C44 4.01 44 3.02 44 2 C45.32 2 46.64 2 48 2 C48 3.32 48 4.64 48 6 C47.01 6.33 46.02 6.66 45 7 C45 7.66 45 8.32 45 9 C43.68 9 42.36 9 41 9 C41 10.32 41 11.64 41 13 C39.68 13.33 38.36 13.66 37 14 C37 14.99 37 15.98 37 17 C35.68 17 34.36 17 33 17 C33 17.99 33 18.98 33 20 C27.72 20 22.44 20 17 20 C17 19.01 17 18.02 17 17 C15.68 17 14.36 17 13 17 C13 15.68 13 14.36 13 13 C11.35 13 9.7 13 8 13 C8 11.68 8 10.36 8 9 C6.68 9.33 5.36 9.66 4 10 C4 9.01 4 8.02 4 7 C2.68 6.67 1.36 6.34 0 6 C0 4.02 0 2.04 0 0 Z " fill="#DFAD90" transform="translate(17,83)"/>
<path d="M0 0 C3.96 0 7.92 0 12 0 C12 1.32 12 2.64 12 4 C12.99 4 13.98 4 15 4 C15 4.99 15 5.98 15 7 C14.01 7 13.02 7 12 7 C12 8.32 12 9.64 12 11 C10.68 11 9.36 11 8 11 C8 12.32 8 13.64 8 15 C3.96293439 16.11367327 0.16604332 16 -4 16 C-4 14.68 -4 13.36 -4 12 C-5.98 12 -7.96 12 -10 12 C-10 10.35 -10 8.7 -10 7 C-8.02 7 -6.04 7 -4 7 C-4 5.68 -4 4.36 -4 3 C-2.68 3 -1.36 3 0 3 C0 2.01 0 1.02 0 0 Z " fill="#18222C" transform="translate(10,13)"/>
<path d="M0 0 C0.33 0.99 0.66 1.98 1 3 C4.63 3 8.26 3 12 3 C12 3.99 12 4.98 12 6 C9.36 6 6.72 6 4 6 C4 7.32 4 8.64 4 10 C-5.34809779 10.66433182 -14.62122392 11.1598655 -24 11 C-22.68 10.34 -21.36 9.68 -20 9 C-20 8.01 -20 7.02 -20 6 C-16.535 5.505 -16.535 5.505 -13 5 C-13 4.01 -13 3.02 -13 2 C-8.71 2 -4.42 2 0 2 C0 1.34 0 0.68 0 0 Z " fill="#3A424D" transform="translate(34,2)"/>
<path d="M0 0 C1.51400391 0.01740234 1.51400391 0.01740234 3.05859375 0.03515625 C4.07050781 0.04417969 5.08242187 0.05320313 6.125 0.0625 C7.29869141 0.07990234 7.29869141 0.07990234 8.49609375 0.09765625 C8.49609375 2.73765625 8.49609375 5.37765625 8.49609375 8.09765625 C8.16609375 8.09765625 7.83609375 8.09765625 7.49609375 8.09765625 C7.49609375 5.78765625 7.49609375 3.47765625 7.49609375 1.09765625 C6.50609375 1.42765625 5.51609375 1.75765625 4.49609375 2.09765625 C4.49609375 6.38765625 4.49609375 10.67765625 4.49609375 15.09765625 C7.96109375 14.60265625 7.96109375 14.60265625 11.49609375 14.09765625 C12.34063731 17.4758305 12.60454294 19.77230868 11.49609375 23.09765625 C10.17609375 23.09765625 8.85609375 23.09765625 7.49609375 23.09765625 C7.49609375 21.77765625 7.49609375 20.45765625 7.49609375 19.09765625 C6.17609375 19.09765625 4.85609375 19.09765625 3.49609375 19.09765625 C3.49609375 18.10765625 3.49609375 17.11765625 3.49609375 16.09765625 C0.85609375 16.09765625 -1.78390625 16.09765625 -4.50390625 16.09765625 C-4.36366406 13.61805489 -4.21698775 11.13913223 -4.06640625 8.66015625 C-4.02708984 7.95310547 -3.98777344 7.24605469 -3.94726562 6.51757812 C-3.55047926 0.13847423 -3.55047926 0.13847423 0 0 Z " fill="#AA7F70" transform="translate(6.50390625,57.90234375)"/>
<path d="M0 0 C1.32 0 2.64 0 4 0 C4 1.32 4 2.64 4 4 C5.32 4 6.64 4 8 4 C8 5.32 8 6.64 8 8 C11.63 8 15.26 8 19 8 C19.33 6.68 19.66 5.36 20 4 C20 5.32 20 6.64 20 8 C22.31 8 24.62 8 27 8 C27 6.68 27 5.36 27 4 C28.32 4 29.64 4 31 4 C31 5.65 31 7.3 31 9 C30.01 9 29.02 9 28 9 C27.67 10.32 27.34 11.64 27 13 C24.69 13 22.38 13 20 13 C20 13.99 20 14.98 20 16 C18.68 16 17.36 16 16 16 C16 14.68 16 13.36 16 12 C16.99 12 17.98 12 19 12 C19 11.01 19 10.02 19 9 C15.04 9 11.08 9 7 9 C7 7.68 7 6.36 7 5 C6.01 5 5.02 5 4 5 C4 7.31 4 9.62 4 12 C1.36 12 -1.28 12 -4 12 C-4 10.68 -4 9.36 -4 8 C-2.68 8 -1.36 8 0 8 C0 6.68 0 5.36 0 4 C0.99 4 1.98 4 3 4 C3 3.01 3 2.02 3 1 C2.01 0.67 1.02 0.34 0 0 Z M-7 12 C-6.01 12 -5.02 12 -4 12 C-4 13.65 -4 15.3 -4 17 C-5.32 17 -6.64 17 -8 17 C-8 17.99 -8 18.98 -8 20 C-9.32 20 -10.64 20 -12 20 C-12 18.68 -12 17.36 -12 16 C-10.68 16 -9.36 16 -8 16 C-7.67 14.68 -7.34 13.36 -7 12 Z " fill="#39404B" transform="translate(22,16)"/>
<path d="M0 0 C1.32 0 2.64 0 4 0 C4 1.32 4 2.64 4 4 C6.31 4 8.62 4 11 4 C11 2.68 11 1.36 11 0 C13.64 0 16.28 0 19 0 C18.01 0.33 17.02 0.66 16 1 C16 1.99 16 2.98 16 4 C14.68 4 13.36 4 12 4 C12 5.32 12 6.64 12 8 C9.69 8 7.38 8 5 8 C5 8.99 5 9.98 5 11 C5.99 11.33 6.98 11.66 8 12 C6.68 12 5.36 12 4 12 C4 10.68 4 9.36 4 8 C0.04 8 -3.92 8 -8 8 C-8 8.99 -8 9.98 -8 11 C-9.32 11 -10.64 11 -12 11 C-12 12.32 -12 13.64 -12 15 C-12.99 15 -13.98 15 -15 15 C-15 12.69 -15 10.38 -15 8 C-14.01 8 -13.02 8 -12 8 C-12 6.68 -12 5.36 -12 4 C-8.04 4 -4.08 4 0 4 C0 2.68 0 1.36 0 0 Z " fill="#DC9F86" transform="translate(30,40)"/>
<path d="M0 0 C2.64 0 5.28 0 8 0 C8 0.99 8 1.98 8 3 C6.68 3 5.36 3 4 3 C4 6.63 4 10.26 4 14 C5.32 14 6.64 14 8 14 C8 14.99 8 15.98 8 17 C5.36 17 2.72 17 0 17 C0 16.01 0 15.02 0 14 C-1.32 14 -2.64 14 -4 14 C-4 10.37 -4 6.74 -4 3 C-2.68 3 -1.36 3 0 3 C0 2.01 0 1.02 0 0 Z " fill="#E1D0B7" transform="translate(22,52)"/>
<path d="M0 0 C3.96 0 7.92 0 12 0 C12 1.32 12 2.64 12 4 C13.32 4 14.64 4 16 4 C16 5.32 16 6.64 16 8 C18.31 8 20.62 8 23 8 C23.33 8.66 23.66 9.32 24 10 C21.36 10 18.72 10 16 10 C16 12.64 16 15.28 16 18 C15.01 18 14.02 18 13 18 C13 14.37 13 10.74 13 7 C11.68 7 10.36 7 9 7 C9 6.01 9 5.02 9 4 C6.03 4 3.06 4 0 4 C0 4.99 0 5.98 0 7 C-1.32 7 -2.64 7 -4 7 C-4 5.68 -4 4.36 -4 3 C-2.68 3 -1.36 3 0 3 C0 2.01 0 1.02 0 0 Z " fill="#040A12" transform="translate(22,48)"/>
<path d="M0 0 C0.99 0.33 1.98 0.66 3 1 C3 2.32 3 3.64 3 5 C5.64 5 8.28 5 11 5 C11 8.63 11 12.26 11 16 C10.01 16 9.02 16 8 16 C8 13.36 8 10.72 8 8 C4.37 8.33 0.74 8.66 -3 9 C-3.33 12.63 -3.66 16.26 -4 20 C-4.99 20 -5.98 20 -7 20 C-7 16.04 -7 12.08 -7 8 C-6.01 8 -5.02 8 -4 8 C-4.33 6.68 -4.66 5.36 -5 4 C-3.35 4 -1.7 4 0 4 C0 2.68 0 1.36 0 0 Z " fill="#141D27" transform="translate(7,50)"/>
<path d="M0 0 C0.99 0 1.98 0 3 0 C3 3.96 3 7.92 3 12 C2.01 12 1.02 12 0 12 C0 13.32 0 14.64 0 16 C-0.99 16.33 -1.98 16.66 -3 17 C-3 17.66 -3 18.32 -3 19 C-3.639375 19.28875 -4.27875 19.5775 -4.9375 19.875 C-7.15206079 20.82823451 -7.15206079 20.82823451 -8 23 C-8.99 23 -9.98 23 -11 23 C-11 24.32 -11 25.64 -11 27 C-12.32 27 -13.64 27 -15 27 C-15 25.35 -15 23.7 -15 22 C-14.01 22 -13.02 22 -12 22 C-12 19.69 -12 17.38 -12 15 C-9.36 15 -6.72 15 -4 15 C-4 14.01 -4 13.02 -4 12 C-3.01 11.67 -2.02 11.34 -1 11 C-0.67 7.37 -0.34 3.74 0 0 Z " fill="#121C2B" transform="translate(80,58)"/>
<path d="M0 0 C3.63 0 7.26 0 11 0 C11 5.61 11 11.22 11 17 C8.69 17 6.38 17 4 17 C4 16.01 4 15.02 4 14 C5.65 14 7.3 14 9 14 C9 10.37 9 6.74 9 3 C7.35 3 5.7 3 4 3 C4 6.3 4 9.6 4 13 C2.68 13 1.36 13 0 13 C0 8.71 0 4.42 0 0 Z " fill="#F3E5CB" transform="translate(49,52)"/>
<path d="M0 0 C2.64 0 5.28 0 8 0 C8 3.63 8 7.26 8 11 C6.68 11.33 5.36 11.66 4 12 C4 12.99 4 13.98 4 15 C2.68 14.67 1.36 14.34 0 14 C0.99 14 1.98 14 3 14 C2.01 13.67 1.02 13.34 0 13 C0 8.71 0 4.42 0 0 Z " fill="#A47266" transform="translate(72,58)"/>
<path d="M0 0 C1.32 0 2.64 0 4 0 C4 0.99 4 1.98 4 3 C8.95 3 13.9 3 19 3 C19 2.01 19 1.02 19 0 C21.475 0.495 21.475 0.495 24 1 C24 1.99 24 2.98 24 4 C22.68 4 21.36 4 20 4 C20 4.99 20 5.98 20 7 C14.72 7 9.44 7 4 7 C4 6.01 4 5.02 4 4 C2.68 4 1.36 4 0 4 C0 2.68 0 1.36 0 0 Z " fill="#2C282C" transform="translate(30,96)"/>
<path d="M0 0 C0.99 0 1.98 0 3 0 C3 1.32 3 2.64 3 4 C4.32 4 5.64 4 7 4 C7 2.68 7 1.36 7 0 C7.99 0 8.98 0 10 0 C10 2.31 10 4.62 10 7 C9.01 7 8.02 7 7 7 C7 9.64 7 12.28 7 15 C6.01 15 5.02 15 4 15 C3.67 14.01 3.34 13.02 3 12 C2.01 11.67 1.02 11.34 0 11 C0 7.37 0 3.74 0 0 Z " fill="#2A333F" transform="translate(65,25)"/>
<path d="M0 0 C2.31 0 4.62 0 7 0 C7 0.99 7 1.98 7 3 C9.64 2.67 12.28 2.34 15 2 C15.84454356 5.37817425 16.10844919 7.67465243 15 11 C13.68 11 12.36 11 11 11 C11 9.68 11 8.36 11 7 C9.68 7 8.36 7 7 7 C7 6.01 7 5.02 7 4 C4.36 4 1.72 4 -1 4 C-0.67 2.68 -0.34 1.36 0 0 Z " fill="#090F1E" transform="translate(3,70)"/>
<path d="M0 0 C0.99 0 1.98 0 3 0 C2.67 2.31 2.34 4.62 2 7 C1.34 7 0.68 7 0 7 C-0.33 8.32 -0.66 9.64 -1 11 C-4.96 11 -8.92 11 -13 11 C-12.67 9.68 -12.34 8.36 -12 7 C-10.68 7 -9.36 7 -8 7 C-8 6.01 -8 5.02 -8 4 C-4.535 3.505 -4.535 3.505 -1 3 C-0.67 2.01 -0.34 1.02 0 0 Z " fill="#212D38" transform="translate(50,25)"/>
<path d="M0 0 C1.32 0 2.64 0 4 0 C4 4.29 4 8.58 4 13 C4.99 12.67 5.98 12.34 7 12 C7 12.66 7 13.32 7 14 C3.52674819 15.1577506 0.63932552 15.06866652 -3 15 C-3 12.69 -3 10.38 -3 8 C-2.01 8 -1.02 8 0 8 C0 5.36 0 2.72 0 0 Z " fill="#EFC2A0" transform="translate(68,58)"/>
<path d="M0 0 C1.32 0 2.64 0 4 0 C4 0.66 4 1.32 4 2 C3.01 2 2.02 2 1 2 C0.67 3.32 0.34 4.64 0 6 C1.32 6.33 2.64 6.66 4 7 C4 7.33 4 7.66 4 8 C0.04 8 -3.92 8 -8 8 C-8 8.99 -8 9.98 -8 11 C-9.32 11 -10.64 11 -12 11 C-12 12.32 -12 13.64 -12 15 C-12.99 15 -13.98 15 -15 15 C-15 12.69 -15 10.38 -15 8 C-14.01 8 -13.02 8 -12 8 C-12 6.68 -12 5.36 -12 4 C-8.04 4 -4.08 4 0 4 C0 2.68 0 1.36 0 0 Z " fill="#C4826D" transform="translate(30,40)"/>
<path d="M0 0 C0.99 0 1.98 0 3 0 C3.33 2.31 3.66 4.62 4 7 C1.36 7 -1.28 7 -4 7 C-4 5.68 -4 4.36 -4 3 C-2.68 3 -1.36 3 0 3 C0 2.01 0 1.02 0 0 Z M-7 7 C-6.01 7 -5.02 7 -4 7 C-4 8.65 -4 10.3 -4 12 C-5.32 12 -6.64 12 -8 12 C-8 12.99 -8 13.98 -8 15 C-9.32 15 -10.64 15 -12 15 C-12 13.68 -12 12.36 -12 11 C-10.68 11 -9.36 11 -8 11 C-7.67 9.68 -7.34 8.36 -7 7 Z " fill="#3A414C" transform="translate(22,21)"/>
<path d="M0 0 C5.28 0 10.56 0 16 0 C16 1.32 16 2.64 16 4 C16.99 4 17.98 4 19 4 C19 7.63 19 11.26 19 15 C18.01 15 17.02 15 16 15 C15.67 15.99 15.34 16.98 15 18 C14.0983142 14.91566208 13.86531951 12.14658179 13.875 8.9375 C13.87242188 8.08027344 13.86984375 7.22304688 13.8671875 6.33984375 C14 4 14 4 15 1 C10.05 1 5.1 1 0 1 C0 0.67 0 0.34 0 0 Z " fill="#D4C3A9" transform="translate(45,51)"/>
<path d="M0 0 C1.32 0 2.64 0 4 0 C4 4.62 4 9.24 4 14 C2.68 14 1.36 14 0 14 C0 11.69 0 9.38 0 7 C-2.31 7 -4.62 7 -7 7 C-7 6.67 -7 6.34 -7 6 C-3.535 5.505 -3.535 5.505 0 5 C-2.31 4.67 -4.62 4.34 -7 4 C-7 3.67 -7 3.34 -7 3 C-4.69 3 -2.38 3 0 3 C0 2.01 0 1.02 0 0 Z " fill="#080D18" transform="translate(45,52)"/>
<path d="M0 0 C2.64 0 5.28 0 8 0 C8 0.33 8 0.66 8 1 C5.69 1 3.38 1 1 1 C2.06645115 2.29633621 2.06645115 2.29633621 4.5625 2.0625 C5.366875 2.041875 6.17125 2.02125 7 2 C6.01 2.33 5.02 2.66 4 3 C4 4.65 4 6.3 4 8 C0.04 8 -3.92 8 -8 8 C-8 6.68 -8 5.36 -8 4 C-5.36 4 -2.72 4 0 4 C0 2.68 0 1.36 0 0 Z " fill="#1C242F" transform="translate(38,8)"/>
<path d="M0 0 C2.475 0.495 2.475 0.495 5 1 C5 2.32 5 3.64 5 5 C6.32 5 7.64 5 9 5 C9 6.32 9 7.64 9 9 C10.32 9 11.64 9 13 9 C13 10.32 13 11.64 13 13 C11.35 13 9.7 13 8 13 C8 11.68 8 10.36 8 9 C6.68 9.33 5.36 9.66 4 10 C4 9.01 4 8.02 4 7 C2.68 6.67 1.36 6.34 0 6 C0 4.02 0 2.04 0 0 Z " fill="#1A212E" transform="translate(17,83)"/>
<path d="M0 0 C0.99 0 1.98 0 3 0 C1.58807955 3.4121411 0.21936497 5.16036287 -3 7 C-5.6729445 7.21326685 -8.0926212 7.28545631 -10.75 7.1875 C-11.44738281 7.17396484 -12.14476562 7.16042969 -12.86328125 7.14648438 C-14.57585541 7.1112945 -16.28802941 7.05749155 -18 7 C-18 6.01 -18 5.02 -18 4 C-16.95199219 3.96261719 -15.90398438 3.92523438 -14.82421875 3.88671875 C-13.44527695 3.82105485 -12.06637229 3.75460765 -10.6875 3.6875 C-9.65206055 3.65366211 -9.65206055 3.65366211 -8.59570312 3.61914062 C-4.56650445 3.46401213 -4.56650445 3.46401213 -1.20703125 1.45703125 C-0.80871094 0.97621094 -0.41039063 0.49539062 0 0 Z " fill="#23292F" transform="translate(51,79)"/>
<path d="M0 0 C2.64 0 5.28 0 8 0 C8 1.65 8 3.3 8 5 C6.68 5 5.36 5 4 5 C4 5.99 4 6.98 4 8 C2.35 7.67 0.7 7.34 -1 7 C-1 6.34 -1 5.68 -1 5 C-4.63 5 -8.26 5 -12 5 C-12 4.67 -12 4.34 -12 4 C-8.04 4 -4.08 4 0 4 C0 2.68 0 1.36 0 0 Z " fill="#444954" transform="translate(42,12)"/>
<path d="M0 0 C1.32 0 2.64 0 4 0 C4 0.99 4 1.98 4 3 C6.97 3 9.94 3 13 3 C13 2.01 13 1.02 13 0 C13.99 0 14.98 0 16 0 C16 1.32 16 2.64 16 4 C15.01 4 14.02 4 13 4 C13 4.99 13 5.98 13 7 C10.03 7 7.06 7 4 7 C4 6.01 4 5.02 4 4 C2.68 4 1.36 4 0 4 C0 2.68 0 1.36 0 0 Z " fill="#2D2C2E" transform="translate(18,66)"/>
<path d="M0 0 C1.98 0 3.96 0 6 0 C6 1.32 6 2.64 6 4 C8.31 4 10.62 4 13 4 C13.33 4.66 13.66 5.32 14 6 C11.36 6 8.72 6 6 6 C6 8.64 6 11.28 6 14 C5.01 14 4.02 14 3 14 C2.92652344 12.82630859 2.92652344 12.82630859 2.8515625 11.62890625 C2.77679688 10.61699219 2.70203125 9.60507812 2.625 8.5625 C2.55539063 7.55316406 2.48578125 6.54382812 2.4140625 5.50390625 C2.27742188 4.67761719 2.14078125 3.85132813 2 3 C1.34 2.67 0.68 2.34 0 2 C0 1.34 0 0.68 0 0 Z " fill="#040C18" transform="translate(32,52)"/>
<path d="M0 0 C4.95 0 9.9 0 15 0 C15.33 0.99 15.66 1.98 16 3 C16.99 3.66 17.98 4.32 19 5 C18.01 5 17.02 5 16 5 C16 5.66 16 6.32 16 7 C14.68 7 13.36 7 12 7 C12 5.68 12 4.36 12 3 C8.04 3 4.08 3 0 3 C0 2.01 0 1.02 0 0 Z " fill="#050911" transform="translate(49,48)"/>
<path d="M0 0 C2.31 0 4.62 0 7 0 C7 1.65 7 3.3 7 5 C5.68 5 4.36 5 3 5 C3 7.97 3 10.94 3 14 C2.01 14 1.02 14 0 14 C0 9.38 0 4.76 0 0 Z " fill="#46393D" transform="translate(65,51)"/>
<path d="M0 0 C1.32 0 2.64 0 4 0 C4 2.31 4 4.62 4 7 C5.32 7 6.64 7 8 7 C8 8.65 8 10.3 8 12 C7.34 11.67 6.68 11.34 6 11 C6.33 10.01 6.66 9.02 7 8 C6.34 8 5.68 8 5 8 C5 9.98 5 11.96 5 14 C3.68 14 2.36 14 1 14 C0.67 9.38 0.34 4.76 0 0 Z " fill="#F2C5A2" transform="translate(10,59)"/>
<path d="M0 0 C4.51617599 -0.07654536 8.59085217 -0.10228696 13 1 C13 2.32 13 3.64 13 5 C9.04 5 5.08 5 1 5 C0.67 3.35 0.34 1.7 0 0 Z " fill="#111B25" transform="translate(21,4)"/>
<path d="M0 0 C1.32 0 2.64 0 4 0 C4 1.32 4 2.64 4 4 C3.01 4.33 2.02 4.66 1 5 C1 5.66 1 6.32 1 7 C-0.32 7 -1.64 7 -3 7 C-3 8.32 -3 9.64 -3 11 C-4.65 11 -6.3 11 -8 11 C-8 9.68 -8 8.36 -8 7 C-6.68 7 -5.36 7 -4 7 C-4 5.68 -4 4.36 -4 3 C-2.68 3 -1.36 3 0 3 C0 2.01 0 1.02 0 0 Z " fill="#0B1320" transform="translate(61,85)"/>
<path d="M0 0 C0.99 0 1.98 0 3 0 C3 1.32 3 2.64 3 4 C3.99 4.33 4.98 4.66 6 5 C5.01 5 4.02 5 3 5 C3 6.32 3 7.64 3 9 C1.68 9 0.36 9 -1 9 C-1 7.68 -1 6.36 -1 5 C-1.99 5 -2.98 5 -4 5 C-4 8.63 -4 12.26 -4 16 C-4.33 16 -4.66 16 -5 16 C-5 12.04 -5 8.08 -5 4 C-3.68 4 -2.36 4 -1 4 C-0.67 2.68 -0.34 1.36 0 0 Z " fill="#1E2833" transform="translate(69,20)"/>
<path d="M0 0 C0.33 0 0.66 0 1 0 C1 3.63 1 7.26 1 11 C2.65 11 4.3 11 6 11 C6 11.99 6 12.98 6 14 C2.04 14 -1.92 14 -6 14 C-6 13.34 -6 12.68 -6 12 C-4.68 11.67 -3.36 11.34 -2 11 C-1.34 7.37 -0.68 3.74 0 0 Z " fill="#030D1A" transform="translate(74,44)"/>
<path d="M0 0 C5.28 0 10.56 0 16 0 C16 0.99 16 1.98 16 3 C10.72 3 5.44 3 0 3 C0 2.01 0 1.02 0 0 Z " fill="#0A101B" transform="translate(34,100)"/>
<path d="M0 0 C0 3.3 0 6.6 0 10 C-0.99 10 -1.98 10 -3 10 C-3 7.36 -3 4.72 -3 2 C-6.63 2 -10.26 2 -14 2 C-14 1.67 -14 1.34 -14 1 C-12.41693353 0.83081732 -10.83353281 0.66476064 -9.25 0.5 C-8.36828125 0.4071875 -7.4865625 0.314375 -6.578125 0.21875 C-4 0 -4 0 0 0 Z " fill="#020C17" transform="translate(18,56)"/>
<path d="M0 0 C1.32 0 2.64 0 4 0 C4 3.3 4 6.6 4 10 C2.68 10 1.36 10 0 10 C0 6.7 0 3.4 0 0 Z " fill="#F7E4C5" transform="translate(75,59)"/>
<path d="M0 0 C1.32 0 2.64 0 4 0 C4 3.3 4 6.6 4 10 C2.68 10 1.36 10 0 10 C0 6.7 0 3.4 0 0 Z " fill="#F7E2C2" transform="translate(4,59)"/>
<path d="M0 0 C1.32 0 2.64 0 4 0 C4 3.3 4 6.6 4 10 C2.68 10 1.36 10 0 10 C0 6.7 0 3.4 0 0 Z " fill="#080E1A" transform="translate(53,55)"/>
<path d="M0 0 C0.268125 0.61875 0.53625 1.2375 0.8125 1.875 C1.95556848 4.2995233 1.95556848 4.2995233 5 6 C4.67 6.66 4.34 7.32 4 8 C3.01 8 2.02 8 1 8 C1 9.32 1 10.64 1 12 C-0.32 12 -1.64 12 -3 12 C-3 10.35 -3 8.7 -3 7 C-2.01 7 -1.02 7 0 7 C0 4.69 0 2.38 0 0 Z " fill="#242730" transform="translate(68,73)"/>
<path d="M0 0 C0.99 0.33 1.98 0.66 3 1 C2.34 1 1.68 1 1 1 C1 2.98 1 4.96 1 7 C-1.31 7.33 -3.62 7.66 -6 8 C-6.33 6.35 -6.66 4.7 -7 3 C-4.69 3 -2.38 3 0 3 C0 2.01 0 1.02 0 0 Z " fill="#0B1322" transform="translate(76,70)"/>
<path d="M0 0 C2.64 0 5.28 0 8 0 C7.01 0.33 6.02 0.66 5 1 C5 1.99 5 2.98 5 4 C4.360625 4.12375 3.72125 4.2475 3.0625 4.375 C2.381875 4.58125 1.70125 4.7875 1 5 C0.67 5.66 0.34 6.32 0 7 C-1.98 7 -3.96 7 -6 7 C-6.33 6.01 -6.66 5.02 -7 4 C-4.69 4 -2.38 4 0 4 C0 2.68 0 1.36 0 0 Z " fill="#BB836E" transform="translate(41,40)"/>
<path d="M0 0 C1.98 0.495 1.98 0.495 4 1 C3.67 3.64 3.34 6.28 3 9 C1.68 9 0.36 9 -1 9 C-1.07427838 5.65747276 -1.06546953 3.1964086 0 0 Z " fill="#23272E" transform="translate(15,72)"/>
<path d="M0 0 C1.32 0 2.64 0 4 0 C4 2.97 4 5.94 4 9 C2.68 9 1.36 9 0 9 C0 6.03 0 3.06 0 0 Z " fill="#040A12" transform="translate(26,56)"/>
<path d="M0 0 C0.33 0 0.66 0 1 0 C1 2.31 1 4.62 1 7 C1.99 6.34 2.98 5.68 4 5 C4.99 5 5.98 5 7 5 C7 6.32 7 7.64 7 9 C8.32 9.33 9.64 9.66 11 10 C8.69 10.66 6.38 11.32 4 12 C4 10.68 4 9.36 4 8 C2.68 8 1.36 8 0 8 C0 5.36 0 2.72 0 0 Z " fill="#060E1A" transform="translate(61,32)"/>
<path d="M0 0 C2.64 0 5.28 0 8 0 C7.6875 1.9375 7.6875 1.9375 7 4 C4.24921116 4.91692961 2.64051087 5.10886083 -0.1875 5.0625 C-2.0746875 5.0315625 -2.0746875 5.0315625 -4 5 C-2.68 4.34 -1.36 3.68 0 3 C0 2.01 0 1.02 0 0 Z " fill="#5C656C" transform="translate(14,8)"/>
<path d="M0 0 C6.625 0.625 6.625 0.625 10 4 C6.7 4.33 3.4 4.66 0 5 C0 3.35 0 1.7 0 0 Z " fill="#0D141D" transform="translate(0,20)"/>
<path d="M0 0 C0.33 0 0.66 0 1 0 C1.33 4.62 1.66 9.24 2 14 C-0.31 14 -2.62 14 -5 14 C-5 13.01 -5 12.02 -5 11 C-3.35 11 -1.7 11 0 11 C0 7.37 0 3.74 0 0 Z " fill="#FEF5D7" transform="translate(58,55)"/>
<path d="M0 0 C2.31 0 4.62 0 7 0 C7 0.99 7 1.98 7 3 C5.68 3 4.36 3 3 3 C3 4.32 3 5.64 3 7 C2.01 7 1.02 7 0 7 C0 4.69 0 2.38 0 0 Z " fill="#F5DABF" transform="translate(15,48)"/>
<path d="M0 0 C0.99 0 1.98 0 3 0 C3 2.31 3 4.62 3 7 C0.69 7 -1.62 7 -4 7 C-4 6.01 -4 5.02 -4 4 C-2.68 4 -1.36 4 0 4 C0 2.68 0 1.36 0 0 Z " fill="#323B45" transform="translate(72,25)"/>
<path d="M0 0 C0.33 0 0.66 0 1 0 C1 3.3 1 6.6 1 10 C2.65 10 4.3 10 6 10 C6 10.99 6 11.98 6 13 C3.69 13 1.38 13 -1 13 C-0.67 8.71 -0.34 4.42 0 0 Z " fill="#FEF5D9" transform="translate(24,56)"/>
<path d="M0 0 C1.625 1.4375 1.625 1.4375 3 4 C2.66417503 7.09705247 1.88564868 10.01810374 1 13 C0.67 13 0.34 13 0 13 C0 10.69 0 8.38 0 6 C-2.31 6 -4.62 6 -7 6 C-7 5.67 -7 5.34 -7 5 C-3.535 4.505 -3.535 4.505 0 4 C-2.31 3.67 -4.62 3.34 -7 3 C-7 2.67 -7 2.34 -7 2 C-4.69 2 -2.38 2 0 2 C0 1.34 0 0.68 0 0 Z " fill="#33363C" transform="translate(45,53)"/>
<path d="M0 0 C7.42857143 -0.28571429 7.42857143 -0.28571429 11 2 C9.18884044 3.81115956 6.38721773 3.38199448 3.9375 3.5625 C2.83277344 3.64628906 1.72804688 3.73007813 0.58984375 3.81640625 C-0.26480469 3.87699219 -1.11945312 3.93757812 -2 4 C-1.01 3.67 -0.02 3.34 1 3 C0.67 2.01 0.34 1.02 0 0 Z " fill="#323D48" transform="translate(20,9)"/>
<path d="M0 0 C0.99 0 1.98 0 3 0 C3 2.97 3 5.94 3 9 C2.01 9 1.02 9 0 9 C0 6.03 0 3.06 0 0 Z " fill="#FEF7DE" transform="translate(31,56)"/>
<path d="M0 0 C0.99 0 1.98 0 3 0 C2.67 2.31 2.34 4.62 2 7 C1.34 7 0.68 7 0 7 C-0.33 7.66 -0.66 8.32 -1 9 C-1 7.68 -1 6.36 -1 5 C-1.66 4.67 -2.32 4.34 -3 4 C-2.34 3.67 -1.68 3.34 -1 3 C-0.67 2.01 -0.34 1.02 0 0 Z " fill="#1A2731" transform="translate(50,25)"/>
<path d="M0 0 C4.29 0 8.58 0 13 0 C13 0.33 13 0.66 13 1 C10.03 1 7.06 1 4 1 C4 1.99 4 2.98 4 4 C2.68 4 1.36 4 0 4 C0 2.68 0 1.36 0 0 Z " fill="#39393B" transform="translate(18,51)"/>
<path d="M0 0 C1.65 0 3.3 0 5 0 C5 1.65 5 3.3 5 5 C3.35 5 1.7 5 0 5 C0 3.35 0 1.7 0 0 Z " fill="#39424D" transform="translate(6,24)"/>
<path d="M0 0 C2.64 0 5.28 0 8 0 C8 0.99 8 1.98 8 3 C5.36 3 2.72 3 0 3 C0 2.01 0 1.02 0 0 Z " fill="#10131D" transform="translate(53,70)"/>
<path d="M0 0 C2.64 0 5.28 0 8 0 C8 0.99 8 1.98 8 3 C5.36 3 2.72 3 0 3 C0 2.01 0 1.02 0 0 Z " fill="#070C16" transform="translate(22,70)"/>
<path d="M0 0 C0.33 0.99 0.66 1.98 1 3 C1.66 3 2.32 3 3 3 C3 5.31 3 7.62 3 10 C2.01 10 1.02 10 0 10 C0 6.7 0 3.4 0 0 Z " fill="#040B15" transform="translate(65,55)"/>
<path d="M0 0 C2.69082872 0.17635452 5.32851446 0.61835921 8 1 C7.34 2.32 6.68 3.64 6 5 C4.68 5 3.36 5 2 5 C2 4.01 2 3.02 2 2 C1.01 1.67 0.02 1.34 -1 1 C-0.67 0.67 -0.34 0.34 0 0 Z " fill="#121B26" transform="translate(8,72)"/>
<path d="M0 0 C0.99 0.33 1.98 0.66 3 1 C2.34 1 1.68 1 1 1 C1.33 1.763125 1.66 2.52625 2 3.3125 C3 6 3 6 3 9 C1.68 9 0.36 9 -1 9 C-0.67 6.03 -0.34 3.06 0 0 Z " fill="#F5F5E8" transform="translate(19,56)"/>
<path d="M0 0 C0.33 0.99 0.66 1.98 1 3 C1.99 3.33 2.98 3.66 4 4 C2.68 4 1.36 4 0 4 C0 4.99 0 5.98 0 7 C-1.32 7 -2.64 7 -4 7 C-4 5.68 -4 4.36 -4 3 C-2.68 3 -1.36 3 0 3 C0 2.01 0 1.02 0 0 Z " fill="#2A323E" transform="translate(14,29)"/>
<path d="M0 0 C0.33 0 0.66 0 1 0 C1 3.63 1 7.26 1 11 C0.01 11 -0.98 11 -2 11 C-2.24042276 6.91281305 -1.42258812 3.82320557 0 0 Z " fill="#090E1A" transform="translate(2,59)"/>
<path d="M0 0 C2.31 0 4.62 0 7 0 C7 0.99 7 1.98 7 3 C4.69 3 2.38 3 0 3 C0 2.01 0 1.02 0 0 Z " fill="#5D5F68" transform="translate(42,25)"/>
<path d="M0 0 C2.64 0 5.28 0 8 0 C6.25 2 6.25 2 4 4 C2.68 4 1.36 4 0 4 C0 2.68 0 1.36 0 0 Z " fill="#222A36" transform="translate(30,12)"/>
<path d="M0 0 C1.32 0 2.64 0 4 0 C4 0.99 4 1.98 4 3 C3.01 3 2.02 3 1 3 C1 4.65 1 6.3 1 8 C-0.32 7.67 -1.64 7.34 -3 7 C-2.01 7 -1.02 7 0 7 C0 4.69 0 2.38 0 0 Z " fill="#AF7F6C" transform="translate(64,77)"/>
<path d="M0 0 C0.33 0 0.66 0 1 0 C1 2.31 1 4.62 1 7 C-0.32 7 -1.64 7 -3 7 C-3 5.68 -3 4.36 -3 3 C-2.01 3 -1.02 3 0 3 C0 2.01 0 1.02 0 0 Z " fill="#7F5957" transform="translate(14,48)"/>
<path d="M0 0 C0 1.32 0 2.64 0 4 C-1.65 4 -3.3 4 -5 4 C-5 3.01 -5 2.02 -5 1 C-3 0 -3 0 0 0 Z " fill="#040B17" transform="translate(30,92)"/>
<path d="M0 0 C0.33 0.66 0.66 1.32 1 2 C0.34 1.67 -0.32 1.34 -1 1 C-0.67 0.67 -0.34 0.34 0 0 Z " fill="#AA5555" transform="translate(57,99)"/>
<path d="" fill="#C2C2C2" transform="translate(0,0)"/>
</svg>
