<?xml version="1.0" encoding="UTF-8"?>
<svg version="1.1" xmlns="http://www.w3.org/2000/svg" width="417" height="514">
<path d="M0 0 C24.75 0 49.5 0 75 0 C75 17 75 17 74 22 C93.47 22 112.94 22 133 22 C132.67 28.6 132.34 35.2 132 42 C138.27 42 144.54 42 151 42 C151 48.6 151 55.2 151 62 C163.21 62 175.42 62 188 62 C188 65.3 188 68.6 188 72 C188.33 72 188.66 72 189 72 C189.33 74.31 189.66 76.62 190 79 C191.14339844 79.13277344 192.28679687 79.26554687 193.46484375 79.40234375 C194.9557562 79.5805031 196.44664018 79.75890082 197.9375 79.9375 C198.69224609 80.02451172 199.44699219 80.11152344 200.22460938 80.20117188 C205.88671875 80.88671875 205.88671875 80.88671875 207 82 C207.08669432 83.4887186 207.10703494 84.981445 207.09765625 86.47265625 C207.09443359 87.37177734 207.09121094 88.27089844 207.08789062 89.19726562 C207.07951172 90.14279297 207.07113281 91.08832031 207.0625 92.0625 C207.05798828 93.01189453 207.05347656 93.96128906 207.04882812 94.93945312 C207.0370011 97.29303065 207.02052025 99.64648477 207 102 C207.57935303 101.92273682 208.15870605 101.84547363 208.75561523 101.76586914 C213.30140688 101.20239554 217.48653773 100.91618784 222.0625 101.4375 C223.691875 101.623125 225.32125 101.80875 227 102 C226.67 108.6 226.34 115.2 226 122 C231.94 122 237.88 122 244 122 C244 141.8 244 161.6 244 182 C238.06 182 232.12 182 226 182 C226.33 194.54 226.66 207.08 227 220 C220.73 219.67 214.46 219.34 208 219 C208 236.82 208 254.64 208 273 C213.94 272.34 219.88 271.68 226 271 C226.33 277.27 226.66 283.54 227 290 C232.61 290 238.22 290 244 290 C244 308.81 244 327.62 244 347 C238.39 346.67 232.78 346.34 227 346 C227 352.27 227 358.54 227 365 C220.73 364.67 214.46 364.34 208 364 C208 370.27 208 376.54 208 383 C201.73 383 195.46 383 189 383 C188.67 389.27 188.34 395.54 188 402 C184.79024345 403.60487828 181.36653998 402.82448599 177.875 402.5625 C175.27625 402.376875 172.6775 402.19125 170 402 C170.33 408.27 170.66 414.54 171 421 C168.07125 421.185625 165.1425 421.37125 162.125 421.5625 C161.20348145 421.62381104 160.28196289 421.68512207 159.33251953 421.74829102 C158.60661621 421.79139404 157.88071289 421.83449707 157.1328125 421.87890625 C156.38918457 421.9260376 155.64555664 421.97316895 154.87939453 422.02172852 C153 422 153 422 151 421 C151.33 421.66 151.66 422.32 152 423 C152.07187519 425.71975715 152.0927862 428.40674632 152.0625 431.125 C152.041875 433.72375 152.02125 436.3225 152 439 C145.73 439 139.46 439 133 439 C133 445.27 133 451.54 133 458 C126.73 458 120.46 458 114 458 C114 464.27 114 470.54 114 477 C107.07 477 100.14 477 93 477 C93 483.6 93 490.2 93 497 C87.39 497.33 81.78 497.66 76 498 C75.67 503.28 75.34 508.56 75 514 C49.59 514 24.18 514 -2 514 C-2.66 509.05 -3.32 504.1 -4 499 C-9.61 498.67 -15.22 498.34 -21 498 C-21 491.07 -21 484.14 -21 477 C-28.26 477 -35.52 477 -43 477 C-43.33 470.73 -43.66 464.46 -44 458 C-53.405 458.495 -53.405 458.495 -63 459 C-63 452.73 -63 446.46 -63 440 C-69.6 440 -76.2 440 -83 440 C-83 433.73 -83 427.46 -83 421 C-83.66 420.67 -84.32 420.34 -85 420 C-84.97679688 419.15695312 -84.95359375 418.31390625 -84.9296875 417.4453125 C-84.91164063 416.34960938 -84.89359375 415.25390625 -84.875 414.125 C-84.85179688 413.03445313 -84.82859375 411.94390625 -84.8046875 410.8203125 C-84.69939466 407.8628949 -84.69939466 407.8628949 -87 406 C-91.82909235 404.29561447 -95.90732827 403.89814657 -101 404 C-102 403 -102 403 -102.11352539 400.95874023 C-102.10828857 400.08419189 -102.10305176 399.20964355 -102.09765625 398.30859375 C-102.09282227 396.89223633 -102.09282227 396.89223633 -102.08789062 395.44726562 C-102.07532227 393.95743164 -102.07532227 393.95743164 -102.0625 392.4375 C-102.05798828 391.44041016 -102.05347656 390.44332031 -102.04882812 389.41601562 C-102.03700007 386.94395151 -102.02051849 384.47200482 -102 382 C-103.794375 382.24556641 -103.794375 382.24556641 -105.625 382.49609375 C-110.77642655 383.14002207 -115.81060424 383.06486745 -121 383 C-121 376.73 -121 370.46 -121 364 C-133.21 364 -145.42 364 -158 364 C-158 358.06 -158 352.12 -158 346 C-162.95 346 -167.9 346 -173 346 C-173 328.18 -173 310.36 -173 292 C-168.38 292 -163.76 292 -159 292 C-159 285.4 -159 278.8 -159 272 C-152.73 272.33 -146.46 272.66 -140 273 C-140.01160156 270.34710938 -140.02320313 267.69421875 -140.03515625 264.9609375 C-140.04299296 262.34277465 -140.04904335 259.72461319 -140.05493164 257.10644531 C-140.05990778 255.31054076 -140.06669109 253.51464014 -140.07543945 251.71875 C-140.12590134 241.0801976 -139.91883371 230.60637963 -139 220 C-145.27 220 -151.54 220 -158 220 C-158 207.46 -158 194.92 -158 182 C-162.95 182 -167.9 182 -173 182 C-173 175.07 -173 168.14 -173 161 C-168.05 161 -163.1 161 -158 161 C-158.01740234 158.96005859 -158.01740234 158.96005859 -158.03515625 156.87890625 C-158.04453262 155.1067722 -158.05363298 153.33463667 -158.0625 151.5625 C-158.07087891 150.66466797 -158.07925781 149.76683594 -158.08789062 148.84179688 C-158.09111328 147.98779297 -158.09433594 147.13378906 -158.09765625 146.25390625 C-158.10289307 145.46314697 -158.10812988 144.6723877 -158.11352539 143.85766602 C-158 142 -158 142 -157 141 C-154.13530675 140.92669669 -151.30106326 140.90782169 -148.4375 140.9375 C-145.653125 140.958125 -142.86875 140.97875 -140 141 C-140 135.06 -140 129.12 -140 123 C-150.89 122.67 -161.78 122.34 -173 122 C-173 115.4 -173 108.8 -173 102 C-162.11 101.67 -151.22 101.34 -140 101 C-140 94.73 -140 88.46 -140 82 C-133.4 82 -126.8 82 -120 82 C-120 75.07 -120 68.14 -120 61 C-113.07 61 -106.14 61 -99 61 C-99.33 55.39 -99.66 49.78 -100 44 C-95.84291548 41.92145774 -92.88943715 41.66004972 -88.390625 41.5859375 C-87.66381531 41.56657135 -86.93700562 41.5472052 -86.18817139 41.5272522 C-83.87556552 41.46765729 -81.56290933 41.42115242 -79.25 41.375 C-77.67836418 41.33680164 -76.10674887 41.29774883 -74.53515625 41.2578125 C-70.69021329 41.16036938 -66.84547863 41.0806447 -63 41 C-63 35.06 -63 29.12 -63 23 C-41.99091848 22.33643059 -21.021586 21.84074556 0 22 C0 14.74 0 7.48 0 0 Z " fill="#141E29" transform="translate(173,0)"/>
<path d="M0 0 C18.15 0 36.3 0 55 0 C55 12.21 55 24.42 55 37 C60.94 37 66.88 37 73 37 C73 42.61 73 48.22 73 54 C79.6 54 86.2 54 93 54 C93 59.94 93 65.88 93 72 C107.52 72 122.04 72 137 72 C136.67 66.39 136.34 60.78 136 55 C142.27 55 148.54 55 155 55 C155 49.06 155 43.12 155 37 C161.27 37 167.54 37 174 37 C174 25.12 174 13.24 174 1 C186.21 1 198.42 1 211 1 C211 12.88 211 24.76 211 37 C217.27 37 223.54 37 230 37 C230.33 42.28 230.66 47.56 231 53 C236.61 53.33 242.22 53.66 248 54 C248 59.94 248 65.88 248 72 C261.53 72 275.06 72 289 72 C289 65.73 289 59.46 289 53 C295.27 53.33 301.54 53.66 308 54 C308 48.39 308 42.78 308 37 C313.94 37 319.88 37 326 37 C326 25.12 326 13.24 326 1 C344.48 1 362.96 1 382 1 C382 18.16 382 35.32 382 53 C379.703463 54.1482685 378.41686833 54.11561175 375.8671875 54.09765625 C375.06152344 54.09443359 374.25585938 54.09121094 373.42578125 54.08789062 C372.16314453 54.07532227 372.16314453 54.07532227 370.875 54.0625 C369.60076172 54.05573242 369.60076172 54.05573242 368.30078125 54.04882812 C366.20049091 54.03702874 364.1002367 54.01909306 362 54 C362.33 59.61 362.66 65.22 363 71 C350.79 71 338.58 71 326 71 C325.67 83.54 325.34 96.08 325 109 C319.06 109 313.12 109 307 109 C307 115.27 307 121.54 307 128 C300.73 128 294.46 128 288 128 C288 133.94 288 139.88 288 146 C281.73 146 275.46 146 269 146 C269 152.27 269 158.54 269 165 C259.1 165.495 259.1 165.495 249 166 C249 178.87 249 191.74 249 205 C243.39 205.33 237.78 205.66 232 206 C231.67 211.28 231.34 216.56 231 222 C205.59 222 180.18 222 154 222 C153.34 217.05 152.68 212.1 152 207 C143.585 206.505 143.585 206.505 135 206 C135 192.8 135 179.6 135 166 C127.74 166 120.48 166 113 166 C113 159.73 113 153.46 113 147 C106.73 147 100.46 147 94 147 C94 140.73 94 134.46 94 128 C87.07 128 80.14 128 73 128 C72.85441877 108.96121058 73.3142959 90.02828886 74 71 C61.46 71 48.92 71 36 71 C36 65.39 36 59.78 36 54 C24.12 54 12.24 54 0 54 C0 36.18 0 18.36 0 0 Z " fill="#F8DAB7" transform="translate(17,292)"/>
<path d="M0 0 C12.87 0 25.74 0 39 0 C40.125 13.5 40.125 13.5 40.09765625 19.078125 C40.09443359 20.25761719 40.09121094 21.43710938 40.08789062 22.65234375 C40.07951172 23.83957031 40.07113281 25.02679688 40.0625 26.25 C40.05798828 27.48363281 40.05347656 28.71726563 40.04882812 29.98828125 C40.03718499 32.99220903 40.0192557 35.99611137 40 39 C46.27 39 52.54 39 59 39 C59 45.27 59 51.54 59 58 C65.27 58 71.54 58 78 58 C78 70.21 78 82.42 78 95 C71.73 95 65.46 95 59 95 C59 88.73 59 82.46 59 76 C58.01 76.33 57.02 76.66 56 77 C53.58160196 77.09065412 51.19273717 77.12611542 48.7746582 77.11352539 C47.6767244 77.11374443 47.6767244 77.11374443 46.55661011 77.1139679 C44.13797031 77.1132714 41.71940759 77.10549128 39.30078125 77.09765625 C37.62355084 77.09579114 35.94631989 77.09436767 34.26908875 77.09336853 C29.85499568 77.0895507 25.44093553 77.07972666 21.02685547 77.06866455 C16.52246547 77.05843467 12.01807015 77.05386753 7.51367188 77.04882812 C-1.32423554 77.03810375 -10.16210988 77.02051287 -19 77 C-19 82.94 -19 88.88 -19 95 C-25.6 95 -32.2 95 -39 95 C-39 100.94 -39 106.88 -39 113 C-50.55 113 -62.1 113 -74 113 C-74 107.06 -74 101.12 -74 95 C-80.27 95.33 -86.54 95.66 -93 96 C-93 89.4 -93 82.8 -93 76 C-94.56274658 76.16298584 -96.12549316 76.32597168 -97.7355957 76.49389648 C-103.91283472 77.0531768 -110.03173723 77.12787326 -116.23046875 77.09765625 C-117.90511955 77.09553383 -117.90511955 77.09553383 -119.61360168 77.09336853 C-123.13826309 77.08782367 -126.66285818 77.0752818 -130.1875 77.0625 C-132.59440012 77.05747786 -135.00130124 77.05291621 -137.40820312 77.04882812 C-143.27216051 77.03787237 -149.13606906 77.02064653 -155 77 C-155 82.61 -155 88.22 -155 94 C-161.6 94 -168.2 94 -175 94 C-174.505 103.405 -174.505 103.405 -174 113 C-180.27 113 -186.54 113 -193 113 C-193 101.12 -193 89.24 -193 77 C-187.06 77 -181.12 77 -175 77 C-175 70.73 -175 64.46 -175 58 C-155.2 58 -135.4 58 -115 58 C-115 52.06 -115 46.12 -115 40 C-108.4 40 -101.8 40 -95 40 C-95 46.27 -95 52.54 -95 59 C-92.77056641 58.89171875 -92.77056641 58.89171875 -90.49609375 58.78125 C-79.31588586 58.25608073 -68.19243478 57.88461407 -57 58 C-57 52.06 -57 46.12 -57 40 C-43.97273311 39.08580583 -31.05677243 38.89109272 -18 39 C-18 32.73 -18 26.46 -18 20 C-12.06 20 -6.12 20 0 20 C0 13.4 0 6.8 0 0 Z " fill="#F8D8B6" transform="translate(265,161)"/>
<path d="M0 0 C0 6.6 0 13.2 0 20 C1.32 19.67 2.64 19.34 4 19 C6.59606405 18.93095574 9.15623393 18.90587553 11.75 18.9375 C14.1425 18.958125 16.535 18.97875 19 19 C19 24.94 19 30.88 19 37 C30.55 37 42.1 37 54 37 C54 31.06 54 25.12 54 19 C60.6 19 67.2 19 74 19 C74.33 14.71 74.66 10.42 75 6 C75.33 6 75.66 6 76 6 C76.33 9.96 76.66 13.92 77 18 C79.43757413 18.02698422 81.87484915 18.04683099 84.3125 18.0625 C85.00279297 18.07087891 85.69308594 18.07925781 86.40429688 18.08789062 C89.5483025 18.10307906 91.99420019 18.00193327 95 17 C97.1875 17.9375 97.1875 17.9375 99 19 C95.9317362 19.89749822 93.20730024 20.11711768 90.015625 20.09765625 C89.08105469 20.09443359 88.14648438 20.09121094 87.18359375 20.08789062 C85.73146484 20.07532227 85.73146484 20.07532227 84.25 20.0625 C83.26644531 20.05798828 82.28289062 20.05347656 81.26953125 20.04882812 C78.84629209 20.03706483 76.42317727 20.02062684 74 20 C74.01252808 20.61370956 74.02505615 21.22741913 74.03796387 21.85972595 C74.1697881 28.33409664 74.29917726 34.80851295 74.42724609 41.28295898 C74.47514302 43.6888956 74.52363011 46.09482055 74.57275391 48.50073242 C74.84802999 62.00330545 75.06198757 75.49445914 75 89 C81.27 89 87.54 89 94 89 C94 95.27 94 101.54 94 108 C106.87 108 119.74 108 133 108 C133 102.06 133 96.12 133 90 C136.10439786 89.9461146 139.20786307 89.90638261 142.3125 89.875 C143.19357422 89.85824219 144.07464844 89.84148437 144.98242188 89.82421875 C145.82998047 89.81777344 146.67753906 89.81132812 147.55078125 89.8046875 C148.33106689 89.79421387 149.11135254 89.78374023 149.9152832 89.77294922 C152 90 152 90 155 92 C154.34 92 153.68 92 153 92 C153 97.61 153 103.22 153 109 C150.23625 109.020625 147.4725 109.04125 144.625 109.0625 C143.32103271 109.07615601 143.32103271 109.07615601 141.99072266 109.09008789 C136.22222222 109.11111111 136.22222222 109.11111111 134 108 C134 114.27 134 120.54 134 127 C120.47 127 106.94 127 93 127 C93 121.06 93 115.12 93 109 C87.45026879 109.03957481 87.45026879 109.03957481 81.90063477 109.09008789 C79.93354026 109.09723091 77.96646379 109.05031893 76 109 C75 108 75 108 74.90234375 104.40234375 C74.90808728 102.91402745 74.92110109 101.42573704 74.9375 99.9375 C74.958125 97.318125 74.97875 94.69875 75 92 C68.73 92 62.46 92 56 92 C56 80.12 56 68.24 56 56 C43.79 56 31.58 56 19 56 C19 67.88 19 79.76 19 92 C12.73 92 6.46 92 0 92 C0 97.94 0 103.88 0 110 C-5.94 110.33 -11.88 110.66 -18 111 C-18 116.28 -18 121.56 -18 127 C-32.52 127 -47.04 127 -62 127 C-62 121.06 -62 115.12 -62 109 C-68.6 109 -75.2 109 -82 109 C-82 103.39 -82 97.78 -82 92 C-87.94 92 -93.88 92 -100 92 C-100 80.12 -100 68.24 -100 56 C-99.67 56 -99.34 56 -99 56 C-98.67 67.22 -98.34 78.44 -98 90 C-92.451875 90.185625 -86.90375 90.37125 -81.1875 90.5625 C-78.56590942 90.65446655 -78.56590942 90.65446655 -75.89135742 90.74829102 C-74.50440819 90.79226226 -73.11744602 90.83582825 -71.73046875 90.87890625 C-71.01169556 90.90561401 -70.29292236 90.93232178 -69.55236816 90.95983887 C-66.38866726 91.05349195 -64.03121664 91.01040555 -61 90 C-61 95.94 -61 101.88 -61 108 C-58.13570312 107.98839844 -55.27140625 107.97679687 -52.3203125 107.96484375 C-49.5535493 107.95705038 -46.78678732 107.95097521 -44.02001953 107.94506836 C-42.09358169 107.94003213 -40.16714769 107.93320288 -38.24072266 107.92456055 C-35.47557632 107.91246392 -32.71048042 107.90676467 -29.9453125 107.90234375 C-28.6483696 107.89460182 -28.6483696 107.89460182 -27.32522583 107.88670349 C-21.22774341 107.88612829 -21.22774341 107.88612829 -19 109 C-19 102.73 -19 96.46 -19 90 C-13.06 90 -7.12 90 -1 90 C-0.67 72.84 -0.34 55.68 0 38 C-6.27 38.33 -12.54 38.66 -19 39 C-19.495 30.09 -19.495 30.09 -20 21 C-22.94808594 20.93941406 -25.89617187 20.87882812 -28.93359375 20.81640625 C-31.77647602 20.75466765 -34.61931644 20.69125895 -37.4621582 20.62768555 C-39.44389146 20.58426856 -41.42566378 20.54259863 -43.4074707 20.50268555 C-46.2496317 20.44514617 -49.09159483 20.38140555 -51.93359375 20.31640625 C-52.82525742 20.29969376 -53.71692108 20.28298126 -54.63560486 20.26576233 C-60.88612829 20.11387171 -60.88612829 20.11387171 -62 19 C-62.08631874 17.65732587 -62.10706473 16.31025678 -62.09765625 14.96484375 C-62.09443359 14.15595703 -62.09121094 13.34707031 -62.08789062 12.51367188 C-62.07532227 11.2384668 -62.07532227 11.2384668 -62.0625 9.9375 C-62.05798828 9.08349609 -62.05347656 8.22949219 -62.04882812 7.34960938 C-62.03700373 5.23304337 -62.01906769 3.11651315 -62 1 C-54.93826326 0.85603054 -47.87649284 0.7138075 -40.81469727 0.57275391 C-38.41625181 0.52464616 -36.01781411 0.47615009 -33.61938477 0.42724609 C-30.15643283 0.35670581 -26.69345469 0.28759832 -23.23046875 0.21875 C-22.17168015 0.19687622 -21.11289154 0.17500244 -20.02201843 0.15246582 C-13.34657451 0.02146817 -6.67674665 -0.01927606 0 0 Z " fill="#0F1823" transform="translate(172,237)"/>
<path d="M0 0 C19.47 0 38.94 0 59 0 C59 5.94 59 11.88 59 18 C65.27 18 71.54 18 78 18 C78 35.16 78 52.32 78 70 C71.73 70 65.46 70 59 70 C59 75.94 59 81.88 59 88 C46.13 88 33.26 88 20 88 C20 81.73 20 75.46 20 69 C13.73 69 7.46 69 1 69 C-0.07134698 54.29639533 -0.11491335 39.67585535 -0.0625 24.9375 C-0.041875 16.708125 -0.02125 8.47875 0 0 Z " fill="#F4DDC1" transform="translate(246,257)"/>
<path d="M0 0 C5.82076811 -0.02290639 11.641381 -0.04283426 17.4621582 -0.05493164 C19.44393441 -0.05997267 21.42570689 -0.06680538 23.4074707 -0.07543945 C26.24952109 -0.08751515 29.09152247 -0.09323045 31.93359375 -0.09765625 C32.82525742 -0.10281754 33.71692108 -0.10797882 34.63560486 -0.11329651 C36.75740601 -0.11349177 38.8791078 -0.0621003 41 0 C43.09939785 2.09939785 42.41925196 6.64318528 42.5625 9.5625 C42.706875 12.346875 42.85125 15.13125 43 18 C48.94 18 54.88 18 61 18 C61 35.49 61 52.98 61 71 C54.73 70.67 48.46 70.34 42 70 C42 76.27 42 82.54 42 89 C28.14 88.67 14.28 88.34 0 88 C0 82.06 0 76.12 0 70 C-6.93 70 -13.86 70 -21 70 C-21.10287186 52.95756199 -20.98680901 36.02245549 -20 19 C-13.4 19 -6.8 19 0 19 C0 12.73 0 6.46 0 0 Z " fill="#F4DFC5" transform="translate(111,257)"/>
<path d="M0 0 C13.2 0 26.4 0 40 0 C39.67 6.6 39.34 13.2 39 20 C58.8 20 78.6 20 99 20 C99 13.73 99 7.46 99 1 C104.42905388 0.32136827 109.1724139 -0.12011494 114.5625 -0.09765625 C115.23925781 -0.0962413 115.91601562 -0.09482635 116.61328125 -0.09336853 C118.74223546 -0.08783978 120.87107842 -0.07530155 123 -0.0625 C124.45702971 -0.05747576 125.9140611 -0.05291449 127.37109375 -0.04882812 C130.91413823 -0.03875121 134.45694687 -0.01916315 138 0 C138 6.6 138 13.2 138 20 C131.4 20 124.8 20 118 20 C118 26.6 118 33.2 118 40 C108.1 40.495 108.1 40.495 98 41 C98 47.6 98 54.2 98 61 C77.98114119 61.13618271 58.00775619 60.60076909 38 60 C38 53.73 38 47.46 38 41 C31.73 41 25.46 41 19 41 C19 34.4 19 27.8 19 21 C12.73 20.67 6.46 20.34 0 20 C0 13.4 0 6.8 0 0 Z " fill="#51555E" transform="translate(110,61)"/>
<path d="M0 0 C0.33 0 0.66 0 1 0 C1 4.62 1 9.24 1 14 C1.95390625 13.93941406 2.9078125 13.87882812 3.890625 13.81640625 C21.24371079 12.78415207 38.62417695 12.44263614 56 12 C56 18.6 56 25.2 56 32 C43.79 32.33 31.58 32.66 19 33 C18.67 39.27 18.34 45.54 18 52 C0.60207549 52.82989528 -16.74398951 53.13682727 -34.16015625 53.09765625 C-36.65791292 53.09578445 -39.15566996 53.09436416 -41.65342712 53.09336853 C-48.13533596 53.08960325 -54.61722134 53.07982637 -61.09912109 53.06866455 C-67.75032249 53.05831942 -74.4015272 53.05384324 -81.05273438 53.04882812 C-94.03516609 53.03819687 -107.01758178 53.02139554 -120 53 C-120 52.67 -120 52.34 -120 52 C-113.07 52 -106.14 52 -99 52 C-99.33 46.39 -99.66 40.78 -100 35 C-95.84291548 32.92145774 -92.88943715 32.66004972 -88.390625 32.5859375 C-87.66381531 32.56657135 -86.93700562 32.5472052 -86.18817139 32.5272522 C-83.87556552 32.46765729 -81.56290933 32.42115242 -79.25 32.375 C-77.67836418 32.33680164 -76.10674887 32.29774883 -74.53515625 32.2578125 C-70.69021329 32.16036938 -66.84547863 32.0806447 -63 32 C-63 26.06 -63 20.12 -63 14 C-41.99091848 13.33643059 -21.021586 12.84074556 0 13 C0 8.71 0 4.42 0 0 Z " fill="#3B444F" transform="translate(173,9)"/>
<path d="M0 0 C-0.33 5.94 -0.66 11.88 -1 18 C-7.27 18.33 -13.54 18.66 -20 19 C-20 24.94 -20 30.88 -20 37 C-52.67 37 -85.34 37 -119 37 C-119 42.61 -119 48.22 -119 54 C-125.6 54 -132.2 54 -139 54 C-138.67 60.27 -138.34 66.54 -138 73 C-144.27 73 -150.54 73 -157 73 C-157 61.12 -157 49.24 -157 37 C-151.06 37 -145.12 37 -139 37 C-139 30.73 -139 24.46 -139 18 C-119.2 18 -99.4 18 -79 18 C-79 12.06 -79 6.12 -79 0 C-72.4 0 -65.8 0 -59 0 C-59 6.27 -59 12.54 -59 19 C-57.51371094 18.9278125 -56.02742188 18.855625 -54.49609375 18.78125 C-43.31588586 18.25608073 -32.19243478 17.88461407 -21 18 C-21 12.06 -21 6.12 -21 0 C-18.2775 -0.185625 -15.555 -0.37125 -12.75 -0.5625 C-11.89889648 -0.62381104 -11.04779297 -0.68512207 -10.17089844 -0.74829102 C-9.4905957 -0.79139404 -8.81029297 -0.83449707 -8.109375 -0.87890625 C-7.41811523 -0.9260376 -6.72685547 -0.97316895 -6.01464844 -1.02172852 C-4 -1 -4 -1 0 0 Z " fill="#D39079" transform="translate(229,201)"/>
<path d="M0 0 C18.15 0 36.3 0 55 0 C55 12.21 55 24.42 55 37 C60.94 37 66.88 37 73 37 C73 47.89 73 58.78 73 70 C54.59459459 71.15033784 54.59459459 71.15033784 45.5 71.0625 C44.57058594 71.05798828 43.64117187 71.05347656 42.68359375 71.04882812 C40.45569931 71.03734413 38.22783932 71.01942883 36 71 C36 65.39 36 59.78 36 54 C24.12 54 12.24 54 0 54 C0 36.18 0 18.36 0 0 Z " fill="#F3C6A3" transform="translate(17,292)"/>
<path d="M0 0 C0.33 0 0.66 0 1 0 C1 2.31 1 4.62 1 7 C1.93457031 6.99419922 2.86914062 6.98839844 3.83203125 6.98242188 C14.56363933 6.94556159 25.27384254 7.17647825 36 7.5 C37.66145218 7.54838866 39.32291052 7.59656674 40.984375 7.64453125 C44.98967481 7.76022218 48.99481308 7.88018672 53 8 C53 13.61 53 19.22 53 25 C65.54 25 78.08 25 91 25 C91.08583897 44.05625094 90.90556792 62.96690283 90 82 C96.93 82 103.86 82 111 82 C111 88.27 111 94.54 111 101 C117.27 101 123.54 101 130 101 C130 107.27 130 113.54 130 120 C137.26 120 144.52 120 152 120 C152 126.27 152 132.54 152 139 C144.74 139 137.48 139 130 139 C129.67 132.73 129.34 126.46 129 120 C122.73 120.33 116.46 120.66 110 121 C110 114.73 110 108.46 110 102 C103.4 102 96.8 102 90 102 C90 95.73 90 89.46 90 83 C89.34 82.67 88.68 82.34 88 82 C88.02320312 81.15695312 88.04640625 80.31390625 88.0703125 79.4453125 C88.08835937 78.34960938 88.10640625 77.25390625 88.125 76.125 C88.14820312 75.03445313 88.17140625 73.94390625 88.1953125 72.8203125 C88.30060534 69.8628949 88.30060534 69.8628949 86 68 C81.17090765 66.29561447 77.09267173 65.89814657 72 66 C71 65 71 65 70.88647461 62.95874023 C70.89432983 61.64691772 70.89432983 61.64691772 70.90234375 60.30859375 C70.90717773 58.89223633 70.90717773 58.89223633 70.91210938 57.44726562 C70.92467773 55.95743164 70.92467773 55.95743164 70.9375 54.4375 C70.94201172 53.44041016 70.94652344 52.44332031 70.95117188 51.41601562 C70.96299993 48.94395151 70.97948151 46.47200482 71 44 C69.80375 44.16371094 68.6075 44.32742188 67.375 44.49609375 C62.22357345 45.14002207 57.18939576 45.06486745 52 45 C52 38.73 52 32.46 52 26 C39.79 26 27.58 26 15 26 C15 20.06 15 14.12 15 8 C10.05 8 5.1 8 0 8 C0 5.36 0 2.72 0 0 Z " fill="#141D29" transform="translate(0,338)"/>
<path d="M0 0 C5.94 0 11.88 0 18 0 C19 1 19 1 19.11352539 2.85766602 C19.10828857 3.64842529 19.10305176 4.43918457 19.09765625 5.25390625 C19.09443359 6.10791016 19.09121094 6.96191406 19.08789062 7.84179688 C19.07951172 8.73962891 19.07113281 9.63746094 19.0625 10.5625 C19.05798828 11.46419922 19.05347656 12.36589844 19.04882812 13.29492188 C19.03700244 15.52997589 19.01906638 17.76499602 19 20 C24.61 20 30.22 20 36 20 C35.96053289 14.5403548 35.96053289 14.5403548 35.90991211 9.08081055 C35.90741455 8.39801025 35.90491699 7.71520996 35.90234375 7.01171875 C35.89710693 6.31522217 35.89187012 5.61872559 35.88647461 4.90112305 C36 3 36 3 37 0 C42.94 0.33 48.88 0.66 55 1 C55 13.87 55 26.74 55 40 C48.73 40 42.46 40 36 40 C36.24556641 42.26810547 36.24556641 42.26810547 36.49609375 44.58203125 C37.13600861 51.62109476 37.11009722 58.62480428 37.0625 65.6875 C37.05798828 66.97333984 37.05347656 68.25917969 37.04882812 69.58398438 C37.03716012 72.72267676 37.01922934 75.86134483 37 79 C31.06 79 25.12 79 19 79 C19 72.4 19 65.8 19 59 C12.73 59 6.46 59 0 59 C0 39.53 0 20.06 0 0 Z " fill="#2B343F" transform="translate(324,122)"/>
<path d="M0 0 C12.87 0 25.74 0 39 0 C39 17.16 39 34.32 39 52 C36.703463 53.1482685 35.41686833 53.11561175 32.8671875 53.09765625 C32.06152344 53.09443359 31.25585938 53.09121094 30.42578125 53.08789062 C29.16314453 53.07532227 29.16314453 53.07532227 27.875 53.0625 C26.60076172 53.05573242 26.60076172 53.05573242 25.30078125 53.04882812 C23.20049091 53.03702874 21.1002367 53.01909306 19 53 C19.495 61.415 19.495 61.415 20 70 C13.4 70 6.8 70 0 70 C0 46.9 0 23.8 0 0 Z " fill="#CB8170" transform="translate(360,293)"/>
<path d="M0 0 C6.6 0 13.2 0 20 0 C20 6.27 20 12.54 20 19 C22.25614136 18.75552124 22.25614136 18.75552124 24.55786133 18.50610352 C31.73043053 17.85738052 38.87843912 17.87412265 46.07421875 17.90234375 C47.49339243 17.90421371 48.91256677 17.90563488 50.33174133 17.90663147 C54.0289393 17.9104112 57.72609666 17.92020147 61.42327881 17.93133545 C65.21121675 17.94164846 68.99916138 17.94615007 72.78710938 17.95117188 C80.19142672 17.96182882 87.59570245 17.97938758 95 18 C95 12.06 95 6.12 95 0 C101.27 0 107.54 0 114 0 C114 6.6 114 13.2 114 20 C105.585 20.495 105.585 20.495 97 21 C96.67 26.28 96.34 31.56 96 37 C70.59 37 45.18 37 19 37 C18.34 32.05 17.68 27.1 17 22 C11.39 21.67 5.78 21.34 0 21 C0 14.07 0 7.14 0 0 Z " fill="#171B24" transform="translate(152,477)"/>
<path d="M0 0 C5.94 0 11.88 0 18 0 C18.63684999 13.00993554 19.17016759 25.9727259 19 39 C0.35455142 40.19881817 -18.32525571 40.53828881 -37 41 C-37.33 47.27 -37.66 53.54 -38 60 C-44.27 60 -50.54 60 -57 60 C-57 53.4 -57 46.8 -57 40 C-51.06 39.67 -45.12 39.34 -39 39 C-39 32.73 -39 26.46 -39 20 C-30.40450697 19.06937117 -21.95388593 18.8792636 -13.3125 18.9375 C-12.02666016 18.94201172 -10.74082031 18.94652344 -9.41601562 18.95117188 C-6.27732324 18.96283988 -3.13865517 18.98077066 0 19 C0 12.73 0 6.46 0 0 Z " fill="#525660" transform="translate(247,102)"/>
<path d="M0 0 C5.61 0 11.22 0 17 0 C17 23.1 17 46.2 17 70 C-2.54475309 70 -2.54475309 70 -10.0625 69.5 C-13.9915625 69.2525 -13.9915625 69.2525 -18 69 C-18 58.11 -18 47.22 -18 36 C-12.06 36 -6.12 36 0 36 C0 24.12 0 12.24 0 0 Z " fill="#F4C7A4" transform="translate(343,293)"/>
<path d="M0 0 C0.66 0 1.32 0 2 0 C3.7265625 2.1875 3.7265625 2.1875 5.625 5 C6.25664062 5.928125 6.88828125 6.85625 7.5390625 7.8125 C8.02117187 8.534375 8.50328125 9.25625 9 10 C7.61436344 13.24910912 6.12610726 14.97358915 3.32421875 17.1015625 C2.20370117 17.96201172 2.20370117 17.96201172 1.06054688 18.83984375 C0.27744141 19.42894531 -0.50566406 20.01804687 -1.3125 20.625 C-2.05306641 21.19089844 -2.79363281 21.75679688 -3.55664062 22.33984375 C-5.09992048 23.51853844 -6.65321005 24.68423656 -8.2159729 25.8369751 C-11.0599527 27.98375384 -11.0599527 27.98375384 -13.74703979 30.53387451 C-22.53196311 38.45687265 -29.48030743 39.37971318 -41.01953125 38.9765625 C-42.61516335 38.9578602 -44.21085374 38.94364976 -45.80656433 38.9336853 C-49.96241988 38.89589832 -54.11465714 38.79804092 -58.269104 38.68664551 C-62.52591009 38.58347126 -66.78331378 38.53849221 -71.04101562 38.48828125 C-79.36250512 38.38173365 -87.68038267 38.20619023 -96 38 C-96 33.38 -96 28.76 -96 24 C-93.09695068 24.06453369 -93.09695068 24.06453369 -90.13525391 24.13037109 C-83.66508161 24.25725912 -77.19683188 24.31734441 -70.7254734 24.33421898 C-66.80976694 24.34678054 -62.89794577 24.38426064 -58.98339844 24.48339844 C-35.83971179 25.35829236 -35.83971179 25.35829236 -16.16946411 14.33322144 C-14.96647077 13.13548626 -13.78205924 11.91867166 -12.6209259 10.68031311 C-10.25544845 8.2281697 -7.64795239 6.2476771 -4.9375 4.1875 C-2.38942707 2.18227557 -2.38942707 2.18227557 0 0 Z " fill="#111B24" transform="translate(263,391)"/>
<path d="M0 0 C0 0.33 0 0.66 0 1 C-6.27 1 -12.54 1 -19 1 C-19 6.94 -19 12.88 -19 19 C-43.75 19.33 -68.5 19.66 -94 20 C-94 14.06 -94 8.12 -94 2 C-62.70768513 0.60062912 -31.32515219 -0.31928241 0 0 Z " fill="#DEA488" transform="translate(266,476)"/>
<path d="M0 0 C20.79 0 41.58 0 63 0 C63 6.27 63 12.54 63 19 C59.44956581 19.88760855 56.85013608 20.12657249 53.23754883 20.12939453 C51.50103813 20.13412277 51.50103813 20.13412277 49.72944641 20.13894653 C47.86210091 20.13591019 47.86210091 20.13591019 45.95703125 20.1328125 C44.67769211 20.13376923 43.39835297 20.13472595 42.08024597 20.13571167 C39.37778512 20.13718352 36.67535739 20.13504953 33.97290039 20.13037109 C30.50246216 20.12465693 27.03210098 20.12796666 23.56166553 20.13394356 C20.25595129 20.13841453 16.9502465 20.13529017 13.64453125 20.1328125 C11.76807671 20.13584885 11.76807671 20.13584885 9.85371399 20.13894653 C8.70549667 20.13579437 7.55727936 20.13264221 6.37426758 20.12939453 C4.85015007 20.12820114 4.85015007 20.12820114 3.29524231 20.12698364 C1 20 1 20 0 19 C0 12.73 0 6.46 0 0 Z " fill="#111B26" transform="translate(110,23)"/>
<path d="M0 0 C7.26 0 14.52 0 22 0 C22 17.16 22 34.32 22 52 C14.41 52 6.82 52 -1 52 C-1.02295047 45.23726231 -1.04286565 38.47465966 -1.05493164 31.71191406 C-1.05996157 29.41112816 -1.06678624 27.11034545 -1.07543945 24.80957031 C-1.08756359 21.50324718 -1.09324172 18.1969663 -1.09765625 14.890625 C-1.10281754 13.86132874 -1.10797882 12.83203247 -1.11329651 11.77154541 C-1.11337204 10.81085144 -1.11344757 9.85015747 -1.11352539 8.86035156 C-1.115746 8.01651917 -1.11796661 7.17268677 -1.12025452 6.30328369 C-1 4 -1 4 0 0 Z " fill="#0E1721" transform="translate(130,275)"/>
<path d="M0 0 C12.87 0 25.74 0 39 0 C40.125 13.5 40.125 13.5 40.09765625 18.421875 C40.09443359 19.46601563 40.09121094 20.51015625 40.08789062 21.5859375 C40.07532227 23.15214844 40.07532227 23.15214844 40.0625 24.75 C40.05798828 25.84054688 40.05347656 26.93109375 40.04882812 28.0546875 C40.0372119 30.70318616 40.02088168 33.35156101 40 36 C37.71937172 32.57905758 37.78074993 31.31812778 37.875 27.3125 C37.89304687 26.31863281 37.91109375 25.32476562 37.9296875 24.30078125 C37.95289063 23.54152344 37.97609375 22.78226563 38 22 C34.88045872 20.44022936 31.57040616 20.87895874 28.1484375 20.90234375 C26.98738998 20.90446617 26.98738998 20.90446617 25.80288696 20.90663147 C23.32688558 20.91223597 20.85097412 20.92478917 18.375 20.9375 C16.69791797 20.94251442 15.02083453 20.94707743 13.34375 20.95117188 C9.22910403 20.96135664 5.11465285 20.98093106 1 21 C0.67 26.94 0.34 32.88 0 39 C-5.94 39 -11.88 39 -18 39 C-18 32.73 -18 26.46 -18 20 C-12.06 20 -6.12 20 0 20 C0 13.4 0 6.8 0 0 Z " fill="#DA967A" transform="translate(265,161)"/>
<path d="M0 0 C6.93 0 13.86 0 21 0 C21 17.16 21 34.32 21 52 C18.72108967 53.13945516 17.43217896 53.12894214 14.90234375 53.1328125 C14.10119141 53.13410156 13.30003906 53.13539063 12.47460938 53.13671875 C11.63736328 53.13285156 10.80011719 53.12898438 9.9375 53.125 C9.09638672 53.12886719 8.25527344 53.13273437 7.38867188 53.13671875 C1.12662682 53.12662682 1.12662682 53.12662682 0 52 C-0.09340434 50.37325222 -0.11745171 48.74245949 -0.11352539 47.11303711 C-0.11344986 46.07203354 -0.11337433 45.03102997 -0.11329651 43.95848083 C-0.10813522 42.8262056 -0.10297394 41.69393036 -0.09765625 40.52734375 C-0.0962413 39.37456436 -0.09482635 38.22178497 -0.09336853 37.03407288 C-0.08775005 33.33518936 -0.07519442 29.63636536 -0.0625 25.9375 C-0.05748738 23.43684983 -0.05292406 20.93619871 -0.04882812 18.43554688 C-0.03777462 12.29034149 -0.0204976 6.14518085 0 0 Z " fill="#F2D9BB" transform="translate(378,293)"/>
<path d="M0 0 C6.93 0 13.86 0 21 0 C22.14806378 36.86104784 22.14806378 36.86104784 22 53 C14.74 52.67 7.48 52.34 0 52 C0 34.84 0 17.68 0 0 Z " fill="#0C1622" transform="translate(266,274)"/>
<path d="M0 0 C6.6 0 13.2 0 20 0 C20 17.82 20 35.64 20 54 C13.4 54 6.8 54 0 54 C0 36.18 0 18.36 0 0 Z " fill="#F6DCBB" transform="translate(17,292)"/>
<path d="M0 0 C12.54 0 25.08 0 38 0 C38 5.61 38 11.22 38 17 C31.4 17 24.8 17 18 17 C18.33 23.27 18.66 29.54 19 36 C12.73 36 6.46 36 0 36 C0 24.12 0 12.24 0 0 Z " fill="#F5DEC4" transform="translate(72,238)"/>
<path d="M0 0 C5.28 0 10.56 0 16 0 C16 17.82 16 35.64 16 54 C10.72 54 5.44 54 0 54 C0 36.18 0 18.36 0 0 Z " fill="#C57C6F" transform="translate(37,292)"/>
<path d="M0 0 C-0.33 6.6 -0.66 13.2 -1 20 C-14.53 20 -28.06 20 -42 20 C-42 6 -42 6 -41 1 C-27.33038732 -0.14083206 -13.70899405 -0.09823324 0 0 Z " fill="#1F2732" transform="translate(191,61)"/>
<path d="M0 0 C5.94 0.33 11.88 0.66 18 1 C18 7.27 18 13.54 18 20 C12.06 20 6.12 20 0 20 C0 26.6 0 33.2 0 40 C-6.27 40 -12.54 40 -19 40 C-19 33.4 -19 26.8 -19 20 C-13.06 19.67 -7.12 19.34 -1 19 C-0.67 12.73 -0.34 6.46 0 0 Z " fill="#2A333E" transform="translate(72,141)"/>
<path d="M0 0 C5.94 0 11.88 0 18 0 C18.63708102 13.01465506 19.12410496 25.96897959 19 39 C12.73 39 6.46 39 0 39 C0 26.13 0 13.26 0 0 Z " fill="#25323C" transform="translate(247,102)"/>
<path d="M0 0 C6.27 0 12.54 0 19 0 C19 11.88 19 23.76 19 36 C12.73 36 6.46 36 0 36 C0 24.12 0 12.24 0 0 Z " fill="#744D4F" transform="translate(343,238)"/>
<path d="M0 0 C0.33 0 0.66 0 1 0 C1.33 11.22 1.66 22.44 2 34 C7.548125 34.185625 13.09625 34.37125 18.8125 34.5625 C21.43409058 34.65446655 21.43409058 34.65446655 24.10864258 34.74829102 C25.49559181 34.79226226 26.88255398 34.83582825 28.26953125 34.87890625 C28.98830444 34.90561401 29.70707764 34.93232178 30.44763184 34.95983887 C33.61133274 35.05349195 35.96878336 35.01040555 39 34 C39 40.27 39 46.54 39 53 C43.95 53 48.9 53 54 53 C54 53.33 54 53.66 54 54 C49.38 54 44.76 54 40 54 C40.020625 56.26875 40.04125 58.5375 40.0625 60.875 C40.125 67.75 40.125 67.75 39 70 C50.88 70 62.76 70 75 70 C75 70.33 75 70.66 75 71 C62.79 71 50.58 71 38 71 C38 65.06 38 59.12 38 53 C31.4 53 24.8 53 18 53 C18 47.39 18 41.78 18 36 C12.06 36 6.12 36 0 36 C0 24.12 0 12.24 0 0 Z " fill="#0B0E16" transform="translate(72,293)"/>
<path d="M0 0 C0.33 0 0.66 0 1 0 C1.495 5.94 1.495 5.94 2 12 C4.43757413 12.02698422 6.87484915 12.04683099 9.3125 12.0625 C10.00279297 12.07087891 10.69308594 12.07925781 11.40429688 12.08789062 C14.5483025 12.10307906 16.99420019 12.00193327 20 11 C22.1875 11.9375 22.1875 11.9375 24 13 C15.90901413 15.02274647 7.33999734 14 -1 14 C-1 34.46 -1 54.92 -1 76 C-1.33 76 -1.66 76 -2 76 C-2 61.15 -2 46.3 -2 31 C-7.28 31.33 -12.56 31.66 -18 32 C-21.08309256 32.06959408 -24.13880866 32.12093065 -27.21875 32.09765625 C-27.97297241 32.0962413 -28.72719482 32.09482635 -29.50427246 32.09336853 C-31.83622798 32.08791734 -34.16807517 32.07539835 -36.5 32.0625 C-38.11327983 32.05746561 -39.72656122 32.05290619 -41.33984375 32.04882812 C-45.22660214 32.0379976 -49.11328295 32.0208446 -53 32 C-53 31.67 -53 31.34 -53 31 C-42.44 31 -31.88 31 -21 31 C-21 25.06 -21 19.12 -21 13 C-14.4 13 -7.8 13 -1 13 C-0.505 6.565 -0.505 6.565 0 0 Z " fill="#0C1622" transform="translate(247,243)"/>
<path d="M0 0 C0.33 0 0.66 0 1 0 C1 1.65 1 3.3 1 5 C7.27 5 13.54 5 20 5 C20 11.27 20 17.54 20 24 C32.87 24 45.74 24 59 24 C59 24.33 59 24.66 59 25 C46.13 25 33.26 25 20 25 C20 30.28 20 35.56 20 41 C32.54 41 45.08 41 58 41 C58 41.33 58 41.66 58 42 C45.13 42 32.26 42 19 42 C19 36.39 19 30.78 19 25 C13.45026879 25.03957481 13.45026879 25.03957481 7.90063477 25.09008789 C5.93354026 25.09723091 3.96646379 25.05031893 2 25 C1 24 1 24 0.90234375 20.18359375 C0.90901911 18.60153318 0.92098125 17.01948841 0.9375 15.4375 C0.94201172 14.63119141 0.94652344 13.82488281 0.95117188 12.99414062 C0.96299482 10.99606244 0.98093086 8.99802217 1 7 C0.34 6.67 -0.32 6.34 -1 6 C-0.67 4.02 -0.34 2.04 0 0 Z " fill="#0C1119" transform="translate(246,321)"/>
<path d="M0 0 C7.26 0 14.52 0 22 0 C22 6.27 22 12.54 22 19 C14.74 19 7.48 19 0 19 C0 12.73 0 6.46 0 0 Z " fill="#0F1822" transform="translate(130,458)"/>
<path d="M0 0 C0.33 0 0.66 0 1 0 C1.33 6.27 1.66 12.54 2 19 C2.99 19.33 3.98 19.66 5 20 C4.01 20.33 3.02 20.66 2 21 C1.67 27.27 1.34 33.54 1 40 C-5.27 40 -11.54 40 -18 40 C-18 33.4 -18 26.8 -18 20 C-12.06 19.67 -6.12 19.34 0 19 C0 12.73 0 6.46 0 0 Z " fill="#404751" transform="translate(208,122)"/>
<path d="M0 0 C0.68900391 0.00386719 1.37800781 0.00773437 2.08789062 0.01171875 C2.76529297 0.00785156 3.44269531 0.00398438 4.140625 0 C7.51231017 0.00659176 10.54195795 0.16899306 13.77539062 1.13671875 C14.43539063 1.13671875 15.09539062 1.13671875 15.77539062 1.13671875 C15.77539062 7.40671875 15.77539062 13.67671875 15.77539062 20.13671875 C8.84539062 20.13671875 1.91539062 20.13671875 -5.22460938 20.13671875 C-5.83357541 15.26499045 -6.36310313 11.00974367 -6.34960938 6.19921875 C-6.3521875 5.26207031 -6.35476563 4.32492187 -6.35742188 3.359375 C-6.10203932 -0.91452717 -3.72489401 0.00732526 0 0 Z " fill="#141D28" transform="translate(271.224609375,456.86328125)"/>
<path d="M0 0 C0.87454834 0.04713135 1.74909668 0.0942627 2.65014648 0.14282227 C4.06650391 0.21533203 4.06650391 0.21533203 5.51147461 0.28930664 C6.50469727 0.34538086 7.49791992 0.40145508 8.52124023 0.45922852 C9.51833008 0.51143555 10.51541992 0.56364258 11.54272461 0.61743164 C14.01497878 0.74755028 16.4868955 0.88405079 18.95874023 1.02172852 C18.95874023 7.29172852 18.95874023 13.56172852 18.95874023 20.02172852 C17.96874023 20.02172852 16.97874023 20.02172852 15.95874023 20.02172852 C14.44280273 20.26922852 14.44280273 20.26922852 12.89624023 20.52172852 C8.19311694 21.11895052 3.69804018 21.08665043 -1.04125977 21.02172852 C-1.04125977 14.75172852 -1.04125977 8.48172852 -1.04125977 2.02172852 C-1.70125977 1.69172852 -2.36125977 1.36172852 -3.04125977 1.02172852 C-2.04125977 0.02172852 -2.04125977 0.02172852 0 0 Z " fill="#0C1622" transform="translate(91.041259765625,418.978271484375)"/>
<path d="M0 0 C6.6 0 13.2 0 20 0 C19.67 6.6 19.34 13.2 19 20 C12.73 20 6.46 20 0 20 C0 13.4 0 6.8 0 0 Z " fill="#0E161F" transform="translate(152,477)"/>
<path d="M0 0 C1.18613892 0.00785522 1.18613892 0.00785522 2.39624023 0.01586914 C3.67724609 0.02070312 3.67724609 0.02070312 4.98413086 0.02563477 C5.88196289 0.03401367 6.77979492 0.04239258 7.70483398 0.05102539 C8.6065332 0.05553711 9.50823242 0.06004883 10.43725586 0.06469727 C12.67234712 0.07652315 14.90730835 0.09300319 17.14233398 0.11352539 C17.16929408 2.88442369 17.1891535 5.65505989 17.20483398 8.42602539 C17.21321289 9.21170898 17.2215918 9.99739258 17.23022461 10.80688477 C17.23505859 11.94287109 17.23505859 11.94287109 17.23999023 13.10180664 C17.24784546 14.14655151 17.24784546 14.14655151 17.25585938 15.21240234 C17.14233398 17.11352539 17.14233398 17.11352539 16.14233398 20.11352539 C8.88233398 20.11352539 1.62233398 20.11352539 -5.85766602 20.11352539 C-4.86766602 19.78352539 -3.87766602 19.45352539 -2.85766602 19.11352539 C-2.86926758 17.82575195 -2.88086914 16.53797852 -2.89282227 15.21118164 C-2.90219871 13.53279767 -2.91129907 11.85441213 -2.92016602 10.17602539 C-2.92854492 9.32588867 -2.93692383 8.47575195 -2.94555664 7.59985352 C-2.9487793 6.7909668 -2.95200195 5.98208008 -2.95532227 5.14868164 C-2.96055908 4.39981689 -2.9657959 3.65095215 -2.97119141 2.87939453 C-2.81232325 0.40822605 -2.46633109 0.15072203 0 0 Z " fill="#3A444F" transform="translate(35.857666015625,121.886474609375)"/>
<path d="M0 0 C8.25 0 16.5 0 25 0 C25 0.33 25 0.66 25 1 C17.08 1 9.16 1 1 1 C1.020625 4.3 1.04125 7.6 1.0625 11 C1.09121345 20.38579712 0.70627424 29.64186637 0 39 C-5.94 39 -11.88 39 -18 39 C-18 32.73 -18 26.46 -18 20 C-12.06 20 -6.12 20 0 20 C0 13.4 0 6.8 0 0 Z " fill="#C1866F" transform="translate(265,161)"/>
<path d="M0 0 C3.10439786 -0.0538854 6.20786307 -0.09361739 9.3125 -0.125 C10.19357422 -0.14175781 11.07464844 -0.15851563 11.98242188 -0.17578125 C12.82998047 -0.18222656 13.67753906 -0.18867188 14.55078125 -0.1953125 C15.72120972 -0.21102295 15.72120972 -0.21102295 16.9152832 -0.22705078 C19 0 19 0 22 2 C21.34 2 20.68 2 20 2 C20 7.61 20 13.22 20 19 C15.8853125 19.0309375 15.8853125 19.0309375 11.6875 19.0625 C10.82729248 19.071604 9.96708496 19.08070801 9.08081055 19.09008789 C8.39801025 19.09258545 7.71520996 19.09508301 7.01171875 19.09765625 C5.96697388 19.10551147 5.96697388 19.10551147 4.90112305 19.11352539 C3 19 3 19 0 18 C0 12.06 0 6.12 0 0 Z " fill="#131824" transform="translate(305,327)"/>
<path d="M0 0 C-0.33 5.94 -0.66 11.88 -1 18 C-11.395 18.495 -11.395 18.495 -22 19 C-21.67 12.73 -21.34 6.46 -21 0 C-18.2775 -0.185625 -15.555 -0.37125 -12.75 -0.5625 C-11.89889648 -0.62381104 -11.04779297 -0.68512207 -10.17089844 -0.74829102 C-9.4905957 -0.79139404 -8.81029297 -0.83449707 -8.109375 -0.87890625 C-7.41811523 -0.9260376 -6.72685547 -0.97316895 -6.01464844 -1.02172852 C-4 -1 -4 -1 0 0 Z " fill="#C68A74" transform="translate(229,201)"/>
<path d="M0 0 C0.33 0 0.66 0 1 0 C1 2.64 1 5.28 1 8 C7.27 8 13.54 8 20 8 C20 13.94 20 19.88 20 26 C13.4 26 6.8 26 0 26 C0 17.42 0 8.84 0 0 Z " fill="#B1735F" transform="translate(90,394)"/>
<path d="M0 0 C0 6.93 0 13.86 0 21 C-2.784375 21.020625 -5.56875 21.04125 -8.4375 21.0625 C-9.31591553 21.071604 -10.19433105 21.08070801 -11.09936523 21.09008789 C-13.06645974 21.09723091 -15.03353621 21.05031893 -17 21 C-18 20 -18 20 -18.11352539 18.14233398 C-18.10828857 17.35157471 -18.10305176 16.56081543 -18.09765625 15.74609375 C-18.09443359 14.89208984 -18.09121094 14.03808594 -18.08789062 13.15820312 C-18.07951172 12.26037109 -18.07113281 11.36253906 -18.0625 10.4375 C-18.05798828 9.53580078 -18.05347656 8.63410156 -18.04882812 7.70507812 C-18.03700225 5.46998686 -18.0205222 3.23502563 -18 1 C-15.56257869 0.83210874 -13.12507454 0.66563867 -10.6875 0.5 C-9.99720703 0.45230469 -9.30691406 0.40460938 -8.59570312 0.35546875 C-5.72337641 0.16120511 -2.87986212 0 0 0 Z " fill="#2C3643" transform="translate(360,101)"/>
<path d="M0 0 C6.27 0 12.54 0 19 0 C19 6.27 19 12.54 19 19 C12.73 19 6.46 19 0 19 C0 12.73 0 6.46 0 0 Z " fill="#0F141D" transform="translate(247,477)"/>
<path d="M0 0 C6.27 0 12.54 0 19 0 C19 6.27 19 12.54 19 19 C12.73 19 6.46 19 0 19 C0 12.73 0 6.46 0 0 Z " fill="#CC8B74" transform="translate(305,200)"/>
<path d="M0 0 C10.125 0 10.125 0 14.5625 0.5 C16.7590625 0.7475 16.7590625 0.7475 19 1 C19 6.28 19 11.56 19 17 C13.8910225 18.7029925 11.27273621 19.23005584 6.125 19.125 C3.093125 19.063125 3.093125 19.063125 0 19 C0 12.73 0 6.46 0 0 Z " fill="#29333E" transform="translate(53,200)"/>
<path d="M0 0 C5.94 0 11.88 0 18 0 C18.33 6.27 18.66 12.54 19 19 C12.73 19 6.46 19 0 19 C0 12.73 0 6.46 0 0 Z " fill="#F8E3CB" transform="translate(72,255)"/>
<path d="M0 0 C6.27 0 12.54 0 19 0 C19 6.27 19 12.54 19 19 C12.73 18.67 6.46 18.34 0 18 C0 12.06 0 6.12 0 0 Z " fill="#CA907E" transform="translate(324,219)"/>
<path d="M0 0 C5.94 0.33 11.88 0.66 18 1 C18 7.27 18 13.54 18 20 C12.06 20 6.12 20 0 20 C0 13.4 0 6.8 0 0 Z " fill="#4B535E" transform="translate(72,141)"/>
<path d="M0 0 C6.27 0 12.54 0 19 0 C19 5.94 19 11.88 19 18 C12.73 18 6.46 18 0 18 C0 12.06 0 6.12 0 0 Z " fill="#744D4F" transform="translate(53,256)"/>
<path d="M0 0 C6.27 0 12.54 0 19 0 C19 5.94 19 11.88 19 18 C12.73 18 6.46 18 0 18 C0 12.06 0 6.12 0 0 Z " fill="#CA826B" transform="translate(343,238)"/>
<path d="M0 0 C5.94 0 11.88 0 18 0 C18 6.27 18 12.54 18 19 C12.06 19 6.12 19 0 19 C0 12.73 0 6.46 0 0 Z " fill="#515462" transform="translate(247,102)"/>
<path d="M0 0 C4.1765625 -0.0309375 4.1765625 -0.0309375 8.4375 -0.0625 C9.75512329 -0.07615601 9.75512329 -0.07615601 11.09936523 -0.09008789 C13.06645974 -0.09723091 15.03353621 -0.05031893 17 0 C18 1 18 1 18.11352539 2.76586914 C18.10828857 3.51473389 18.10305176 4.26359863 18.09765625 5.03515625 C18.09515869 5.76355713 18.09266113 6.49195801 18.09008789 7.24243164 C18.08098389 8.1730542 18.07187988 9.10367676 18.0625 10.0625 C18.041875 13.011875 18.02125 15.96125 18 19 C12.06 19 6.12 19 0 19 C0 12.73 0 6.46 0 0 Z " fill="#CB8971" transform="translate(324,382)"/>
<path d="M0 0 C5.94 0 11.88 0 18 0 C18 5.61 18 11.22 18 17 C12.06 17 6.12 17 0 17 C0 11.39 0 5.78 0 0 Z " fill="#D89E87" transform="translate(72,238)"/>
<path d="M0 0 C0.33 0 0.66 0 1 0 C1.13277344 0.75925781 1.26554687 1.51851563 1.40234375 2.30078125 C1.57894531 3.29464844 1.75554687 4.28851563 1.9375 5.3125 C2.11152344 6.29863281 2.28554687 7.28476562 2.46484375 8.30078125 C2.95746847 11.08189213 2.95746847 11.08189213 4 14 C5.31526949 23.75897483 5.693194 33.15540891 3.4375 42.7734375 C2.87146367 45.27596848 2.87146367 45.27596848 3 49 C8.61 49 14.22 49 20 49 C20.495 57.415 20.495 57.415 21 66 C32.88 66.33 44.76 66.66 57 67 C57 67.33 57 67.66 57 68 C44.46 68 31.92 68 19 68 C19 62.06 19 56.12 19 50 C12.4 50 5.8 50 -1 50 C-0.67 33.5 -0.34 17 0 0 Z " fill="#F8F2ED" transform="translate(92,277)"/>
<path d="M0 0 C0.33 0 0.66 0 1 0 C1.495 5.94 1.495 5.94 2 12 C4.43757413 12.02698422 6.87484915 12.04683099 9.3125 12.0625 C10.00279297 12.07087891 10.69308594 12.07925781 11.40429688 12.08789062 C14.5483025 12.10307906 16.99420019 12.00193327 20 11 C22.1875 11.9375 22.1875 11.9375 24 13 C15.90901413 15.02274647 7.33999734 14 -1 14 C-1 34.46 -1 54.92 -1 76 C-1.33 76 -1.66 76 -2 76 C-2 61.15 -2 46.3 -2 31 C-7.28 31.33 -12.56 31.66 -18 32 C-21.08309256 32.06959408 -24.13880866 32.12093065 -27.21875 32.09765625 C-27.97297241 32.0962413 -28.72719482 32.09482635 -29.50427246 32.09336853 C-31.83622798 32.08791734 -34.16807517 32.07539835 -36.5 32.0625 C-38.11327983 32.05746561 -39.72656122 32.05290619 -41.33984375 32.04882812 C-45.22660214 32.0379976 -49.11328295 32.0208446 -53 32 C-53 31.67 -53 31.34 -53 31 C-42.44 31 -31.88 31 -21 31 C-21 25.06 -21 19.12 -21 13 C-20.67 13 -20.34 13 -20 13 C-20 18.28 -20 23.56 -20 29 C-14.39 29 -8.78 29 -3 29 C-3 23.72 -3 18.44 -3 13 C-2.34 13 -1.68 13 -1 13 C-0.505 6.565 -0.505 6.565 0 0 Z " fill="#0C0A0B" transform="translate(247,243)"/>
<path d="M0 0 C25.74 0.33 51.48 0.66 78 1 C75.5704097 3.4295903 74.30611087 3.23446257 70.99156189 3.24884033 C70.29744705 3.24164978 69.60333221 3.23445923 68.88818359 3.22705078 C67.79046883 3.22748886 67.79046883 3.22748886 66.670578 3.22793579 C64.24641146 3.22654001 61.82255049 3.2109674 59.3984375 3.1953125 C57.71977913 3.19158325 56.04111859 3.18873586 54.36245728 3.18673706 C49.94008393 3.17909369 45.51784155 3.15943922 41.09552002 3.1373291 C36.58453137 3.11688579 32.0735216 3.10773859 27.5625 3.09765625 C18.70826648 3.07619392 9.85416461 3.04100611 1 3 C1 8.94 1 14.88 1 21 C0.34 20.67 -0.32 20.34 -1 20 C-0.67 13.4 -0.34 6.8 0 0 Z " fill="#D6C7B6" transform="translate(245,235)"/>
<path d="M0 0 C0.33 0 0.66 0 1 0 C1 16.5 1 33 1 50 C5.62 50 10.24 50 15 50 C15.33 38.45 15.66 26.9 16 15 C16.33 15 16.66 15 17 15 C17.33 27.21 17.66 39.42 18 52 C11.73 52 5.46 52 -1 52 C-1 57.94 -1 63.88 -1 70 C-6.28 70 -11.56 70 -17 70 C-17 69.67 -17 69.34 -17 69 C-12.05 69 -7.1 69 -2 69 C-2.020625 66.57914062 -2.04125 64.15828125 -2.0625 61.6640625 C-2.0999529 49.2229712 -1.51999781 36.80259878 -1 24.375 C-0.90331339 22.00001351 -0.80695702 19.62501355 -0.7109375 17.25 C-0.47775712 11.49983951 -0.24053208 5.74985742 0 0 Z " fill="#0A090C" transform="translate(173,277)"/>
<path d="M0 0 C17.82 0 35.64 0 54 0 C54 0.33 54 0.66 54 1 C47.52699343 1.82884311 41.2362945 2.13530112 34.71484375 2.09765625 C33.77314835 2.0962413 32.83145294 2.09482635 31.86122131 2.09336853 C28.88661368 2.08782122 25.91208445 2.07527887 22.9375 2.0625 C20.90690214 2.05747818 18.87630308 2.05291647 16.84570312 2.04882812 C11.89710572 2.03786912 6.9485661 2.02064152 2 2 C2.04125 3.093125 2.0825 4.18625 2.125 5.3125 C2 9 2 9 0 12 C0 8.04 0 4.08 0 0 Z " fill="#1C1410" transform="translate(110,238)"/>
<path d="M0 0 C1.85625 0.061875 1.85625 0.061875 3.75 0.125 C3.75 0.455 3.75 0.785 3.75 1.125 C0.78 1.785 -2.19 2.445 -5.25 3.125 C-5.58 7.745 -5.91 12.365 -6.25 17.125 C-2.62 17.125 1.01 17.125 4.75 17.125 C5.08 16.465 5.41 15.805 5.75 15.125 C6.245 16.115 6.245 16.115 6.75 17.125 C8.87576782 17.59151207 8.87576782 17.59151207 11.3125 17.75 C12.13878906 17.82476562 12.96507812 17.89953125 13.81640625 17.9765625 C14.45449219 18.02554688 15.09257813 18.07453125 15.75 18.125 C15.75 18.455 15.75 18.785 15.75 19.125 C1.09694678 20.39917854 -13.55347377 20.22568236 -28.25 20.125 C-28.25 19.795 -28.25 19.465 -28.25 19.125 C-21.32 19.125 -14.39 19.125 -7.25 19.125 C-7.58 13.515 -7.91 7.905 -8.25 2.125 C-4.63863788 0.31931894 -3.705469 -0.12351563 0 0 Z " fill="#78808E" transform="translate(81.25,41.875)"/>
<path d="M0 0 C0.33 0 0.66 0 1 0 C1 17.82 1 35.64 1 54 C-2.0979597 55.54897985 -5.26216552 54.83239539 -8.625 54.5625 C-9.33140625 54.51029297 -10.0378125 54.45808594 -10.765625 54.40429688 C-12.51079987 54.27458793 -14.25545725 54.13795046 -16 54 C-16 53.67 -16 53.34 -16 53 C-11.05 53 -6.1 53 -1 53 C-1.00523682 51.89188965 -1.01047363 50.7837793 -1.01586914 49.64208984 C-1.03420335 45.46355014 -1.045534 41.28501386 -1.05493164 37.10644531 C-1.05990778 35.31054076 -1.06669109 33.51464014 -1.07543945 31.71875 C-1.1258511 21.09078763 -0.97765358 10.59216558 0 0 Z " fill="#2A2D3A" transform="translate(34,220)"/>
<path d="M0 0 C0.33 0 0.66 0 1 0 C1.33 2.31 1.66 4.62 2 7 C3.14339844 7.13277344 4.28679687 7.26554687 5.46484375 7.40234375 C6.9557562 7.5805031 8.44664018 7.75890082 9.9375 7.9375 C11.06961914 8.06801758 11.06961914 8.06801758 12.22460938 8.20117188 C17.88671875 8.88671875 17.88671875 8.88671875 19 10 C19.08669432 11.4887186 19.10703494 12.981445 19.09765625 14.47265625 C19.09443359 15.37177734 19.09121094 16.27089844 19.08789062 17.19726562 C19.07951172 18.14279297 19.07113281 19.08832031 19.0625 20.0625 C19.05798828 21.01189453 19.05347656 21.96128906 19.04882812 22.93945312 C19.0370011 25.29303065 19.02052025 27.64648477 19 30 C20.65 30 22.3 30 24 30 C24 30.33 24 30.66 24 31 C21.69 31 19.38 31 17 31 C16.80151421 29.16782349 16.61682908 27.3341506 16.4375 25.5 C16.33308594 24.4790625 16.22867187 23.458125 16.12109375 22.40625 C16 19 16 19 17 11 C11.39 11 5.78 11 0 11 C0 7.37 0 3.74 0 0 Z " fill="#181F28" transform="translate(361,72)"/>
<path d="M0 0 C0.33 0 0.66 0 1 0 C1 11.22 1 22.44 1 34 C8.92 33.505 8.92 33.505 17 33 C17.33 27.39 17.66 21.78 18 16 C18.33 16 18.66 16 19 16 C19.08926992 22.12986785 19.11401208 27.95250582 18 34 C18.33 34.66 18.66 35.32 19 36 C12.73 36 6.46 36 0 36 C0 24.12 0 12.24 0 0 Z " fill="#231E22" transform="translate(228,293)"/>
<path d="M0 0 C0.33 0 0.66 0 1 0 C1.33 13.86 1.66 27.72 2 42 C2.66 42 3.32 42 4 42 C4 43.32 4 44.64 4 46 C10.27 46.33 16.54 46.66 23 47 C23 47.33 23 47.66 23 48 C15.41 48 7.82 48 0 48 C0 32.16 0 16.32 0 0 Z " fill="#443535" transform="translate(129,279)"/>
<path d="M0 0 C0 0.33 0 0.66 0 1 C-1.2375 1.12375 -2.475 1.2475 -3.75 1.375 C-6.17203318 1.61720332 -7.82335409 1.90752067 -9.9921875 3.04296875 C-12.35487268 4.16915137 -13.78511557 4.11470262 -16.375 3.9375 C-22.19791687 3.88924727 -22.19791687 3.88924727 -27 7 C-27.82086293 11.33415626 -27.98743392 15.59558911 -28 20 C-28.33 20 -28.66 20 -29 20 C-29 13.73 -29 7.46 -29 1 C-24.3284375 0.7525 -24.3284375 0.7525 -19.5625 0.5 C-18.11919312 0.42168945 -18.11919312 0.42168945 -16.64672852 0.34179688 C-11.08937768 0.05601942 -5.56464359 -0.04528703 0 0 Z " fill="#E5BB9D" transform="translate(257,199)"/>
<path d="M0 0 C0.79075928 0.00523682 1.58151855 0.01047363 2.39624023 0.01586914 C3.67724609 0.02070313 3.67724609 0.02070313 4.98413086 0.02563477 C5.88196289 0.03401367 6.77979492 0.04239258 7.70483398 0.05102539 C8.6065332 0.05553711 9.50823242 0.06004883 10.43725586 0.06469727 C12.67234712 0.07652315 14.90730835 0.09300319 17.14233398 0.11352539 C17.14233398 0.44352539 17.14233398 0.77352539 17.14233398 1.11352539 C11.53233398 1.11352539 5.92233398 1.11352539 0.14233398 1.11352539 C0.14233398 7.05352539 0.14233398 12.99352539 0.14233398 19.11352539 C-4.14766602 19.11352539 -8.43766602 19.11352539 -12.85766602 19.11352539 C-12.85766602 18.78352539 -12.85766602 18.45352539 -12.85766602 18.11352539 C-9.55766602 18.11352539 -6.25766602 18.11352539 -2.85766602 18.11352539 C-2.87506836 16.29014648 -2.87506836 16.29014648 -2.89282227 14.42993164 C-2.9021988 12.84529775 -2.91129914 11.26066221 -2.92016602 9.67602539 C-2.92854492 8.87358398 -2.93692383 8.07114258 -2.94555664 7.24438477 C-2.95418032 5.20057318 -2.90994751 3.15668637 -2.85766602 1.11352539 C-1.85766602 0.11352539 -1.85766602 0.11352539 0 0 Z " fill="#08080A" transform="translate(73.857666015625,362.886474609375)"/>
<path d="M0 0 C13.53 0 27.06 0 41 0 C40.67 0.99 40.34 1.98 40 3 C34.62484067 3.02467759 29.24971415 3.04284928 23.87451172 3.05493164 C22.04507879 3.05996737 20.21564991 3.06679627 18.38623047 3.07543945 C15.76008102 3.08753824 13.13398468 3.09323583 10.5078125 3.09765625 C9.68693146 3.10281754 8.86605042 3.10797882 8.02029419 3.11329651 C2.22774341 3.11387171 2.22774341 3.11387171 0 2 C0 1.34 0 0.68 0 0 Z " fill="#0C1018" transform="translate(32,289)"/>
<path d="M0 0 C0 3.3 0 6.6 0 10 C-0.33 10 -0.66 10 -1 10 C-1 8.35 -1 6.7 -1 5 C-1.66 4.67 -2.32 4.34 -3 4 C-3.495 3.01 -3.495 3.01 -4 2 C-20.335 2.495 -20.335 2.495 -37 3 C-37 8.61 -37 14.22 -37 20 C-37.33 20 -37.66 20 -38 20 C-38 13.73 -38 7.46 -38 1 C-12.08510638 -0.19148936 -12.08510638 -0.19148936 0 0 Z " fill="#D89988" transform="translate(304,161)"/>
<path d="M0 0 C19.47 0 38.94 0 59 0 C58.67 3.63 58.34 7.26 58 11 C57.34 11.33 56.68 11.66 56 12 C56 8.7 56 5.4 56 2 C37.52 1.67 19.04 1.34 0 1 C0 0.67 0 0.34 0 0 Z " fill="#28353B" transform="translate(247,22)"/>
<path d="M0 0 C11.88 0 23.76 0 36 0 C36 0.33 36 0.66 36 1 C24.45 1 12.9 1 1 1 C1.144375 5.723125 1.28875 10.44625 1.4375 15.3125 C1.48060303 16.79919189 1.52370605 18.28588379 1.56811523 19.81762695 C1.60622314 20.98769287 1.64433105 22.15775879 1.68359375 23.36328125 C1.72025146 24.56251221 1.75690918 25.76174316 1.79467773 26.99731445 C1.87733025 30.04994349 1.87733025 30.04994349 3 33 C2.01 33.99 1.02 34.98 0 36 C0 24.12 0 12.24 0 0 Z " fill="#FDEDDD" transform="translate(191,293)"/>
<path d="M0 0 C0.33 0 0.66 0 1 0 C1.33 4.29 1.66 8.58 2 13 C8.86410783 14.22133781 15.57495955 14.0309025 22.52539062 13.87304688 C23.42837891 13.86208984 24.33136719 13.85113281 25.26171875 13.83984375 C26.07600342 13.82300537 26.89028809 13.80616699 27.72924805 13.78881836 C30 14 30 14 34 16 C22.78 16 11.56 16 0 16 C0 10.72 0 5.44 0 0 Z " fill="#EFE1CD" transform="translate(192,258)"/>
<path d="M0 0 C6.27 0 12.54 0 19 0 C18.67 16.17 18.34 32.34 18 49 C17.67 49 17.34 49 17 49 C16.07360748 38.51202519 15.87618294 28.14376739 15.9375 17.625 C15.94253269 16.09895983 15.94709242 14.57291802 15.95117188 13.046875 C15.9611566 9.36450793 15.98075413 5.68237592 16 2 C10.72 1.67 5.44 1.34 0 1 C0 0.67 0 0.34 0 0 Z " fill="#020B17" transform="translate(398,122)"/>
<path d="M0 0 C4.47915328 -0.02886338 8.95828291 -0.04675187 13.4375 -0.0625 C14.71689453 -0.07087891 15.99628906 -0.07925781 17.31445312 -0.08789062 C19.13686523 -0.09272461 19.13686523 -0.09272461 20.99609375 -0.09765625 C22.12200928 -0.10289307 23.2479248 -0.10812988 24.40795898 -0.11352539 C27 0 27 0 28 1 C28.07319621 3.69654854 28.09242537 6.36691458 28.0625 9.0625 C28.05798828 9.82111328 28.05347656 10.57972656 28.04882812 11.36132812 C28.0370068 13.24091871 28.01907078 15.12046899 28 17 C31.96 17 35.92 17 40 17 C40 17.33 40 17.66 40 18 C35.38 18.33 30.76 18.66 26 19 C26 13.06 26 7.12 26 1 C17.42 1 8.84 1 0 1 C0 0.67 0 0.34 0 0 Z " fill="#0A080E" transform="translate(279,256)"/>
<path d="M0 0 C0.33 0 0.66 0 1 0 C1 10.23 1 20.46 1 31 C6.61 31.33 12.22 31.66 18 32 C18 32.33 18 32.66 18 33 C11.73 33 5.46 33 -1 33 C-1.02700643 28.62495854 -1.04684275 24.25008438 -1.0625 19.875 C-1.07087891 18.6375 -1.07925781 17.4 -1.08789062 16.125 C-1.09111328 14.92617187 -1.09433594 13.72734375 -1.09765625 12.4921875 C-1.10289307 11.39245605 -1.10812988 10.29272461 -1.11352539 9.15966797 C-1.0008558 6.02381895 -0.58626376 3.07940617 0 0 Z " fill="#1D242E" transform="translate(16,187)"/>
<path d="M0 0 C6.27 0.33 12.54 0.66 19 1 C18.67 1.66 18.34 2.32 18 3 C13.38 3 8.76 3 4 3 C2.55792059 5.88415883 2.90605113 8.41721528 2.9375 11.625 C2.95103516 13.40777344 2.95103516 13.40777344 2.96484375 15.2265625 C2.97644531 16.14179688 2.98804688 17.05703125 3 18 C2.01 18.33 1.02 18.66 0 19 C0 12.73 0 6.46 0 0 Z " fill="#F2DBC2" transform="translate(306,345)"/>
<path d="M0 0 C0 5.94 0 11.88 0 18 C-6.93 18 -13.86 18 -21 18 C-21 17.67 -21 17.34 -21 17 C-14.4 17 -7.8 17 -1 17 C-1.33 11.72 -1.66 6.44 -2 1 C-3.155 1.350625 -4.31 1.70125 -5.5 2.0625 C-12.59332627 3.69066317 -19.82732068 2.65126168 -27 2 C-27 1.67 -27 1.34 -27 1 C-17.98187001 0.36635473 -9.04691745 -0.12565163 0 0 Z " fill="#F8EADA" transform="translate(152,257)"/>
<path d="M0 0 C2.5 0.25 2.5 0.25 4.5 2.25 C4.75 4.75 4.75 4.75 4.5 7.25 C2.5 9.25 2.5 9.25 0 9.5 C-2.5 9.25 -2.5 9.25 -4.5 7.25 C-4.75 4.75 -4.75 4.75 -4.5 2.25 C-2.5 0.25 -2.5 0.25 0 0 Z " fill="#0C1929" transform="translate(210.5,502.75)"/>
<path d="M0 0 C0.33 0 0.66 0 1 0 C1 5.28 1 10.56 1 16 C7.27 16 13.54 16 20 16 C19.67 16.66 19.34 17.32 19 18 C15.93744039 18.0270491 12.8751214 18.04686298 9.8125 18.0625 C8.51602539 18.07506836 8.51602539 18.07506836 7.19335938 18.08789062 C2.99713231 18.10396812 -0.90936886 18.07559038 -5 17 C-5 16.67 -5 16.34 -5 16 C-3.35 16 -1.7 16 0 16 C0 10.72 0 5.44 0 0 Z " fill="#2B2426" transform="translate(52,347)"/>
<path d="M0 0 C2.31 0 4.62 0 7 0 C6.67 0.66 6.34 1.32 6 2 C5.01 2 4.02 2 3 2 C3.02320313 3.27617188 3.04640625 4.55234375 3.0703125 5.8671875 C3.08906829 7.5364525 3.10726869 9.2057238 3.125 10.875 C3.15013672 12.13763672 3.15013672 12.13763672 3.17578125 13.42578125 C3.18222656 14.23144531 3.18867188 15.03710938 3.1953125 15.8671875 C3.20578613 16.61081543 3.21625977 17.35444336 3.22705078 18.12060547 C3 20 3 20 1 22 C0.67 14.74 0.34 7.48 0 0 Z " fill="#0B141D" transform="translate(173,0)"/>
<path d="M0 0 C6.27 0 12.54 0 19 0 C19 0.33 19 0.66 19 1 C13.39 1 7.78 1 2 1 C2.33 6.61 2.66 12.22 3 18 C2.01 18 1.02 18 0 18 C0 12.06 0 6.12 0 0 Z " fill="#100B0C" transform="translate(305,327)"/>
<path d="M0 0 C0.33 0 0.66 0 1 0 C1 3.96 1 7.92 1 12 C-5.27 12 -11.54 12 -18 12 C-18 11.01 -18 10.02 -18 9 C-12.39 9 -6.78 9 -1 9 C-0.67 6.03 -0.34 3.06 0 0 Z " fill="#0B0A11" transform="translate(170,485)"/>
<path d="M0 0 C0.66 0 1.32 0 2 0 C2 1.65 2 3.3 2 5 C1.4834082 4.84152588 0.96681641 4.68305176 0.43457031 4.51977539 C-2.71232894 3.84791934 -5.73638152 3.77900563 -8.953125 3.68359375 C-9.94345734 3.6524221 -9.94345734 3.6524221 -10.95379639 3.62062073 C-13.05243015 3.55549853 -15.15118372 3.49641498 -17.25 3.4375 C-18.67709547 3.39427921 -20.10417905 3.3506638 -21.53125 3.30664062 C-25.02070722 3.19985589 -28.51029753 3.09848434 -32 3 C-32 2.67 -32 2.34 -32 2 C-31.06615479 1.97494385 -30.13230957 1.9498877 -29.17016602 1.92407227 C-25.71674811 1.82913072 -22.2635104 1.72988742 -18.81030273 1.62768555 C-17.31360731 1.58428187 -15.81686061 1.54261087 -14.32006836 1.50268555 C-12.17285688 1.44511384 -10.02590479 1.38138284 -7.87890625 1.31640625 C-6.5854126 1.27974854 -5.29191895 1.24309082 -3.95922852 1.20532227 C-1.11444992 1.3332722 -1.11444992 1.3332722 0 0 Z " fill="#EDDECE" transform="translate(151,341)"/>
<path d="M0 0 C3.63 0.33 7.26 0.66 11 1 C11 1.33 11 1.66 11 2 C8.36 2 5.72 2 3 2 C2.67 7.28 2.34 12.56 2 18 C1.67 18 1.34 18 1 18 C-0.07518216 11.95210034 -0.07583363 6.14252407 0 0 Z " fill="#0E151B" transform="translate(33,82)"/>
<path d="M0 0 C6.27 0 12.54 0 19 0 C19 0.33 19 0.66 19 1 C11.08 1.495 11.08 1.495 3 2 C2.7834375 3.9490625 2.7834375 3.9490625 2.5625 5.9375 C2.04166667 10.625 1.52083333 15.3125 1 20 C0.67 20 0.34 20 0 20 C0 13.4 0 6.8 0 0 Z " fill="#F4E1CC" transform="translate(172,237)"/>
<path d="M0 0 C3.63 0 7.26 0 11 0 C11 5.28 11 10.56 11 16 C10.67 16 10.34 16 10 16 C9.95101562 15.22914063 9.90203125 14.45828125 9.8515625 13.6640625 C9.77679688 12.66117187 9.70203125 11.65828125 9.625 10.625 C9.55539063 9.62726563 9.48578125 8.62953125 9.4140625 7.6015625 C9.23636036 4.84491121 9.23636036 4.84491121 7 3 C4.68234271 2.28072705 2.34904126 1.6090107 0 1 C0 0.67 0 0.34 0 0 Z " fill="#494E52" transform="translate(79,403)"/>
<path d="M0 0 C0.33 0 0.66 0 1 0 C1.33 8.91 1.66 17.82 2 27 C3.98 27.66 5.96 28.32 8 29 C8 29.33 8 29.66 8 30 C5.36 30 2.72 30 0 30 C0 20.1 0 10.2 0 0 Z " fill="#FEEBD9" transform="translate(91,372)"/>
<path d="M0 0 C0.33 0 0.66 0 1 0 C1.33 2.31 1.66 4.62 2 7 C7.28 7.66 12.56 8.32 18 9 C18 9.33 18 9.66 18 10 C12.06 10 6.12 10 0 10 C0 6.7 0 3.4 0 0 Z " fill="#9FA6B8" transform="translate(361,72)"/>
<path d="M0 0 C0.33 0 0.66 0 1 0 C2.0753012 14.57417169 2.0753012 14.57417169 2 20.25 C1.80235765 23.93411922 1.80235765 23.93411922 3 27 C2.01 27.99 1.02 28.98 0 30 C0 20.1 0 10.2 0 0 Z " fill="#EEE2D4" transform="translate(191,299)"/>
<path d="M0 0 C2.31 0.33 4.62 0.66 7 1 C4 3 4 3 2 3 C2 6.3 2 9.6 2 13 C1.34 13 0.68 13 0 13 C0 8.71 0 4.42 0 0 Z " fill="#111115" transform="translate(305,420)"/>
<path d="M0 0 C2.05078125 0.03255208 4.1015625 0.06510417 6.15234375 0.09765625 C5.16234375 0.75765625 4.17234375 1.41765625 3.15234375 2.09765625 C2.49234375 1.76765625 1.83234375 1.43765625 1.15234375 1.09765625 C1.15234375 1.75765625 1.15234375 2.41765625 1.15234375 3.09765625 C0.16234375 3.59265625 0.16234375 3.59265625 -0.84765625 4.09765625 C-1.31766658 7.37321233 -1.31766658 7.37321233 -1.47265625 11.16015625 C-1.54742187 12.45050781 -1.6221875 13.74085938 -1.69921875 15.0703125 C-1.74820312 16.06933594 -1.7971875 17.06835938 -1.84765625 18.09765625 C-2.17765625 18.09765625 -2.50765625 18.09765625 -2.84765625 18.09765625 C-2.87449937 15.28509344 -2.89441813 12.47278384 -2.91015625 9.66015625 C-2.91853516 8.85771484 -2.92691406 8.05527344 -2.93554688 7.22851562 C-2.94417055 5.18470404 -2.89993775 3.14081723 -2.84765625 1.09765625 C-1.84765625 0.09765625 -1.84765625 0.09765625 0 0 Z " fill="#EEBC9B" transform="translate(267.84765625,180.90234375)"/>
<path d="M0 0 C0 3.3 0 6.6 0 10 C-0.33 10 -0.66 10 -1 10 C-1 8.35 -1 6.7 -1 5 C-1.66 4.67 -2.32 4.34 -3 4 C-3.33 3.34 -3.66 2.68 -4 2 C-6.31 2 -8.62 2 -11 2 C-7.36576791 -0.32590854 -4.22911669 -0.16265833 0 0 Z " fill="#DEA595" transform="translate(304,161)"/>
<path d="M0 0 C0.33 0 0.66 0 1 0 C1.25427918 3.1234924 1.47412319 6.24846821 1.6875 9.375 C1.76033203 10.26445313 1.83316406 11.15390625 1.90820312 12.0703125 C1.96298828 12.92109375 2.01777344 13.771875 2.07421875 14.6484375 C2.13182373 15.43395996 2.18942871 16.21948242 2.2487793 17.02880859 C2.16668213 17.67930176 2.08458496 18.32979492 2 19 C1.01 19.66 0.02 20.32 -1 21 C-0.67 14.07 -0.34 7.14 0 0 Z " fill="#050C15" transform="translate(359,64)"/>
<path d="M0 0 C1.8871875 0.0309375 1.8871875 0.0309375 3.8125 0.0625 C3.8125 0.3925 3.8125 0.7225 3.8125 1.0625 C0.8425 1.7225 -2.1275 2.3825 -5.1875 3.0625 C-5.5175 4.3825 -5.8475 5.7025 -6.1875 7.0625 C-6.8475 6.7325 -7.5075 6.4025 -8.1875 6.0625 C-7.8575 4.4125 -7.5275 2.7625 -7.1875 1.0625 C-4.43671116 0.14557039 -2.82801087 -0.04636083 0 0 Z " fill="#939DA0" transform="translate(81.1875,41.9375)"/>
<path d="M0 0 C0.99 0 1.98 0 3 0 C3 0.66 3 1.32 3 2 C2.01 2.495 2.01 2.495 1 3 C0.53045739 6.04581269 0.53045739 6.04581269 0.375 9.5625 C0.30023438 10.76003906 0.22546875 11.95757812 0.1484375 13.19140625 C0.09945312 14.11824219 0.05046875 15.04507813 0 16 C-0.33 16 -0.66 16 -1 16 C-1.02685095 13.52076199 -1.04676547 11.0418116 -1.0625 8.5625 C-1.07506836 7.50192383 -1.07506836 7.50192383 -1.08789062 6.41992188 C-1.09653588 4.61306441 -1.05220011 2.80612397 -1 1 C-0.67 0.67 -0.34 0.34 0 0 Z " fill="#F5C19E" transform="translate(229,203)"/>
<path d="M0 0 C1.2065625 0.0309375 1.2065625 0.0309375 2.4375 0.0625 C2.1075 0.7225 1.7775 1.3825 1.4375 2.0625 C0.4475 2.0625 -0.5425 2.0625 -1.5625 2.0625 C-1.8925 5.3625 -2.2225 8.6625 -2.5625 12.0625 C-2.8925 12.0625 -3.2225 12.0625 -3.5625 12.0625 C-3.58937279 10.25007948 -3.60883715 8.43754767 -3.625 6.625 C-3.63660156 5.61566406 -3.64820313 4.60632813 -3.66015625 3.56640625 C-3.52706167 0.15386128 -3.42090834 0.08343679 0 0 Z " fill="#3B4261" transform="translate(18.5625,140.9375)"/>
<path d="M0 0 C0.33 0.66 0.66 1.32 1 2 C3.64 2 6.28 2 9 2 C9.33 2.66 9.66 3.32 10 4 C6.7 4 3.4 4 0 4 C-0.33 3.34 -0.66 2.68 -1 2 C-0.67 1.34 -0.34 0.68 0 0 Z " fill="#1A2336" transform="translate(401,342)"/>
<path d="M0 0 C0.33 0 0.66 0 1 0 C1 3.96 1 7.92 1 12 C-0.98 12 -2.96 12 -5 12 C-4.360625 11.505 -3.72125 11.01 -3.0625 10.5 C-0.18484731 7.01193613 -0.29769264 4.46538959 0 0 Z " fill="#141411" transform="translate(190,317)"/>
<path d="M0 0 C0.66 0.66 1.32 1.32 2 2 C4.20250992 2.46006346 4.20250992 2.46006346 6.625 2.625 C7.44226563 2.69976562 8.25953125 2.77453125 9.1015625 2.8515625 C9.72804688 2.90054688 10.35453125 2.94953125 11 3 C11 3.33 11 3.66 11 4 C-0.52164009 4.18451025 -0.52164009 4.18451025 -6 3 C-6 2.67 -6 2.34 -6 2 C-4.02 2 -2.04 2 0 2 C0 1.34 0 0.68 0 0 Z " fill="#5A636D" transform="translate(86,57)"/>
<path d="M0 0 C0.99 0.33 1.98 0.66 3 1 C3 1.66 3 2.32 3 3 C-0.465 4.485 -0.465 4.485 -4 6 C-3.6875 4.125 -3.6875 4.125 -3 2 C-2.01 1.34 -1.02 0.68 0 0 Z " fill="#BABED2" transform="translate(366,66)"/>
<path d="M0 0 C2.475 0.495 2.475 0.495 5 1 C3.84826645 3.46800047 2.95216435 5.04783565 1 7 C0.67 4.69 0.34 2.38 0 0 Z " fill="#BF7B62" transform="translate(324,382)"/>
<path d="M0 0 C2.97 0 5.94 0 9 0 C5.71299843 1.64350079 3.52069985 2.41321669 0 3 C0 2.01 0 1.02 0 0 Z " fill="#0E151A" transform="translate(0,162)"/>
<path d="M0 0 C3.96 0 7.92 0 12 0 C12 0.33 12 0.66 12 1 C8.04 1 4.08 1 0 1 C0 0.67 0 0.34 0 0 Z " fill="#DBDBDB" transform="translate(21,499)"/>
<path d="M0 0 C0.33 0 0.66 0 1 0 C1 1.98 1 3.96 1 6 C0.67 6 0.34 6 0 6 C0 4.02 0 2.04 0 0 Z " fill="#8E6053" transform="translate(286,498)"/>
<path d="" fill="#FFFFFF" transform="translate(0,0)"/>
<path d="" fill="#FFFFFF" transform="translate(0,0)"/>
</svg>
