<?xml version="1.0" encoding="UTF-8"?>
<svg version="1.1" xmlns="http://www.w3.org/2000/svg" width="1237" height="319">
<path d="M0 0 C14.85 0 29.7 0 45 0 C45.33 3.96 45.66 7.92 46 12 C56.89 12 67.78 12 79 12 C79 15.96 79 19.92 79 24 C82.63 24 86.26 24 90 24 C90 27.63 90 31.26 90 35 C96.93 35.33 103.86 35.66 111 36 C111 39.3 111 42.6 111 46 C111.78246094 46.06058594 112.56492188 46.12117188 113.37109375 46.18359375 C114.38300781 46.26738281 115.39492187 46.35117187 116.4375 46.4375 C117.44683594 46.51871094 118.45617187 46.59992187 119.49609375 46.68359375 C122 47 122 47 123 48 C123.14310287 51.6691577 123.04221662 55.32715441 123 59 C126.96 59 130.92 59 135 59 C134.67 62.96 134.34 66.92 134 71 C137.3 71 140.6 71 144 71 C144 82.88 144 94.76 144 107 C140.7 107 137.4 107 134 107 C134.33 114.59 134.66 122.18 135 130 C131.04 129.67 127.08 129.34 123 129 C123 139.23 123 149.46 123 160 C123.99 159.67 124.98 159.34 126 159 C127.39439664 158.93334624 128.79169875 158.91461801 130.1875 158.9375 C131.445625 158.958125 132.70375 158.97875 134 159 C134 162.63 134 166.26 134 170 C137.3 170 140.6 170 144 170 C144 181.22 144 192.44 144 204 C140.7 204 137.4 204 134 204 C134 207.63 134 211.26 134 215 C130.37 214.67 126.74 214.34 123 214 C123 217.63 123 221.26 123 225 C119.37 225 115.74 225 112 225 C112 228.63 112 232.26 112 236 C108.37 236 104.74 236 101 236 C101 239.96 101 243.92 101 248 C97.37 248 93.74 248 90 248 C90 251.3 90 254.6 90 258 C86.37 258 82.74 258 79 258 C79 261.63 79 265.26 79 269 C75.37 269 71.74 269 68 269 C68 272.63 68 276.26 68 280 C64.04 280 60.08 280 56 280 C56 283.96 56 287.92 56 292 C52.37 292 48.74 292 45 292 C45 293.65 45 295.3 45 297 C29.82 297 14.64 297 -1 297 C-1 295.35 -1 293.7 -1 292 C-4.63 292 -8.26 292 -12 292 C-12 288.04 -12 284.08 -12 280 C-16.29 280 -20.58 280 -25 280 C-25 276.37 -25 272.74 -25 269 C-28.96 269 -32.92 269 -37 269 C-37 265.7 -37 262.4 -37 259 C-40.96 259 -44.92 259 -49 259 C-49 251.74 -49 244.48 -49 237 C-52.3 237 -55.6 237 -59 237 C-59 233.04 -59 229.08 -59 225 C-62.96 225 -66.92 225 -71 225 C-71 221.37 -71 217.74 -71 214 C-78.26 214 -85.52 214 -93 214 C-93 210.7 -93 207.4 -93 204 C-95.64 204 -98.28 204 -101 204 C-101 193.11 -101 182.22 -101 171 C-98.03 171 -95.06 171 -92 171 C-92.495 165.06 -92.495 165.06 -93 159 C-89.37 159.33 -85.74 159.66 -82 160 C-82 150.1 -82 140.2 -82 130 C-85.63 130 -89.26 130 -93 130 C-93 122.41 -93 114.82 -93 107 C-95.64 107 -98.28 107 -101 107 C-101 102.71 -101 98.42 -101 94 C-98.36 94 -95.72 94 -93 94 C-93 90.37 -93 86.74 -93 83 C-89.37 83 -85.74 83 -82 83 C-82 79.7 -82 76.4 -82 73 C-88.27 72.67 -94.54 72.34 -101 72 C-101 67.71 -101 63.42 -101 59 C-94.73 59 -88.46 59 -82 59 C-82 55.37 -82 51.74 -82 48 C-78.04 48 -74.08 48 -70 48 C-70 44.04 -70 40.08 -70 36 C-64.06 35.505 -64.06 35.505 -58 35 C-58 31.7 -58 28.4 -58 25 C-53.5621439 23.88834768 -49.23043614 23.88472237 -44.6875 23.9375 C-43.94693359 23.94201172 -43.20636719 23.94652344 -42.44335938 23.95117188 C-40.62887101 23.96287825 -38.81442466 23.98081102 -37 24 C-37 20.37 -37 16.74 -37 13 C-24.79 12.67 -12.58 12.34 0 12 C0 8.04 0 4.08 0 0 Z " fill="#18212C" transform="translate(121,0)"/>
<path d="M0 0 C14.85 0 29.7 0 45 0 C45.495 5.94 45.495 5.94 46 12 C56.89 12 67.78 12 79 12 C79 15.96 79 19.92 79 24 C82.63 24 86.26 24 90 24 C90 27.63 90 31.26 90 35 C96.93 35.33 103.86 35.66 111 36 C111 39.3 111 42.6 111 46 C111.78246094 46.06058594 112.56492188 46.12117188 113.37109375 46.18359375 C114.38300781 46.26738281 115.39492187 46.35117187 116.4375 46.4375 C117.44683594 46.51871094 118.45617187 46.59992187 119.49609375 46.68359375 C122 47 122 47 123 48 C123.14310287 51.6691577 123.04221662 55.32715441 123 59 C126.96 59 130.92 59 135 59 C134.67 62.96 134.34 66.92 134 71 C137.3 71 140.6 71 144 71 C144 82.88 144 94.76 144 107 C140.7 107 137.4 107 134 107 C134.33 114.59 134.66 122.18 135 130 C131.04 129.67 127.08 129.34 123 129 C123 139.23 123 149.46 123 160 C123.99 159.67 124.98 159.34 126 159 C127.39439664 158.93334624 128.79169875 158.91461801 130.1875 158.9375 C131.445625 158.958125 132.70375 158.97875 134 159 C134 162.63 134 166.26 134 170 C137.3 170 140.6 170 144 170 C144 181.22 144 192.44 144 204 C140.7 204 137.4 204 134 204 C134 207.63 134 211.26 134 215 C130.37 214.67 126.74 214.34 123 214 C123 217.63 123 221.26 123 225 C119.37 225 115.74 225 112 225 C112 228.63 112 232.26 112 236 C108.37 236 104.74 236 101 236 C101 239.96 101 243.92 101 248 C97.37 248 93.74 248 90 248 C90 251.3 90 254.6 90 258 C86.37 258 82.74 258 79 258 C79 261.63 79 265.26 79 269 C75.37 269 71.74 269 68 269 C68 272.63 68 276.26 68 280 C64.04 280 60.08 280 56 280 C56 283.96 56 287.92 56 292 C52.37 292 48.74 292 45 292 C45 293.65 45 295.3 45 297 C29.82 297 14.64 297 -1 297 C-1 295.35 -1 293.7 -1 292 C-4.63 292 -8.26 292 -12 292 C-12 288.04 -12 284.08 -12 280 C-8.04 280 -4.08 280 0 280 C0 283.63 0 287.26 0 291 C14.52 291 29.04 291 44 291 C44 287.37 44 283.74 44 280 C47.63 280 51.26 280 55 280 C55 276.04 55 272.08 55 268 C58.96 268 62.92 268 67 268 C67 264.37 67 260.74 67 257 C70.63 257 74.26 257 78 257 C78 253.37 78 249.74 78 246 C81.63 246 85.26 246 89 246 C89 242.37 89 238.74 89 235 C92.63 235 96.26 235 100 235 C100 227.74 100 220.48 100 213 C107.26 213 114.52 213 122 213 C122 209.7 122 206.4 122 203 C125.3 202.67 128.6 202.34 132 202 C132.33 192.1 132.66 182.2 133 172 C122.11 172 111.22 172 100 172 C100 178.93 100 185.86 100 193 C96.7 193 93.4 193 90 193 C90 196.3 90 199.6 90 203 C86.37 203 82.74 203 79 203 C79 206.3 79 209.6 79 213 C71.08 213 63.16 213 55 213 C55 209.7 55 206.4 55 203 C51.37 203 47.74 203 44 203 C44 199.7 44 196.4 44 193 C40.37 193 36.74 193 33 193 C33 186.07 33 179.14 33 172 C25.74 172 18.48 172 11 172 C11 178.93 11 185.86 11 193 C7.37 193 3.74 193 0 193 C0 196.3 0 199.6 0 203 C-3.63 203 -7.26 203 -11 203 C-11 199.37 -11 195.74 -11 192 C-7.37 192 -3.74 192 0 192 C0 181.77 0 171.54 0 161 C-3.63 161 -7.26 161 -11 161 C-11 157.7 -11 154.4 -11 151 C-19.25 151 -27.5 151 -36 151 C-36 154.3 -36 157.6 -36 161 C-39.63 161 -43.26 161 -47 161 C-47 157.37 -47 153.74 -47 150 C-43.37 150 -39.74 150 -36 150 C-36 146.7 -36 143.4 -36 140 C-24.12 139.67 -12.24 139.34 0 139 C0 142.63 0 146.26 0 150 C3.63 150 7.26 150 11 150 C11 153.63 11 157.26 11 161 C17.93 161 24.86 161 32 161 C32 157.37 32 153.74 32 150 C35.63 150 39.26 150 43 150 C43 146.37 43 142.74 43 139 C58.18 139 73.36 139 89 139 C89 142.63 89 146.26 89 150 C96.26 150 103.52 150 111 150 C111 146.7 111 143.4 111 140 C107.37 140 103.74 140 100 140 C100 136.37 100 132.74 100 129 C96.37 129 92.74 129 89 129 C89 125.37 89 121.74 89 118 C85.37 118 81.74 118 78 118 C78 110.41 78 102.82 78 95 C70.41 95 62.82 95 55 95 C55 98.63 55 102.26 55 106 C51.37 106 47.74 106 44 106 C44 109.63 44 113.26 44 117 C36.41 117 28.82 117 21 117 C21 116.67 21 116.34 21 116 C28.26 116 35.52 116 43 116 C42.63936201 110.25186988 42.63936201 110.25186988 40 108 C36.89503077 107.53275433 36.89503077 107.53275433 33.2421875 107.3671875 C32.57913605 107.32562531 31.91608459 107.28406311 31.23294067 107.24124146 C29.11404992 107.11043495 26.99466229 106.99257239 24.875 106.875 C23.43875064 106.78861149 22.00255158 106.7013823 20.56640625 106.61328125 C17.04480243 106.39909425 13.52263944 106.19650957 10 106 C9.97311849 104.35425434 9.95365877 102.70838587 9.9375 101.0625 C9.92589844 100.14597656 9.91429687 99.22945313 9.90234375 98.28515625 C10 96 10 96 11 95 C12.85287502 94.92773498 14.70833878 94.9161878 16.5625 94.9375 C17.57441406 94.94652344 18.58632812 94.95554687 19.62890625 94.96484375 C20.41136719 94.97644531 21.19382812 94.98804687 22 95 C21.98839844 94.21753906 21.97679687 93.43507813 21.96484375 92.62890625 C21.95582031 91.61699219 21.94679688 90.60507813 21.9375 89.5625 C21.92589844 88.55316406 21.91429687 87.54382813 21.90234375 86.50390625 C22 84 22 84 23 83 C25.3756852 82.9116033 27.72208674 82.88469695 30.09765625 82.90234375 C31.16094398 82.90446617 31.16094398 82.90446617 32.24571228 82.90663147 C34.51801712 82.91224557 36.79022475 82.92480037 39.0625 82.9375 C40.59960796 82.94251319 42.13671745 82.94707641 43.67382812 82.95117188 C47.44928667 82.9613703 51.22453404 82.98094268 55 83 C55 75.08 55 67.16 55 59 C51.37 59 47.74 59 44 59 C44 62.96 44 66.92 44 71 C36.74 71 29.48 71 22 71 C22 67.37 22 63.74 22 60 C25.63 60 29.26 60 33 60 C33 56.04 33 52.08 33 48 C36.96 48 40.92 48 45 48 C45 44.04 45 40.08 45 36 C37.41 36 29.82 36 22 36 C22 39.96 22 43.92 22 48 C10.45 48 -1.1 48 -13 48 C-13 44.37 -13 40.74 -13 37 C-4.96108096 36.23438866 2.92648346 35.87116729 11 36 C10.98839844 35.21753906 10.97679687 34.43507812 10.96484375 33.62890625 C10.95582031 32.61699219 10.94679687 31.60507812 10.9375 30.5625 C10.92589844 29.55316406 10.91429687 28.54382813 10.90234375 27.50390625 C11 25 11 25 12 24 C13.56172745 23.91314397 15.12729344 23.89297781 16.69140625 23.90234375 C17.63564453 23.90556641 18.57988281 23.90878906 19.55273438 23.91210938 C20.54595703 23.92048828 21.53917969 23.92886719 22.5625 23.9375 C23.55958984 23.94201172 24.55667969 23.94652344 25.58398438 23.95117188 C28.05601487 23.96299977 30.52801472 23.98093585 33 24 C33 20.37 33 16.74 33 13 C22.44 13 11.88 13 1 13 C0.67 8.71 0.34 4.42 0 0 Z " fill="#141D28" transform="translate(121,0)"/>
<path d="M0 0 C1.80791016 -0.00386719 1.80791016 -0.00386719 3.65234375 -0.0078125 C7.0625 0.125 7.0625 0.125 9.25292969 0.61352539 C12.96976987 1.290166 16.65949091 1.35876444 20.42578125 1.44140625 C21.61375557 1.4725779 21.61375557 1.4725779 22.82572937 1.50437927 C25.34206928 1.56947804 27.85850872 1.62857423 30.375 1.6875 C32.08659861 1.730723 33.79818735 1.77433848 35.50976562 1.81835938 C39.69390984 1.92511847 43.87815362 2.02649635 48.0625 2.125 C54.35432699 20.77340226 60.56158563 39.45070711 66.59197998 58.1854248 C67.18653936 60.02837105 67.78427913 61.87029502 68.38555908 63.71105957 C72.73238496 77.03463329 76.17332579 90.41126843 79.0625 104.125 C79.20712677 103.53900024 79.35175354 102.95300049 79.50076294 102.34924316 C84.61725389 81.90863872 91.25605842 62.07465458 98.07391357 42.15270996 C99.24237919 38.73262126 100.40344548 35.31004098 101.56426811 31.88735199 C102.95450886 27.78866825 104.3478607 23.69104529 105.7421875 19.59375 C106.0057391 18.81907883 106.2692907 18.04440765 106.5408287 17.2462616 C107.28058158 15.07440237 108.02244508 12.90327766 108.76513672 10.73242188 C109.18592499 9.50068237 109.60671326 8.26894287 110.04025269 6.99987793 C111.0625 4.125 111.0625 4.125 112.0625 2.125 C125.2625 2.125 138.4625 2.125 152.0625 2.125 C147.0642406 16.60408476 141.784629 30.94431943 136.3125 45.25 C135.48116677 47.42933713 134.65011846 49.60878296 133.81933594 51.78833008 C132.09673707 56.30703592 130.37292781 60.82527741 128.6484375 65.34326172 C125.72680274 73.00116604 122.81845841 80.66409011 119.91174316 88.32766724 C116.76160845 96.63234331 113.6024752 104.93356933 110.4407959 113.2338562 C108.2222819 119.06253315 106.01746819 124.89613786 103.82525635 130.73475647 C102.47700027 134.32099546 101.12039145 137.90403801 99.76208496 141.48648071 C99.14178132 143.12840349 98.52516109 144.77172385 97.91271973 146.41659546 C91.58551249 163.40168414 84.57393917 179.14268434 67.3671875 187.421875 C59.05578768 190.84567552 51.74069643 191.30731522 42.8125 191.3125 C41.71808594 191.32474609 40.62367187 191.33699219 39.49609375 191.34960938 C32.53481576 191.36211466 25.43110454 191.30930227 19.0625 188.125 C19.70393892 181.68350777 21.60995269 175.82042617 23.625 169.6875 C23.95435547 168.66978516 24.28371094 167.65207031 24.62304688 166.60351562 C25.43113532 164.10898174 26.24440128 161.61626517 27.0625 159.125 C27.89128662 159.28911377 28.72007324 159.45322754 29.57397461 159.62231445 C37.45432085 161.14446727 44.10138664 162.10555668 51.4375 158.4375 C56.8186527 153.69696072 57.69357876 148.50603035 58.19741821 141.61315918 C57.93997272 134.95719443 55.31016635 129.00714417 52.88671875 122.890625 C52.3262677 121.42361097 51.76802179 119.95575288 51.21182251 118.48712158 C49.72492632 114.57821059 48.20928761 110.68106029 46.68783951 106.78549194 C45.11873304 102.75247941 43.57727599 98.70894226 42.03393555 94.66601562 C39.86529462 88.99164712 37.68885417 83.32040716 35.50077915 77.65350342 C30.76054383 65.37664089 26.13227335 53.05994146 21.53359985 40.72937012 C19.7120094 35.84857289 17.88114508 30.9712621 16.05078125 26.09375 C15.06464844 23.4640625 14.07851562 20.834375 13.0625 18.125 C12.7325 23.735 12.4025 29.345 12.0625 35.125 C10.45375 34.96 8.845 34.795 7.1875 34.625 C-4.06991938 33.64484057 -14.98276186 33.22717704 -24.40234375 40.53125 C-30.38150373 46.7386222 -32.08165512 53.93593233 -32.14282227 62.26831055 C-32.15272186 63.09780212 -32.16262146 63.9272937 -32.17282104 64.78192139 C-32.20442205 67.52515809 -32.22918798 70.26841211 -32.25390625 73.01171875 C-32.27447698 74.91315665 -32.29547349 76.81458999 -32.31687927 78.71601868 C-32.37208761 83.72189644 -32.42150238 88.72781538 -32.46972656 93.73376465 C-32.52878011 99.73936725 -32.5950013 105.74489454 -32.66002655 111.75043488 C-32.7580205 120.87524394 -32.84688723 130.00010119 -32.9375 139.125 C-45.4775 139.125 -58.0175 139.125 -70.9375 139.125 C-70.9375 93.915 -70.9375 48.705 -70.9375 2.125 C-59.0575 2.125 -47.1775 2.125 -34.9375 2.125 C-34.6075 9.385 -34.2775 16.645 -33.9375 24.125 C-33.1125 22.289375 -32.2875 20.45375 -31.4375 18.5625 C-26.81175021 9.36516611 -20.58839718 4.49918586 -10.9375 1.125 C-7.29226329 -0.05639868 -3.81625135 -0.00814568 0 0 Z " fill="#000000" transform="translate(1081.9375,118.875)"/>
<path d="M0 0 C45.87 0 91.74 0 139 0 C139 27.47069943 139 27.47069943 130.421875 36.99609375 C126.97165238 40.97164688 123.98261128 45.16790041 121 49.5 C120.00184141 50.91796469 119.00183931 52.33463346 118 53.75 C117.505 54.45125 117.01 55.1525 116.5 55.875 C111 63.66666667 105.5 71.45833333 100 79.25 C99.25762085 80.30175415 99.25762085 80.30175415 98.50024414 81.37475586 C97.49955812 82.79232654 96.49874417 84.20980692 95.49780273 85.62719727 C93.00724549 89.15430572 90.51888408 92.68292217 88.03515625 96.21484375 C75.14572221 114.53386182 61.99595432 132.5050571 48 150 C93.54 150.495 93.54 150.495 140 151 C140 161.23 140 171.46 140 182 C93.8 182 47.6 182 0 182 C0 155.67391304 0 155.67391304 8.578125 146.0390625 C12.01327975 142.04302655 15.01178379 137.83556167 18 133.5 C18.99956975 132.08080954 20.00087353 130.66283882 21.00390625 129.24609375 C22.99357532 126.42766568 24.9803144 123.60720541 26.96484375 120.78515625 C32.07231989 113.52765027 37.22035849 106.30413676 42.4375 99.125 C46.94092866 92.92461745 51.32089244 86.65273977 55.625 80.3125 C60.83509296 72.64197708 66.20286914 65.11348463 71.74755859 57.68164062 C72.94888845 56.06862697 74.14067984 54.44852257 75.33203125 52.828125 C80.65421855 45.6324532 86.24724163 38.90331004 92 32 C61.64 31.67 31.28 31.34 0 31 C0 20.77 0 10.54 0 0 Z " fill="#000000" transform="translate(325,76)"/>
<path d="M0 0 C10.56 0 21.12 0 32 0 C32 7.26 32 14.52 32 22 C35.63 22 39.26 22 43 22 C43 25.3 43 28.6 43 32 C46.96 32 50.92 32 55 32 C55 35.3 55 38.6 55 42 C63.25 42 71.5 42 80 42 C80 38.7 80 35.4 80 32 C83.63 32 87.26 32 91 32 C91 28.7 91 25.4 91 22 C94.63 22 98.26 22 102 22 C102 15.07 102 8.14 102 1 C109.26 1 116.52 1 124 1 C124 7.93 124 14.86 124 22 C127.63 22 131.26 22 135 22 C135 25.3 135 28.6 135 32 C138.63 32 142.26 32 146 32 C146 35.3 146 38.6 146 42 C153.92 42 161.84 42 170 42 C170 38.7 170 35.4 170 32 C173.63 32 177.26 32 181 32 C181 28.7 181 25.4 181 22 C184.3 22 187.6 22 191 22 C191 15.07 191 8.14 191 1 C201.89 1 212.78 1 224 1 C224.0309375 8.3940625 224.0309375 8.3940625 224.0625 15.9375 C224.071604 17.49460693 224.08070801 19.05171387 224.09008789 20.65600586 C224.09383423 22.47950562 224.09383423 22.47950562 224.09765625 24.33984375 C224.10289307 25.59144287 224.10812988 26.84304199 224.11352539 28.13256836 C224 31 224 31 223 32 C219.66381769 32.14257189 216.34024394 32.04228157 213 32 C213 35.3 213 38.6 213 42 C205.74 42 198.48 42 191 42 C191 49.26 191 56.52 191 64 C187.37 64 183.74 64 180 64 C180 67.63 180 71.26 180 75 C176.37 75 172.74 75 169 75 C169 78.63 169 82.26 169 86 C165.37 86 161.74 86 158 86 C158 89.63 158 93.26 158 97 C154.04 97 150.08 97 146 97 C146 100.96 146 104.92 146 109 C142.37 109 138.74 109 135 109 C135 112.63 135 116.26 135 120 C120.48 120 105.96 120 91 120 C91 116.37 91 112.74 91 109 C82.75 109 74.5 109 66 109 C66 105.37 66 101.74 66 98 C62.04 98 58.08 98 54 98 C54 94.7 54 91.4 54 88 C50.04 88 46.08 88 42 88 C41.86383157 72.62809747 42.27731786 57.35699558 43 42 C35.74 42 28.48 42 21 42 C21 38.7 21 35.4 21 32 C14.07 32 7.14 32 0 32 C0 21.44 0 10.88 0 0 Z " fill="#F6DAB7" transform="translate(30,171)"/>
<path d="M0 0 C12.21 0 24.42 0 37 0 C37.33 21.78 37.66 43.56 38 66 C40.64 62.37 43.28 58.74 46 55 C51.79178875 49.51553065 58.22570174 45.78932262 66 44 C66.928125 43.773125 67.85625 43.54625 68.8125 43.3125 C83.80100173 41.84303905 97.66706557 43.60210275 109.76953125 53.1953125 C121.57924008 64.20826437 125.65869099 78.24710456 126.25814819 94.01538086 C126.38101475 99.64610298 126.33856718 105.274838 126.29296875 110.90625 C126.28735886 112.968462 126.28309537 115.03067805 126.28010559 117.09289551 C126.26876637 122.46534679 126.23939595 127.83754656 126.20599365 133.2098999 C126.17505445 138.71411743 126.16154978 144.21837644 126.14648438 149.72265625 C126.11451351 160.48189792 126.06183762 171.2408885 126 182 C113.46 182 100.92 182 88 182 C87.96261719 175.90789062 87.92523437 169.81578125 87.88671875 163.5390625 C87.85642069 159.66533701 87.82526079 155.79165645 87.79101562 151.91796875 C87.73681572 145.77785584 87.68570092 139.63783179 87.65356445 133.49755859 C87.62743681 128.54368483 87.58696807 123.59011172 87.53681374 118.63642502 C87.52020879 116.75237155 87.50865503 114.86826615 87.50238609 112.98414993 C87.64150419 97.12715105 87.64150419 97.12715105 81.875 82.625 C75.55267532 76.85244268 69.34430103 75.35639577 60.86328125 75.6796875 C53.9188234 76.45655727 48.92988957 78.95806749 44 84 C39.82789722 90.69135973 38.8516563 96.52985815 38.79467773 104.34863281 C38.78477814 105.18802399 38.77487854 106.02741516 38.76467896 106.89224243 C38.73313002 109.66250808 38.70833265 112.43279086 38.68359375 115.203125 C38.66301852 117.12555381 38.6420219 119.04797816 38.62062073 120.97039795 C38.56545884 126.02722555 38.51602361 131.08409357 38.46777344 136.14099121 C38.40867725 142.21002622 38.34248165 148.27898742 38.27747345 154.34796143 C38.17953795 163.5652625 38.09063123 172.78261117 38 182 C25.46 182 12.92 182 0 182 C0 121.94 0 61.88 0 0 Z " fill="#000000" transform="translate(740,76)"/>
<path d="M0 0 C17.05190055 -0.43033188 35.0991968 2.10177362 48.33984375 13.71875 C57.9807564 22.94836091 62.60952456 32.69503347 62.95535278 46.07925415 C62.96104639 47.81536511 62.95607328 49.55153526 62.94189453 51.28759766 C62.94218658 52.24490784 62.94247864 53.20221802 62.94277954 54.1885376 C62.94139924 57.31589192 62.92589987 60.4430004 62.91015625 63.5703125 C62.90642149 65.75320302 62.90357671 67.93609523 62.90158081 70.11898804 C62.89398081 75.83669748 62.8743638 81.55430371 62.85217285 87.27197266 C62.83163584 93.11749882 62.82256235 98.96304183 62.8125 104.80859375 C62.79111424 116.25786491 62.755962 127.70703269 62.71484375 139.15625 C50.83484375 139.15625 38.95484375 139.15625 26.71484375 139.15625 C26.38484375 133.87625 26.05484375 128.59625 25.71484375 123.15625 C24.43609375 124.6825 23.15734375 126.20875 21.83984375 127.78125 C13.4504102 137.04895238 3.71528344 141.8145545 -8.78515625 142.4375 C-23.36628114 142.85773056 -37.10379284 141.05284925 -48.57421875 131.1875 C-57.17778557 122.29392531 -59.71004741 113.13576863 -59.84765625 101.03125 C-59.86248047 100.1131958 -59.87730469 99.1951416 -59.89257812 98.24926758 C-59.74433614 88.39735201 -56.2980505 79.2132505 -49.28515625 72.15625 C-36.06160369 61.23145615 -19.41324807 59.48626201 -3.01708984 57.49902344 C1.26054898 56.96231165 5.51953468 56.33104261 9.77734375 55.65625 C10.50872559 55.54974121 11.24010742 55.44323242 11.99365234 55.33349609 C16.16278006 54.66143703 19.30704597 53.68149902 22.71484375 51.15625 C24.8197292 46.9464791 24.07075715 42.29072397 22.71484375 37.96875 C19.33855656 33.22084614 15.57086356 30.7538411 9.83984375 29.5546875 C2.0547669 28.70071223 -4.59574773 29.16964541 -11.53515625 32.90625 C-15.54788269 36.18938981 -18.4027774 39.83268172 -21.28515625 44.15625 C-29.26837746 43.56066531 -37.0874698 42.46025812 -44.97265625 41.09375 C-46.06771484 40.90748047 -47.16277344 40.72121094 -48.29101562 40.52929688 C-50.95639523 40.0753676 -53.62105874 39.6176336 -56.28515625 39.15625 C-51.55272776 24.0298228 -44.07513285 14.42822083 -30.05078125 6.953125 C-20.54801496 2.20667579 -10.47959202 0.49843482 0 0 Z M18.63671875 77.92578125 C17.39970215 78.1731604 17.39970215 78.1731604 16.13769531 78.42553711 C12.51561804 79.16166443 8.89439884 79.90195895 5.2734375 80.64355469 C3.03861286 81.0913726 0.80180946 81.51094997 -1.44140625 81.9140625 C-9.75597901 83.48660126 -16.55030178 85.67768241 -22.28515625 92.15625 C-23.75678007 96.57112147 -24.113992 100.55689098 -23.28515625 105.15625 C-20.82718529 109.45414721 -18.04580118 112.41004869 -13.46484375 114.3515625 C-4.10488795 116.72029824 5.2893093 115.87517225 13.71484375 111.15625 C19.51840748 107.43320911 22.91228363 102.7734404 24.71484375 96.15625 C25.28924263 89.83386423 25.00735699 83.48753654 24.71484375 77.15625 C22.57256418 77.15625 20.7375605 77.50327456 18.63671875 77.92578125 Z " fill="#000000" transform="translate(933.28515625,118.84375)"/>
<path d="M0 0 C7.79994306 7.03837381 12.14055273 15.88116341 13.48046875 26.23828125 C13.61540276 29.49527775 13.60695476 32.74794688 13.59399414 36.00732422 C13.59414017 36.97380386 13.59428619 37.94028351 13.59443665 38.93605042 C13.59374226 42.11754635 13.58597208 45.29898309 13.578125 48.48046875 C13.57625914 50.69149748 13.57483603 52.90252662 13.57383728 55.11355591 C13.57002537 60.92335152 13.5602064 66.73312201 13.5491333 72.54290771 C13.53889067 78.47521627 13.53433355 84.4075289 13.52929688 90.33984375 C13.51858294 101.97266905 13.50099687 113.60546912 13.48046875 125.23828125 C1.60046875 125.23828125 -10.27953125 125.23828125 -22.51953125 125.23828125 C-22.84953125 119.95828125 -23.17953125 114.67828125 -23.51953125 109.23828125 C-24.50953125 110.43453125 -25.49953125 111.63078125 -26.51953125 112.86328125 C-33.79123092 121.1113414 -42.49307744 126.60300208 -53.51953125 128.23828125 C-68.62977193 129.18581267 -82.75972465 128.23482692 -95.51953125 119.23828125 C-102.57889811 112.93824124 -107.89161862 104.74291976 -108.6965332 95.12280273 C-109.33098002 71.68871329 -109.33098002 71.68871329 -101.08203125 61.80078125 C-86.2595022 46.41537135 -65.8522542 44.86395466 -45.70263672 42.72045898 C-44.6783683 42.60565186 -44.6783683 42.60565186 -43.63340759 42.48852539 C-41.75575421 42.27850264 -39.87680572 42.08015268 -37.99780273 41.88256836 C-33.25009787 41.00314159 -29.01025657 39.72900657 -25.51953125 36.23828125 C-24.66095094 30.66308444 -25.33485983 25.96038025 -28.51953125 21.23828125 C-32.25668369 17.39435302 -36.25062434 15.78712572 -41.51953125 15.23828125 C-49.05660873 15.15348913 -56.35382382 15.53324255 -62.51953125 20.23828125 C-65.63762379 23.300569 -68.09961199 26.60840235 -70.51953125 30.23828125 C-81.95130959 29.02213462 -93.22069455 27.35946461 -104.51953125 25.23828125 C-103.32453611 14.848113 -98.11820727 7.30711761 -90.51953125 0.23828125 C-65.24355403 -18.9457314 -25.30502243 -19.38956264 0 0 Z M-30.59765625 64.0078125 C-31.83467285 64.25519165 -31.83467285 64.25519165 -33.09667969 64.50756836 C-36.71875696 65.24369568 -40.33997616 65.9839902 -43.9609375 66.72558594 C-46.19576214 67.17340385 -48.43256554 67.59298122 -50.67578125 67.99609375 C-59.14875331 69.59859064 -65.15251262 71.53456075 -71.01953125 77.98828125 C-72.97689554 82.22923721 -73.21728945 85.64328823 -72.51953125 90.23828125 C-70.47179573 95.08818116 -66.99885109 98.03130129 -62.296875 100.3203125 C-54.26754127 102.97417105 -45.46341032 102.19607159 -37.89453125 98.61328125 C-31.23442755 94.8049535 -27.40596466 90.42193294 -24.51953125 83.23828125 C-24.16656451 79.76965588 -24.23517642 76.34508809 -24.33203125 72.86328125 C-24.34556641 71.93644531 -24.35910156 71.00960937 -24.37304688 70.0546875 C-24.40819244 67.78194127 -24.45738993 65.51042278 -24.51953125 63.23828125 C-26.66181082 63.23828125 -28.4968145 63.58530581 -30.59765625 64.0078125 Z " fill="#000000" transform="translate(579.51953125,132.76171875)"/>
<path d="M0 0 C9.54870894 8.68432793 15.06516514 19.8104678 16.76171875 32.51171875 C12.27972137 33.39540172 7.79574169 34.26788366 3.30957031 35.13012695 C1.78423625 35.42491899 0.25948531 35.72274532 -1.26464844 36.02368164 C-3.45751469 36.456108 -5.65225722 36.8775226 -7.84765625 37.296875 C-8.52697205 37.43327896 -9.20628784 37.56968292 -9.90618896 37.71022034 C-16.12402204 38.87734748 -16.12402204 38.87734748 -19.23828125 37.51171875 C-20.29296875 35.47265625 -20.29296875 35.47265625 -21.11328125 32.88671875 C-23.3474596 26.87162319 -25.84336771 22.49110606 -31.49609375 19.1953125 C-39.2108037 15.72490223 -46.33024138 15.28382173 -54.36328125 17.94921875 C-61.00819154 20.93733879 -65.49086346 25.80921903 -68.5859375 32.3671875 C-74.31251674 47.57648936 -74.71130231 66.47501144 -68.23828125 81.51171875 C-64.95363661 88.15875111 -60.9441875 92.30889786 -54.23828125 95.51171875 C-47.57344967 97.73332928 -38.55796023 97.67975465 -32.078125 94.734375 C-23.80377231 89.2357075 -21.6683366 82.94437096 -18.23828125 73.51171875 C-7.01828125 75.49171875 4.20171875 77.47171875 15.76171875 79.51171875 C17.61647007 86.93072402 13.65560277 94.32536371 9.94921875 100.76171875 C1.03976254 114.61348524 -12.04218694 123.1540172 -28.17578125 126.82421875 C-49.62439546 130.05705336 -70.58082194 127.03081579 -88.37890625 114.2578125 C-103.07922596 101.79539063 -109.92197975 84.96894043 -111.95703125 66.046875 C-113.69342576 44.22136067 -109.28352844 23.36834807 -95.55078125 5.88671875 C-71.81555311 -20.38935626 -26.97498842 -21.33316078 0 0 Z " fill="#000000" transform="translate(714.23828125,133.48828125)"/>
<path d="M0 0 C7.59 0 15.18 0 23 0 C23 7.59 23 15.18 23 23 C26.63 23 30.26 23 34 23 C34 26.63 34 30.26 34 34 C37.63 34 41.26 34 45 34 C45 37.63 45 41.26 45 45 C48.63 45 52.26 45 56 45 C56 48.3 56 51.6 56 55 C48.74 55 41.48 55 34 55 C34 51.37 34 47.74 34 44 C18.82 44 3.64 44 -12 44 C-12 47.63 -12 51.26 -12 55 C-15.63 55 -19.26 55 -23 55 C-23 58.63 -23 62.26 -23 66 C-29.93 66 -36.86 66 -44 66 C-44 62.37 -44 58.74 -44 55 C-47.63 55 -51.26 55 -55 55 C-55 51.37 -55 47.74 -55 44 C-57.475 44.495 -57.475 44.495 -60 45 C-62.42205646 45.0805562 -64.84615605 45.10762899 -67.26953125 45.09765625 C-67.95053391 45.0962413 -68.63153656 45.09482635 -69.33317566 45.09336853 C-71.49299647 45.08780298 -73.65271089 45.07525703 -75.8125 45.0625 C-77.28320162 45.05748054 -78.75390488 45.05291841 -80.22460938 45.04882812 C-83.8164404 45.03784488 -87.4082098 45.02060422 -91 45 C-91 48.3 -91 51.6 -91 55 C-94.96 55 -98.92 55 -103 55 C-103 58.63 -103 62.26 -103 66 C-106.63 66 -110.26 66 -114 66 C-114 58.74 -114 51.48 -114 44 C-110.37 44 -106.74 44 -103 44 C-103 40.7 -103 37.4 -103 34 C-91.45 34 -79.9 34 -68 34 C-68 30.37 -68 26.74 -68 23 C-64.04 23 -60.08 23 -56 23 C-56 26.63 -56 30.26 -56 34 C-48.74 34 -41.48 34 -34 34 C-34 30.04 -34 26.08 -34 22 C-26.41 22 -18.82 22 -11 22 C-11 18.37 -11 14.74 -11 11 C-7.37 11 -3.74 11 0 11 C0 7.37 0 3.74 0 0 Z " fill="#F7D8B6" transform="translate(176,95)"/>
<path d="M0 0 C7.59 0 15.18 0 23 0 C23 3.96 23 7.92 23 12 C34.55 12 46.1 12 58 12 C58 8.04 58 4.08 58 0 C65.59 0 73.18 0 81 0 C81 3.96 81 7.92 81 12 C77.04 12 73.08 12 69 12 C69 15.96 69 19.92 69 24 C65.37 24 61.74 24 58 24 C58 27.63 58 31.26 58 35 C65.26 35 72.52 35 80 35 C80 31.04 80 27.08 80 23 C83.63 23 87.26 23 91 23 C91 30.92 91 38.84 91 47 C75.16 47.495 75.16 47.495 59 48 C58.67 51.63 58.34 55.26 58 59 C54.04 59 50.08 59 46 59 C46 55.04 46 51.08 46 47 C49.63 47 53.26 47 57 47 C57 43.37 57 39.74 57 36 C45.12 36 33.24 36 21 36 C21 32.04 21 28.08 21 24 C17.7 24 14.4 24 11 24 C11 31.59 11 39.18 11 47 C0.5625 47.4375 0.5625 47.4375 -2.73217773 47.56811523 C-4.00750366 47.6252771 -4.00750366 47.6252771 -5.30859375 47.68359375 C-6.62041626 47.73858032 -6.62041626 47.73858032 -7.95874023 47.79467773 C-9.9927402 47.78181066 -9.9927402 47.78181066 -11 49 C-11.23287008 50.68183948 -11.41264166 52.3712416 -11.5625 54.0625 C-11.706875 55.691875 -11.85125 57.32125 -12 59 C-15.63 59 -19.26 59 -23 59 C-23 62.63 -23 66.26 -23 70 C-26.63 70 -30.26 70 -34 70 C-34 66.04 -34 62.08 -34 58 C-30.37 58 -26.74 58 -23 58 C-23 54.37 -23 50.74 -23 47 C-19.37 47 -15.74 47 -12 47 C-12 43.04 -12 39.08 -12 35 C-8.37 35 -4.74 35 -1 35 C-1 31.37 -1 27.74 -1 24 C2.63 24 6.26 24 10 24 C10 20.04 10 16.08 10 12 C6.7 12 3.4 12 0 12 C0 8.04 0 4.08 0 0 Z " fill="#52555F" transform="translate(85,36)"/>
<path d="M0 0 C0 3.63 0 7.26 0 11 C3.63 11 7.26 11 11 11 C11 14.63 11 18.26 11 22 C17.93 22 24.86 22 32 22 C32 18.7 32 15.4 32 12 C35.63 12 39.26 12 43 12 C43.495 31.8 43.495 31.8 44 52 C47.63 52 51.26 52 55 52 C55 55.96 55 59.92 55 64 C51.37 64 47.74 64 44 64 C44 60.7 44 57.4 44 54 C40.37 54 36.74 54 33 54 C33 47.07 33 40.14 33 33 C25.74 33 18.48 33 11 33 C11 39.93 11 46.86 11 54 C7.37 54 3.74 54 0 54 C0 57.3 0 60.6 0 64 C-3.63 64 -7.26 64 -11 64 C-11 60.37 -11 56.74 -11 53 C-7.37 53 -3.74 53 0 53 C0 42.77 0 32.54 0 22 C-3.63 22 -7.26 22 -11 22 C-11 18.7 -11 15.4 -11 12 C-19.25 12 -27.5 12 -36 12 C-36 15.3 -36 18.6 -36 22 C-39.63 22 -43.26 22 -47 22 C-47 18.37 -47 14.74 -47 11 C-43.37 11 -39.74 11 -36 11 C-36 7.7 -36 4.4 -36 1 C-31.67671027 0.85653897 -27.35338673 0.71415641 -23.0300293 0.57275391 C-21.5606186 0.52454468 -20.09121738 0.47604567 -18.62182617 0.42724609 C-16.50441907 0.35697657 -14.38697959 0.28776438 -12.26953125 0.21875 C-10.99698486 0.17685547 -9.72443848 0.13496094 -8.41333008 0.09179688 C-5.60973349 0.01639795 -2.80461029 0 0 0 Z " fill="#0D1621" transform="translate(121,139)"/>
<path d="M0 0 C11.22 0 22.44 0 34 0 C34 3.3 34 6.6 34 10 C37.63 10 41.26 10 45 10 C45 20.23 45 30.46 45 41 C41.37 41 37.74 41 34 41 C34 44.3 34 47.6 34 51 C26.41 51 18.82 51 11 51 C11 47.37 11 43.74 11 40 C7.37 40 3.74 40 0 40 C0 26.8 0 13.6 0 0 Z " fill="#F5DEC0" transform="translate(165,151)"/>
<path d="M0 0 C7.59 0 15.18 0 23 0 C23 3.63 23 7.26 23 11 C15.74 11.33 8.48 11.66 1 12 C0.67 15.3 0.34 18.6 0 22 C-7.39132968 22.8695682 -14.55657778 23.08655142 -22 23 C-22 26.63 -22 30.26 -22 34 C-25.63 34 -29.26 34 -33 34 C-33 37.3 -33 40.6 -33 44 C-52.35227047 44.87893524 -71.63276839 45.12714575 -91 45 C-91 48.3 -91 51.6 -91 55 C-94.96 55 -98.92 55 -103 55 C-103 58.63 -103 62.26 -103 66 C-106.63 66 -110.26 66 -114 66 C-114 58.74 -114 51.48 -114 44 C-110.37 44 -106.74 44 -103 44 C-103 40.7 -103 37.4 -103 34 C-91.45 34 -79.9 34 -68 34 C-68 30.37 -68 26.74 -68 23 C-64.04 23 -60.08 23 -56 23 C-56 26.63 -56 30.26 -56 34 C-48.74 34 -41.48 34 -34 34 C-34 30.04 -34 26.08 -34 22 C-26.41 22 -18.82 22 -11 22 C-11 18.37 -11 14.74 -11 11 C-7.37 11 -3.74 11 0 11 C0 7.37 0 3.74 0 0 Z " fill="#D29079" transform="translate(176,95)"/>
<path d="M0 0 C10.56 0 21.12 0 32 0 C32 7.26 32 14.52 32 22 C35.63 22 39.26 22 43 22 C43 28.6 43 35.2 43 42 C35.74 42 28.48 42 21 42 C21 38.7 21 35.4 21 32 C14.07 32 7.14 32 0 32 C0 21.44 0 10.88 0 0 Z " fill="#F3C7A4" transform="translate(30,171)"/>
<path d="M0 0 C7.92 0 15.84 0 24 0 C24 3.3 24 6.6 24 10 C19.71 10 15.42 10 11 10 C11 20.23 11 30.46 11 41 C15.29 41 19.58 41 24 41 C24 44.3 24 47.6 24 51 C16.08 51 8.16 51 0 51 C0 47.7 0 44.4 0 41 C-3.96 41 -7.92 41 -12 41 C-12 31.1 -12 21.2 -12 11 C-8.04 11 -4.08 11 0 11 C0 7.37 0 3.74 0 0 Z " fill="#F5E1C8" transform="translate(85,151)"/>
<path d="M0 0 C0.33 0 0.66 0 1 0 C1 3.3 1 6.6 1 10 C4.63 10 8.26 10 12 10 C12 20.23 12 30.46 12 41 C8.37 41 4.74 41 1 41 C1 47.93 1 54.86 1 62 C-7.25 62 -15.5 62 -24 62 C-24 58.37 -24 54.74 -24 51 C-16.08 51 -8.16 51 0 51 C0 47.7 0 44.4 0 41 C-4.29 41 -8.58 41 -13 41 C-13 30.77 -13 20.54 -13 10 C-8.71 10 -4.42 10 0 10 C0 6.7 0 3.4 0 0 Z " fill="#F5E0C7" transform="translate(109,151)"/>
<path d="M0 0 C3.63 0 7.26 0 11 0 C11 3.63 11 7.26 11 11 C14.63 11 18.26 11 22 11 C22 7.37 22 3.74 22 0 C25.63 0 29.26 0 33 0 C33 7.59 33 15.18 33 23 C29.37 23 25.74 23 22 23 C22 30.59 22 38.18 22 46 C18.37 46 14.74 46 11 46 C11 42.04 11 38.08 11 34 C7.37 34 3.74 34 0 34 C0 22.78 0 11.56 0 0 Z " fill="#29333E" transform="translate(210,72)"/>
<path d="M0 0 C3.63 0 7.26 0 11 0 C12.28317892 3.84953676 12.06643637 6.94738135 12 11 C8.37 11 4.74 11 1 11 C1 14.63 1 18.26 1 22 C-2.63 22 -6.26 22 -10 22 C-10 25.63 -10 29.26 -10 33 C-13.96 33 -17.92 33 -22 33 C-22 36.96 -22 40.92 -22 45 C-25.63 45 -29.26 45 -33 45 C-33 46.65 -33 48.3 -33 50 C-48.18 50 -63.36 50 -79 50 C-79 48.35 -79 46.7 -79 45 C-82.63 45 -86.26 45 -90 45 C-90 41.04 -90 37.08 -90 33 C-86.04 33 -82.08 33 -78 33 C-78 36.63 -78 40.26 -78 44 C-63.48 44 -48.96 44 -34 44 C-34 40.37 -34 36.74 -34 33 C-30.37 33 -26.74 33 -23 33 C-23 29.04 -23 25.08 -23 21 C-19.04 21 -15.08 21 -11 21 C-11 17.37 -11 13.74 -11 10 C-7.37 10 -3.74 10 0 10 C0 6.7 0 3.4 0 0 Z " fill="#111721" transform="translate(199,247)"/>
<path d="M0 0 C7.59 0 15.18 0 23 0 C23.0229132 4.25421714 23.04283889 8.50822157 23.05493164 12.76245117 C23.05997101 14.21070073 23.06680253 15.65894517 23.07543945 17.10717773 C23.08752247 19.18474588 23.09323211 21.26224697 23.09765625 23.33984375 C23.10289307 24.59144287 23.10812988 25.84304199 23.11352539 27.13256836 C23 30 23 30 22 31 C18.66381769 31.14257189 15.34024394 31.04228157 12 31 C12 34.3 12 37.6 12 41 C4.74 41 -2.52 41 -10 41 C-10 48.26 -10 55.52 -10 63 C-13.63 63 -17.26 63 -21 63 C-21 59.37 -21 55.74 -21 52 C-17.7 52 -14.4 52 -11 52 C-11 48.04 -11 44.08 -11 40 C-7.37 40 -3.74 40 0 40 C0 26.8 0 13.6 0 0 Z " fill="#CC8672" transform="translate(231,172)"/>
<path d="M0 0 C0.33 0 0.66 0 1 0 C1 10.23 1 20.46 1 31 C8.26 31 15.52 31 23 31 C23 34.3 23 37.6 23 41 C30.26 41 37.52 41 45 41 C45 48.92 45 56.84 45 65 C41.37 65 37.74 65 34 65 C34 61.04 34 57.08 34 53 C30.04 53 26.08 53 22 53 C22 49.37 22 45.74 22 42 C14.74 42 7.48 42 0 42 C0 38.7 0 35.4 0 32 C-2.64 32 -5.28 32 -8 32 C-8 29.36 -8 26.72 -8 24 C-7.67 24 -7.34 24 -7 24 C-7 25.98 -7 27.96 -7 30 C-4.69 30 -2.38 30 0 30 C0 20.1 0 10.2 0 0 Z " fill="#0F1824" transform="translate(28,172)"/>
<path d="M0 0 C0.33 0 0.66 0 1 0 C1 11.55 1 23.1 1 35 C-9.4375 35.4375 -9.4375 35.4375 -12.73217773 35.56811523 C-14.00750366 35.6252771 -14.00750366 35.6252771 -15.30859375 35.68359375 C-16.62041626 35.73858032 -16.62041626 35.73858032 -17.95874023 35.79467773 C-19.9927402 35.78181066 -19.9927402 35.78181066 -21 37 C-21.23287008 38.68183948 -21.41264166 40.3712416 -21.5625 42.0625 C-21.706875 43.691875 -21.85125 45.32125 -22 47 C-25.63 47 -29.26 47 -33 47 C-33 50.63 -33 54.26 -33 58 C-36.63 58 -40.26 58 -44 58 C-44 54.04 -44 50.08 -44 46 C-40.37 46 -36.74 46 -33 46 C-33 42.37 -33 38.74 -33 35 C-29.37 35 -25.74 35 -22 35 C-22 31.04 -22 27.08 -22 23 C-18.37 23 -14.74 23 -11 23 C-11 19.37 -11 15.74 -11 12 C-7.37 12 -3.74 12 0 12 C0 8.04 0 4.08 0 0 Z " fill="#343B45" transform="translate(95,48)"/>
<path d="M0 0 C3.3 0 6.6 0 10 0 C10 13.2 10 26.4 10 40 C3.4 40 -3.2 40 -10 40 C-10 33.73 -10 27.46 -10 21 C-6.7 21 -3.4 21 0 21 C0 14.07 0 7.14 0 0 Z " fill="#F1C6A3" transform="translate(221,172)"/>
<path d="M0 0 C3.41158256 1.13719419 4.11854601 2.04342944 6 5 C6 5.66 6 6.32 6 7 C4.1350189 8.54076588 2.27421549 9.96753238 0.3125 11.375 C-4.29865159 14.74139948 -4.29865159 14.74139948 -8.76953125 18.2890625 C-11 20 -11 20 -13 20 C-13 20.66 -13 21.32 -13 22 C-27.19 22 -41.38 22 -56 22 C-56 19.03 -56 16.06 -56 13 C-54.87207031 13.03254883 -53.74414062 13.06509766 -52.58203125 13.09863281 C-48.31728395 13.2051483 -44.05503132 13.22968044 -39.7890625 13.23193359 C-37.95806474 13.24379405 -36.12705857 13.27664868 -34.296875 13.33251953 C-20.84539576 13.7233794 -13.17640933 11.52344821 -3.0546875 2.48339844 C-2.04664063 1.66387695 -1.03859375 0.84435547 0 0 Z " fill="#1B2129" transform="translate(174,230)"/>
<path d="M0 0 C7.59 0 15.18 0 23 0 C23 3.63 23 7.26 23 11 C15.74 11.33 8.48 11.66 1 12 C0.67 15.3 0.34 18.6 0 22 C-7.39132968 22.8695682 -14.55657778 23.08655142 -22 23 C-22 26.63 -22 30.26 -22 34 C-25.96 34 -29.92 34 -34 34 C-34 30.04 -34 26.08 -34 22 C-26.41 22 -18.82 22 -11 22 C-11 18.37 -11 14.74 -11 11 C-7.37 11 -3.74 11 0 11 C0 7.37 0 3.74 0 0 Z " fill="#B6816C" transform="translate(176,95)"/>
<path d="M0 0 C0 0.33 0 0.66 0 1 C-3.63 1 -7.26 1 -11 1 C-11 4.63 -11 8.26 -11 12 C-25.52 12 -40.04 12 -55 12 C-55 8.37 -55 4.74 -55 1 C-36.65849264 0.31691692 -18.35747468 -0.17024338 0 0 Z " fill="#D8A186" transform="translate(176,279)"/>
<path d="M0 0 C-0.33 3.63 -0.66 7.26 -1 11 C-12.88 11 -24.76 11 -37 11 C-38.26237731 8.47524538 -38.09856404 6.68799534 -38.0625 3.875 C-38.05347656 2.96492188 -38.04445313 2.05484375 -38.03515625 1.1171875 C-38.02355469 0.41851562 -38.01195313 -0.28015625 -38 -1 C-34.0353325 -1.19441048 -30.07027793 -1.37275396 -26.10424805 -1.53710938 C-24.10233083 -1.62328541 -22.10095133 -1.72167564 -20.09960938 -1.8203125 C-12.98620009 -2.10699902 -6.85601842 -1.9717638 0 0 Z " fill="#111B26" transform="translate(122,14)"/>
<path d="M0 0 C4.29 0 8.58 0 13 0 C13 9.9 13 19.8 13 30 C8.71 30 4.42 30 0 30 C0 20.1 0 10.2 0 0 Z " fill="#111925" transform="translate(176,161)"/>
<path d="M0 0 C4.29 0 8.58 0 13 0 C13 9.9 13 19.8 13 30 C8.71 30 4.42 30 0 30 C0 20.1 0 10.2 0 0 Z " fill="#0F1620" transform="translate(96,162)"/>
<path d="M0 0 C3.96 0 7.92 0 12 0 C12 10.23 12 20.46 12 31 C8.04 31 4.08 31 0 31 C0 20.77 0 10.54 0 0 Z " fill="#F5DBBB" transform="translate(30,172)"/>
<path d="M0 0 C3.96 0 7.92 0 12 0 C12.02465622 4.25414623 12.04283899 8.50825498 12.05493164 12.76245117 C12.05997101 14.21070073 12.06680253 15.65894517 12.07543945 17.10717773 C12.08752247 19.18474588 12.09323211 21.26224697 12.09765625 23.33984375 C12.10289307 24.59144287 12.10812988 25.84304199 12.11352539 27.13256836 C12 30 12 30 11 31 C7.37 31 3.74 31 0 31 C0 20.77 0 10.54 0 0 Z " fill="#F4DCBD" transform="translate(242,172)"/>
<path d="M0 0 C11.22 0 22.44 0 34 0 C34 1.65 34 3.3 34 5 C33.505 3.515 33.505 3.515 33 2 C22.44 1.67 11.88 1.34 1 1 C1.33 4.3 1.66 7.6 2 11 C6.455 10.505 6.455 10.505 11 10 C11 19.9 11 29.8 11 40 C7.37 40 3.74 40 0 40 C0 26.8 0 13.6 0 0 Z " fill="#F6E4CC" transform="translate(165,151)"/>
<path d="M0 0 C3.63 0 7.26 0 11 0 C11 3.63 11 7.26 11 11 C14.63 11 18.26 11 22 11 C22 14.3 22 17.6 22 21 C14.74 21 7.48 21 0 21 C0 14.07 0 7.14 0 0 Z " fill="#CF9784" transform="translate(210,129)"/>
<path d="M0 0 C6.93 0 13.86 0 21 0 C21 2.97 21 5.94 21 9 C17.37 9 13.74 9 10 9 C10 12.96 10 16.92 10 21 C6.37 21 2.74 21 -1 21 C-1.09251406 13.7839031 -0.72724344 7.27243436 0 0 Z " fill="#EFD6C0" transform="translate(63,140)"/>
<path d="M0 0 C10.56 0 21.12 0 32 0 C32 0.33 32 0.66 32 1 C28.37 1 24.74 1 21 1 C21 11.23 21 21.46 21 32 C18.03 32 15.06 32 12 32 C12 21.77 12 11.54 12 1 C8.04 1 4.08 1 0 1 C0 0.67 0 0.34 0 0 Z " fill="#C27D6F" transform="translate(30,171)"/>
<path d="M0 0 C4.29 0 8.58 0 13 0 C13 3.96 13 7.92 13 12 C16.63 12 20.26 12 24 12 C24 15.63 24 19.26 24 23 C20.04 23 16.08 23 12 23 C12 19.7 12 16.4 12 13 C8.04 13 4.08 13 0 13 C0 8.71 0 4.42 0 0 Z " fill="#131D28" transform="translate(72,246)"/>
<path d="M0 0 C0 3.3 0 6.6 0 10 C3.3 10.33 6.6 10.66 10 11 C10 7.37 10 3.74 10 0 C10.33 0 10.66 0 11 0 C11 3.96 11 7.92 11 12 C-0.55 12 -12.1 12 -24 12 C-24 8.37 -24 4.74 -24 1 C-15.96108096 0.23438866 -8.07351654 -0.12883271 0 0 Z " fill="#212934" transform="translate(132,36)"/>
<path d="M0 0 C3.63 0 7.26 0 11 0 C11 7.92 11 15.84 11 24 C7.37 24 3.74 24 0 24 C0 16.08 0 8.16 0 0 Z " fill="#28343E" transform="translate(165,59)"/>
<path d="M0 0 C7.59 0 15.18 0 23 0 C23 3.63 23 7.26 23 11 C15.41 11.33 7.82 11.66 0 12 C0 8.04 0 4.08 0 0 Z " fill="#DC967B" transform="translate(176,95)"/>
<path d="M0 0 C8.25 0 16.5 0 25 0 C25 3.3 25 6.6 25 10 C16.75 10 8.5 10 0 10 C0 6.7 0 3.4 0 0 Z " fill="#09121B" transform="translate(85,203)"/>
<path d="M0 0 C3.96 0 7.92 0 12 0 C12 0.33 12 0.66 12 1 C8.37 1 4.74 1 1 1 C1 4.63 1 8.26 1 12 C2.98 12 4.96 12 7 12 C7 12.33 7 12.66 7 13 C5.02 13 3.04 13 1 13 C1.08378906 13.73863281 1.16757813 14.47726563 1.25390625 15.23828125 C1.96942383 22.36628554 1.84240249 28.88637901 1 36 C-2.96 36 -6.92 36 -11 36 C-11 32.04 -11 28.08 -11 24 C-7.37 24 -3.74 24 0 24 C0 20.37 0 16.74 0 13 C-11.88 13 -23.76 13 -36 13 C-36 9.04 -36 5.08 -36 1 C-35.67 1 -35.34 1 -35 1 C-35 4.63 -35 8.26 -35 12 C-23.45 12 -11.9 12 0 12 C0 8.04 0 4.08 0 0 Z " fill="#28303A" transform="translate(142,59)"/>
<path d="M0 0 C7.59 0 15.18 0 23 0 C23 3.3 23 6.6 23 10 C15.41 10 7.82 10 0 10 C0 6.7 0 3.4 0 0 Z " fill="#07101C" transform="translate(176,203)"/>
<path d="M0 0 C0.33 0 0.66 0 1 0 C1 3.3 1 6.6 1 10 C4.63 10 8.26 10 12 10 C12 17.26 12 24.52 12 32 C8.04 32 4.08 32 0 32 C0 28.7 0 25.4 0 22 C-3.63 22 -7.26 22 -11 22 C-11 21.67 -11 21.34 -11 21 C-3.74 21 3.52 21 11 21 C11 17.7 11 14.4 11 11 C7.37 11 3.74 11 0 11 C0 7.37 0 3.74 0 0 Z " fill="#694A4B" transform="translate(221,129)"/>
<path d="M0 0 C3.96 0 7.92 0 12 0 C12 0.33 12 0.66 12 1 C8.7 1.33 5.4 1.66 2 2 C2.020625 3.27875 2.04125 4.5575 2.0625 5.875 C2.07060302 10.97179862 1.57043194 15.93741658 1 21 C-2.63 21 -6.26 21 -10 21 C-10.33 17.7 -10.66 14.4 -11 11 C-7.37 11 -3.74 11 0 11 C0 7.37 0 3.74 0 0 Z " fill="#0B111C" transform="translate(176,269)"/>
<path d="M0 0 C4.29 0 8.58 0 13 0 C13 3.63 13 7.26 13 11 C8.71 11 4.42 11 0 11 C0 7.37 0 3.74 0 0 Z " fill="#0C151F" transform="translate(96,269)"/>
<path d="M0 0 C7.26 0 14.52 0 22 0 C22 0.33 22 0.66 22 1 C18.37 1 14.74 1 11 1 C11 4.63 11 8.26 11 12 C7.37 12 3.74 12 0 12 C0 8.04 0 4.08 0 0 Z " fill="#2A333F" transform="translate(51,94)"/>
<path d="M0 0 C0.33 0 0.66 0 1 0 C1 7.59 1 15.18 1 23 C4.3 23 7.6 23 11 23 C11 26.3 11 29.6 11 33 C7.04 33 3.08 33 -1 33 C-0.67 22.11 -0.34 11.22 0 0 Z " fill="#AD7664" transform="translate(73,213)"/>
<path d="M0 0 C3.63 0 7.26 0 11 0 C11 4.29 11 8.58 11 13 C7.37 13 3.74 13 0 13 C0 8.71 0 4.42 0 0 Z " fill="#303A44" transform="translate(62,58)"/>
<path d="M0 0 C2.83203125 0.03255208 5.6640625 0.06510417 8.49609375 0.09765625 C8.49609375 3.72765625 8.49609375 7.35765625 8.49609375 11.09765625 C2.06109375 11.59265625 2.06109375 11.59265625 -4.50390625 12.09765625 C-3.54164549 0.1381297 -3.54164549 0.1381297 0 0 Z " fill="#3B4550" transform="translate(42.50390625,71.90234375)"/>
<path d="M0 0 C3.96 0 7.92 0 12 0 C12 3.63 12 7.26 12 11 C8.04 11 4.08 11 0 11 C0 7.37 0 3.74 0 0 Z " fill="#0A0F1A" transform="translate(73,192)"/>
<path d="M0 0 C14.85 0 29.7 0 45 0 C45 0.33 45 0.66 45 1 C30.48 1 15.96 1 1 1 C1 4.3 1 7.6 1 11 C12.22 11 23.44 11 35 11 C35 11.33 35 11.66 35 12 C23.78 12 12.56 12 1 12 C1 21.9 1 31.8 1 42 C0.67 42 0.34 42 0 42 C0 32.1 0 22.2 0 12 C-3.63 12 -7.26 12 -11 12 C-11 11.67 -11 11.34 -11 11 C-7.37 11 -3.74 11 0 11 C0 7.37 0 3.74 0 0 Z " fill="#645E58" transform="translate(164,139)"/>
<path d="M0 0 C4.62 0 9.24 0 14 0 C13.67 3.96 13.34 7.92 13 12 C9.37 12 5.74 12 2 12 C1.77213542 9.4609375 1.54427083 6.921875 1.31640625 4.3828125 C1.13010715 1.98889139 1.13010715 1.98889139 0 0 Z " fill="#151F2A" transform="translate(176,268)"/>
<path d="M0 0 C3.96 0 7.92 0 12 0 C11.67 3.63 11.34 7.26 11 11 C7.37 11 3.74 11 0 11 C0 7.37 0 3.74 0 0 Z " fill="#0A131D" transform="translate(109,280)"/>
<path d="M0 0 C3.63 0 7.26 0 11 0 C11 3.3 11 6.6 11 10 C9.35 10 7.7 10 6 10 C6 10.66 6 11.32 6 12 C3.69 12 1.38 12 -1 12 C-1.02698189 10.37509046 -1.04638757 8.75005367 -1.0625 7.125 C-1.07410156 6.22007812 -1.08570313 5.31515625 -1.09765625 4.3828125 C-1 2 -1 2 0 0 Z " fill="#1D2631" transform="translate(51,213)"/>
<path d="M0 0 C3.63 0 7.26 0 11 0 C11 3.63 11 7.26 11 11 C7.37 11 3.74 11 0 11 C0 7.37 0 3.74 0 0 Z " fill="#714A4C" transform="translate(51,150)"/>
<path d="M0 0 C3.63 0 7.26 0 11 0 C11 3.63 11 7.26 11 11 C7.37 11 3.74 11 0 11 C0 7.37 0 3.74 0 0 Z " fill="#D49077" transform="translate(199,118)"/>
<path d="M0 0 C3.63 0 7.26 0 11 0 C11 3.63 11 7.26 11 11 C7.37 11 3.74 11 0 11 C0 7.37 0 3.74 0 0 Z " fill="#CD8D76" transform="translate(143,118)"/>
<path d="M0 0 C3.63 0 7.26 0 11 0 C11 3.63 11 7.26 11 11 C3.28515625 11.09765625 3.28515625 11.09765625 1 11 C0 10 0 10 -0.09765625 7.71484375 C-0.06510417 5.14322917 -0.03255208 2.57161458 0 0 Z " fill="#0A1522" transform="translate(85,258)"/>
<path d="M0 0 C3.63 0 7.26 0 11 0 C11 12.54 11 25.08 11 38 C10.67 38 10.34 38 10 38 C10 28.1 10 18.2 10 8 C7.03 8 4.06 8 1 8 C0.67 8.66 0.34 9.32 0 10 C0 6.7 0 3.4 0 0 Z " fill="#060C15" transform="translate(153,151)"/>
<path d="M0 0 C0.33 0 0.66 0 1 0 C1.16972821 4.35558768 1.33002215 8.71139832 1.48217773 13.06762695 C1.53502452 14.54460623 1.5902962 16.02150108 1.64819336 17.49829102 C1.98317441 26.08837023 2.01293239 34.4388455 1 43 C-2.3 42.34 -5.6 41.68 -9 41 C-9 38.36 -9 35.72 -9 33 C-6.36 33 -3.72 33 -1 33 C-0.67 22.11 -0.34 11.22 0 0 Z " fill="#28303B" transform="translate(254,172)"/>
<path d="M0 0 C6.93359375 -0.09765625 6.93359375 -0.09765625 9 0 C10 1 10 1 10.09765625 3.50390625 C10.08605469 4.51324219 10.07445312 5.52257812 10.0625 6.5625 C10.05347656 7.57441406 10.04445312 8.58632812 10.03515625 9.62890625 C10.02355469 10.41136719 10.01195312 11.19382813 10 12 C2.25 12.125 2.25 12.125 0 11 C0 7.37 0 3.74 0 0 Z " fill="#0F1723" transform="translate(211,236)"/>
<path d="M0 0 C3.3 0 6.6 0 10 0 C10.33 3.63 10.66 7.26 11 11 C7.37 11 3.74 11 0 11 C0 7.37 0 3.74 0 0 Z " fill="#424954" transform="translate(132,84)"/>
<path d="M0 0 C3.63 0.33 7.26 0.66 11 1 C11 4.3 11 7.6 11 11 C7.37 11 3.74 11 0 11 C0 7.37 0 3.74 0 0 Z " fill="#4B535F" transform="translate(62,83)"/>
<path d="M0 0 C0.33 0 0.66 0 1 0 C1 9.24 1 18.48 1 28 C3.64 28 6.28 28 9 28 C9 19.09 9 10.18 9 1 C7.35 1 5.7 1 4 1 C4 0.67 4 0.34 4 0 C6.31 0 8.62 0 11 0 C11 9.9 11 19.8 11 30 C7.37 30 3.74 30 0 30 C0 20.1 0 10.2 0 0 Z " fill="#F9EAD5" transform="translate(110,162)"/>
<path d="M0 0 C3.63 0 7.26 0 11 0 C11 3.3 11 6.6 11 10 C7.37 10 3.74 10 0 10 C0 6.7 0 3.4 0 0 Z " fill="#0F141E" transform="translate(199,192)"/>
<path d="M0 0 C3.63 0 7.26 0 11 0 C11 3.3 11 6.6 11 10 C7.37 10 3.74 10 0 10 C0 6.7 0 3.4 0 0 Z " fill="#D18870" transform="translate(221,140)"/>
<path d="M0 0 C3.3 0 6.6 0 10 0 C10 3.63 10 7.26 10 11 C6.7 11 3.4 11 0 11 C0 7.37 0 3.74 0 0 Z " fill="#F9DBBD" transform="translate(211,139)"/>
<path d="M0 0 C3.63 0 7.26 0 11 0 C11 3.3 11 6.6 11 10 C7.37 10 3.74 10 0 10 C0 6.7 0 3.4 0 0 Z " fill="#2A343F" transform="translate(51,118)"/>
<path d="M0 0 C3.3 0 6.6 0 10 0 C10 3.63 10 7.26 10 11 C6.7 11 3.4 11 0 11 C0 7.37 0 3.74 0 0 Z " fill="#333C46" transform="translate(232,72)"/>
<path d="M0 0 C3.3 0 6.6 0 10 0 C10 3.63 10 7.26 10 11 C6.7 11 3.4 11 0 11 C0 7.37 0 3.74 0 0 Z " fill="#2D3744" transform="translate(221,60)"/>
<path d="M0 0 C3.3 0 6.6 0 10 0 C10 3.63 10 7.26 10 11 C6.7 11 3.4 11 0 11 C0 7.37 0 3.74 0 0 Z " fill="#525462" transform="translate(165,60)"/>
<path d="M0 0 C0.33 0 0.66 0 1 0 C1 3.3 1 6.6 1 10 C4.63 10 8.26 10 12 10 C12 10.33 12 10.66 12 11 C8.37 11 4.74 11 1 11 C1 24.53 1 38.06 1 52 C-7.25 52 -15.5 52 -24 52 C-24 51.67 -24 51.34 -24 51 C-16.08 51 -8.16 51 0 51 C0 37.8 0 24.6 0 11 C-4.29 11 -8.58 11 -13 11 C-13 10.67 -13 10.34 -13 10 C-8.71 10 -4.42 10 0 10 C0 6.7 0 3.4 0 0 Z " fill="#8D8782" transform="translate(109,151)"/>
<path d="M0 0 C3.63 0 7.26 0 11 0 C11 2.97 11 5.94 11 9 C7.37 9 3.74 9 0 9 C0 6.03 0 3.06 0 0 Z " fill="#F7E4CA" transform="translate(73,140)"/>
<path d="M0 0 C3.63 0 7.26 0 11 0 C11 7.59 11 15.18 11 23 C10.67 23 10.34 23 10 23 C10 16.07 10 9.14 10 2 C7.36 2 4.72 2 2 2 C2 9.26 2 16.52 2 24 C1.34 24 0.68 24 0 24 C0 20.04 0 16.08 0 12 C-1.65 12 -3.3 12 -5 12 C-5 11.34 -5 10.68 -5 10 C-3.35 10 -1.7 10 0 10 C0 6.7 0 3.4 0 0 Z " fill="#0B0F15" transform="translate(62,213)"/>
<path d="M0 0 C-0.33 3.3 -0.66 6.6 -1 10 C-4.63 10.33 -8.26 10.66 -12 11 C-11.01 10.67 -10.02 10.34 -9 10 C-9 6.7 -9 3.4 -9 0 C-5.32431536 -0.91892116 -3.83619425 -0.95904856 0 0 Z " fill="#717A80" transform="translate(72,25)"/>
<path d="M0 0 C2.97 0 5.94 0 9 0 C10.25 7.625 10.25 7.625 8 11 C5.36 10.67 2.72 10.34 0 10 C0 6.7 0 3.4 0 0 Z " fill="#252B34" transform="translate(20,97)"/>
<path d="M0 0 C3.63 0 7.26 0 11 0 C10.67 1.32 10.34 2.64 10 4 C10 3.34 10 2.68 10 2 C7.36 2 4.72 2 2 2 C2 4.64 2 7.28 2 10 C3.98 10 5.96 10 8 10 C8 10.33 8 10.66 8 11 C-13.85368537 12.78657866 -13.85368537 12.78657866 -21 11 C-21 14.3 -21 17.6 -21 21 C-21.33 21 -21.66 21 -22 21 C-22 17.37 -22 13.74 -22 10 C-14.74 10 -7.48 10 0 10 C0 6.7 0 3.4 0 0 Z " fill="#0D111C" transform="translate(243,203)"/>
<path d="M0 0 C0 2.64 0 5.28 0 8 C-2.95664519 9.4783226 -5.74229737 9.06032783 -9 9 C-9 6.03 -9 3.06 -9 0 C-3.375 -1.125 -3.375 -1.125 0 0 Z " fill="#0F1B2A" transform="translate(39,205)"/>
<path d="M0 0 C2.97 0 5.94 0 9 0 C9 2.64 9 5.28 9 8 C6.03 8 3.06 8 0 8 C0 5.36 0 2.72 0 0 Z " fill="#D89B81" transform="translate(64,141)"/>
<path d="M0 0 C0.33 0.66 0.66 1.32 1 2 C-1.75924185 3.80411967 -2.88972103 4.0127245 -6.25 3.625 C-7.1575 3.41875 -8.065 3.2125 -9 3 C-8.7525 3.721875 -8.505 4.44375 -8.25 5.1875 C-8 8 -8 8 -9.5625 10.8125 C-12 13 -12 13 -15.25 13.3125 C-16.1575 13.209375 -17.065 13.10625 -18 13 C-18 12.67 -18 12.34 -18 12 C-16.35 12 -14.7 12 -13 12 C-13 8.37 -13 4.74 -13 1 C-6.565 0.505 -6.565 0.505 0 0 Z " fill="#4A555D" transform="translate(84,23)"/>
<path d="M0 0 C3.63 0 7.26 0 11 0 C11 0.33 11 0.66 11 1 C8.03 1 5.06 1 2 1 C2 3.64 2 6.28 2 9 C4.31 9 6.62 9 9 9 C9 6.69 9 4.38 9 2 C11.05164237 5.46214649 11 6.59389235 11 11 C7.37 11 3.74 11 0 11 C0 7.37 0 3.74 0 0 Z " fill="#0D1017" transform="translate(165,192)"/>
<path d="M0 0 C0.0270043 1.45823212 0.04639787 2.91660675 0.0625 4.375 C0.07410156 5.18710938 0.08570313 5.99921875 0.09765625 6.8359375 C0 9 0 9 -1 11 C-11.89 11 -22.78 11 -34 11 C-34 10.67 -34 10.34 -34 10 C-23.44 10 -12.88 10 -2 10 C-2 7.36 -2 4.72 -2 2 C-3.98 2 -5.96 2 -8 2 C-8 1.67 -8 1.34 -8 1 C-2.25 0 -2.25 0 0 0 Z " fill="#000615" transform="translate(255,160)"/>
<path d="M0 0 C0.33 0 0.66 0 1 0 C1 4.95 1 9.9 1 15 C4.3 15 7.6 15 11 15 C11 15.33 11 15.66 11 16 C7.7 16 4.4 16 1 16 C1 16.66 1 17.32 1 18 C0.34 18 -0.32 18 -1 18 C-1.02684312 15.18743719 -1.04676188 12.37512759 -1.0625 9.5625 C-1.07087891 8.76005859 -1.07925781 7.95761719 -1.08789062 7.13085938 C-1.0965143 5.08704779 -1.0522815 3.04316098 -1 1 C-0.67 0.67 -0.34 0.34 0 0 Z " fill="#050B16" transform="translate(29,112)"/>
<path d="M0 0 C0.33 0 0.66 0 1 0 C1.7938642 7.21805755 2.07875823 13.80827843 1 21 C0.67 21 0.34 21 0 21 C0 18.03 0 15.06 0 12 C-3.3 12 -6.6 12 -10 12 C-10 15.63 -10 19.26 -10 23 C-10.33 23 -10.66 23 -11 23 C-11 19.04 -11 15.08 -11 11 C-7.37 11 -3.74 11 0 11 C0 7.37 0 3.74 0 0 Z " fill="#313944" transform="translate(142,72)"/>
<path d="M0 0 C0.66 0 1.32 0 2 0 C2 3.3 2 6.6 2 10 C-1.96 10 -5.92 10 -10 10 C-9.67 9.34 -9.34 8.68 -9 8 C-6.03 8 -3.06 8 0 8 C0 5.36 0 2.72 0 0 Z " fill="#C18572" transform="translate(241,203)"/>
<path d="M0 0 C0.33 1.32 0.66 2.64 1 4 C1.59425781 3.91621094 2.18851563 3.83242187 2.80078125 3.74609375 C9.36023755 2.94018854 15.45052889 3.19065471 22 4 C22 4.33 22 4.66 22 5 C14.63959083 5.79725902 7.40239645 6.12886183 0 6 C0 4.02 0 2.04 0 0 Z " fill="#282325" transform="translate(154,187)"/>
<path d="M0 0 C0.33 0 0.66 0 1 0 C1 5.94 1 11.88 1 18 C-1.97 18 -4.94 18 -8 18 C-8 17.34 -8 16.68 -8 16 C-5.69 16 -3.38 16 -1 16 C-0.67 10.72 -0.34 5.44 0 0 Z " fill="#0C2532" transform="translate(72,175)"/>
<path d="M0 0 C0.33 0 0.66 0 1 0 C1.19672365 1.72814161 1.38196799 3.45759197 1.5625 5.1875 C1.66691406 6.15042969 1.77132812 7.11335938 1.87890625 8.10546875 C1.99758751 10.94233377 1.67765639 13.25423671 1 16 C0.67 16 0.34 16 0 16 C0 14.35 0 12.7 0 11 C-3.63 11 -7.26 11 -11 11 C-11 10.67 -11 10.34 -11 10 C-7.37 10 -3.74 10 0 10 C0 6.7 0 3.4 0 0 Z " fill="#48393A" transform="translate(120,281)"/>
<path d="M0 0 C0 2.97 0 5.94 0 9 C-0.99 9.495 -0.99 9.495 -2 10 C-2 7.36 -2 4.72 -2 2 C-3.98 2 -5.96 2 -8 2 C-8 1.67 -8 1.34 -8 1 C-2.25 0 -2.25 0 0 0 Z " fill="#040F19" transform="translate(255,160)"/>
<path d="M0 0 C2.64 0.33 5.28 0.66 8 1 C8 1.33 8 1.66 8 2 C6.02 2 4.04 2 2 2 C2.20625 3.093125 2.4125 4.18625 2.625 5.3125 C3 9 3 9 1 12 C0.67 8.04 0.34 4.08 0 0 Z " fill="#0E151C" transform="translate(39,48)"/>
<path d="M0 0 C0.33 0 0.66 0 1 0 C1.25 5.625 1.25 5.625 -1 9 C-4.125 9.1875 -4.125 9.1875 -7 9 C-7 8.67 -7 8.34 -7 8 C-5.35 8 -3.7 8 -2 8 C-2.04125 7.05125 -2.0825 6.1025 -2.125 5.125 C-2 2 -2 2 0 0 Z " fill="#59636C" transform="translate(73,27)"/>
<path d="M0 0 C0.66 0 1.32 0 2 0 C2 3.3 2 6.6 2 10 C-0.97 9.67 -3.94 9.34 -7 9 C-7 8.67 -7 8.34 -7 8 C-3.535 7.505 -3.535 7.505 0 7 C0 4.69 0 2.38 0 0 Z " fill="#FDE5C2" transform="translate(208,129)"/>
<path d="M0 0 C2.09749995 2.35968744 2.96905704 3.54616994 3.1875 6.75 C3.0946875 7.86375 3.0946875 7.86375 3 9 C2.01 9 1.02 9 0 9 C0 6.03 0 3.06 0 0 Z " fill="#FDE8C3" transform="translate(63,150)"/>
<path d="M0 0 C0.66 0 1.32 0 2 0 C2 0.66 2 1.32 2 2 C1.01 2.33 0.02 2.66 -1 3 C-0.67 2.01 -0.34 1.02 0 0 Z " fill="#D2D5EA" transform="translate(234,39)"/>
<path d="" fill="#FFFFFF" transform="translate(0,0)"/>
<path d="" fill="#FFFFFF" transform="translate(0,0)"/>
</svg>
