<?xml version="1.0" encoding="UTF-8"?>
<svg version="1.1" xmlns="http://www.w3.org/2000/svg" width="915" height="254">
<path d="M0 0 C1.80791016 -0.00386719 1.80791016 -0.00386719 3.65234375 -0.0078125 C7.0625 0.125 7.0625 0.125 9.25292969 0.61352539 C12.96976987 1.290166 16.65949091 1.35876444 20.42578125 1.44140625 C21.61375557 1.4725779 21.61375557 1.4725779 22.82572937 1.50437927 C25.34206928 1.56947804 27.85850872 1.62857423 30.375 1.6875 C32.08659861 1.730723 33.79818735 1.77433848 35.50976562 1.81835938 C39.69390984 1.92511847 43.87815362 2.02649635 48.0625 2.125 C54.35432699 20.77340226 60.56158563 39.45070711 66.59197998 58.1854248 C67.18653936 60.02837105 67.78427913 61.87029502 68.38555908 63.71105957 C72.73238496 77.03463329 76.17332579 90.41126843 79.0625 104.125 C79.20712677 103.53900024 79.35175354 102.95300049 79.50076294 102.34924316 C84.61725389 81.90863872 91.25605842 62.07465458 98.07391357 42.15270996 C99.24237919 38.73262126 100.40344548 35.31004098 101.56426811 31.88735199 C102.95450886 27.78866825 104.3478607 23.69104529 105.7421875 19.59375 C106.0057391 18.81907883 106.2692907 18.04440765 106.5408287 17.2462616 C107.28058158 15.07440237 108.02244508 12.90327766 108.76513672 10.73242188 C109.18592499 9.50068237 109.60671326 8.26894287 110.04025269 6.99987793 C111.0625 4.125 111.0625 4.125 112.0625 2.125 C125.2625 2.125 138.4625 2.125 152.0625 2.125 C147.0642406 16.60408476 141.784629 30.94431943 136.3125 45.25 C135.48116677 47.42933713 134.65011846 49.60878296 133.81933594 51.78833008 C132.09673707 56.30703592 130.37292781 60.82527741 128.6484375 65.34326172 C125.72680274 73.00116604 122.81845841 80.66409011 119.91174316 88.32766724 C116.76160845 96.63234331 113.6024752 104.93356933 110.4407959 113.2338562 C108.2222819 119.06253315 106.01746819 124.89613786 103.82525635 130.73475647 C102.47700027 134.32099546 101.12039145 137.90403801 99.76208496 141.48648071 C99.14178132 143.12840349 98.52516109 144.77172385 97.91271973 146.41659546 C91.58551249 163.40168414 84.57393917 179.14268434 67.3671875 187.421875 C59.05578768 190.84567552 51.74069643 191.30731522 42.8125 191.3125 C41.71808594 191.32474609 40.62367188 191.33699219 39.49609375 191.34960938 C32.53481576 191.36211466 25.43110454 191.30930227 19.0625 188.125 C19.70393892 181.68350777 21.60995269 175.82042617 23.625 169.6875 C23.95435547 168.66978516 24.28371094 167.65207031 24.62304688 166.60351562 C25.43113532 164.10898174 26.24440128 161.61626517 27.0625 159.125 C27.89128662 159.28911377 28.72007324 159.45322754 29.57397461 159.62231445 C37.45432085 161.14446727 44.10138664 162.10555668 51.4375 158.4375 C56.8186527 153.69696072 57.69357876 148.50603035 58.19741821 141.61315918 C57.93997272 134.95719443 55.31016635 129.00714417 52.88671875 122.890625 C52.3262677 121.42361097 51.76802179 119.95575288 51.21182251 118.48712158 C49.72492632 114.57821059 48.20928761 110.68106029 46.68783951 106.78549194 C45.11873304 102.75247941 43.57727599 98.70894226 42.03393555 94.66601562 C39.86529462 88.99164712 37.68885417 83.32040716 35.50077915 77.65350342 C30.76054383 65.37664089 26.13227335 53.05994146 21.53359985 40.72937012 C19.7120094 35.84857289 17.88114508 30.9712621 16.05078125 26.09375 C15.06464844 23.4640625 14.07851563 20.834375 13.0625 18.125 C12.7325 23.735 12.4025 29.345 12.0625 35.125 C10.45375 34.96 8.845 34.795 7.1875 34.625 C-4.06991938 33.64484057 -14.98276186 33.22717704 -24.40234375 40.53125 C-30.38150373 46.7386222 -32.08165512 53.93593233 -32.14282227 62.26831055 C-32.15272186 63.09780212 -32.16262146 63.9272937 -32.17282104 64.78192139 C-32.20442205 67.52515809 -32.22918798 70.26841211 -32.25390625 73.01171875 C-32.27447698 74.91315665 -32.29547349 76.81458999 -32.31687927 78.71601868 C-32.37208761 83.72189644 -32.42150238 88.72781538 -32.46972656 93.73376465 C-32.52878011 99.73936725 -32.5950013 105.74489454 -32.66002655 111.75043488 C-32.7580205 120.87524394 -32.84688723 130.00010119 -32.9375 139.125 C-45.4775 139.125 -58.0175 139.125 -70.9375 139.125 C-70.9375 93.915 -70.9375 48.705 -70.9375 2.125 C-59.0575 2.125 -47.1775 2.125 -34.9375 2.125 C-34.6075 9.385 -34.2775 16.645 -33.9375 24.125 C-33.1125 22.289375 -32.2875 20.45375 -31.4375 18.5625 C-26.81175021 9.36516611 -20.58839718 4.49918586 -10.9375 1.125 C-7.29226329 -0.05639868 -3.81625135 -0.00814568 0 0 Z " fill="#141414" transform="translate(759.9375,53.875)"/>
<path d="M0 0 C45.87 0 91.74 0 139 0 C139 27.47069943 139 27.47069943 130.421875 36.99609375 C126.97165238 40.97164688 123.98261128 45.16790041 121 49.5 C120.00184141 50.91796469 119.00183931 52.33463346 118 53.75 C117.505 54.45125 117.01 55.1525 116.5 55.875 C111 63.66666667 105.5 71.45833333 100 79.25 C99.25762085 80.30175415 99.25762085 80.30175415 98.50024414 81.37475586 C97.49955812 82.79232654 96.49874417 84.20980692 95.49780273 85.62719727 C93.00724549 89.15430572 90.51888408 92.68292217 88.03515625 96.21484375 C75.14572221 114.53386182 61.99595432 132.5050571 48 150 C93.54 150.495 93.54 150.495 140 151 C140 161.23 140 171.46 140 182 C93.8 182 47.6 182 0 182 C0 155.67391304 0 155.67391304 8.578125 146.0390625 C12.01327975 142.04302655 15.01178379 137.83556167 18 133.5 C18.99956975 132.08080954 20.00087353 130.66283882 21.00390625 129.24609375 C22.99357532 126.42766568 24.9803144 123.60720541 26.96484375 120.78515625 C32.07231989 113.52765027 37.22035849 106.30413676 42.4375 99.125 C46.94092866 92.92461745 51.32089244 86.65273977 55.625 80.3125 C60.83509296 72.64197708 66.20286914 65.11348463 71.74755859 57.68164062 C72.94888845 56.06862697 74.14067984 54.44852257 75.33203125 52.828125 C80.65421855 45.6324532 86.24724163 38.90331004 92 32 C61.64 31.67 31.28 31.34 0 31 C0 20.77 0 10.54 0 0 Z " fill="#141414" transform="translate(3,11)"/>
<path d="M0 0 C12.21 0 24.42 0 37 0 C37.33 21.78 37.66 43.56 38 66 C40.64 62.37 43.28 58.74 46 55 C51.79178875 49.51553065 58.22570174 45.78932262 66 44 C66.928125 43.773125 67.85625 43.54625 68.8125 43.3125 C83.80100173 41.84303905 97.66706557 43.60210275 109.76953125 53.1953125 C121.57924008 64.20826437 125.65869099 78.24710456 126.25814819 94.01538086 C126.38101475 99.64610298 126.33856718 105.274838 126.29296875 110.90625 C126.28735886 112.968462 126.28309537 115.03067805 126.28010559 117.09289551 C126.26876637 122.46534679 126.23939595 127.83754656 126.20599365 133.2098999 C126.17505445 138.71411743 126.16154978 144.21837644 126.14648438 149.72265625 C126.11451351 160.48189792 126.06183762 171.2408885 126 182 C113.46 182 100.92 182 88 182 C87.96261719 175.90789062 87.92523438 169.81578125 87.88671875 163.5390625 C87.85642069 159.66533701 87.82526079 155.79165645 87.79101562 151.91796875 C87.73681572 145.77785584 87.68570092 139.63783179 87.65356445 133.49755859 C87.62743681 128.54368483 87.58696807 123.59011172 87.53681374 118.63642502 C87.52020879 116.75237155 87.50865503 114.86826615 87.50238609 112.98414993 C87.64150419 97.12715105 87.64150419 97.12715105 81.875 82.625 C75.55267532 76.85244268 69.34430103 75.35639577 60.86328125 75.6796875 C53.9188234 76.45655727 48.92988957 78.95806749 44 84 C39.82789722 90.69135973 38.8516563 96.52985815 38.79467773 104.34863281 C38.78477814 105.18802399 38.77487854 106.02741516 38.76467896 106.89224243 C38.73313002 109.66250808 38.70833265 112.43279086 38.68359375 115.203125 C38.66301852 117.12555381 38.6420219 119.04797816 38.62062073 120.97039795 C38.56545884 126.02722555 38.51602361 131.08409357 38.46777344 136.14099121 C38.40867725 142.21002622 38.34248165 148.27898742 38.27747345 154.34796143 C38.17953795 163.5652625 38.09063123 172.78261117 38 182 C25.46 182 12.92 182 0 182 C0 121.94 0 61.88 0 0 Z " fill="#151515" transform="translate(418,11)"/>
<path d="M0 0 C17.05190055 -0.43033188 35.0991968 2.10177362 48.33984375 13.71875 C57.9807564 22.94836091 62.60952456 32.69503347 62.95535278 46.07925415 C62.96104639 47.81536511 62.95607328 49.55153526 62.94189453 51.28759766 C62.94218658 52.24490784 62.94247864 53.20221802 62.94277954 54.1885376 C62.94139924 57.31589192 62.92589987 60.4430004 62.91015625 63.5703125 C62.90642149 65.75320302 62.90357671 67.93609523 62.90158081 70.11898804 C62.89398081 75.83669748 62.8743638 81.55430371 62.85217285 87.27197266 C62.83163584 93.11749882 62.82256235 98.96304183 62.8125 104.80859375 C62.79111424 116.25786491 62.755962 127.70703269 62.71484375 139.15625 C50.83484375 139.15625 38.95484375 139.15625 26.71484375 139.15625 C26.38484375 133.87625 26.05484375 128.59625 25.71484375 123.15625 C24.43609375 124.6825 23.15734375 126.20875 21.83984375 127.78125 C13.4504102 137.04895238 3.71528344 141.8145545 -8.78515625 142.4375 C-23.36628114 142.85773056 -37.10379284 141.05284925 -48.57421875 131.1875 C-57.17778557 122.29392531 -59.71004741 113.13576863 -59.84765625 101.03125 C-59.86248047 100.1131958 -59.87730469 99.1951416 -59.89257812 98.24926758 C-59.74433614 88.39735201 -56.2980505 79.2132505 -49.28515625 72.15625 C-36.06160369 61.23145615 -19.41324807 59.48626201 -3.01708984 57.49902344 C1.26054898 56.96231165 5.51953468 56.33104261 9.77734375 55.65625 C10.50872559 55.54974121 11.24010742 55.44323242 11.99365234 55.33349609 C16.16278006 54.66143703 19.30704597 53.68149902 22.71484375 51.15625 C24.8197292 46.9464791 24.07075715 42.29072397 22.71484375 37.96875 C19.33855656 33.22084614 15.57086356 30.7538411 9.83984375 29.5546875 C2.0547669 28.70071223 -4.59574773 29.16964541 -11.53515625 32.90625 C-15.54788269 36.18938981 -18.4027774 39.83268172 -21.28515625 44.15625 C-29.26837746 43.56066531 -37.0874698 42.46025812 -44.97265625 41.09375 C-46.06771484 40.90748047 -47.16277344 40.72121094 -48.29101562 40.52929688 C-50.95639523 40.0753676 -53.62105874 39.6176336 -56.28515625 39.15625 C-51.55272776 24.0298228 -44.07513285 14.42822083 -30.05078125 6.953125 C-20.54801496 2.20667579 -10.47959202 0.49843482 0 0 Z M18.63671875 77.92578125 C17.39970215 78.1731604 17.39970215 78.1731604 16.13769531 78.42553711 C12.51561804 79.16166443 8.89439884 79.90195895 5.2734375 80.64355469 C3.03861286 81.0913726 0.80180946 81.51094997 -1.44140625 81.9140625 C-9.75597901 83.48660126 -16.55030178 85.67768241 -22.28515625 92.15625 C-23.75678007 96.57112147 -24.113992 100.55689098 -23.28515625 105.15625 C-20.82718529 109.45414721 -18.04580118 112.41004869 -13.46484375 114.3515625 C-4.10488795 116.72029824 5.2893093 115.87517225 13.71484375 111.15625 C19.51840748 107.43320911 22.91228363 102.7734404 24.71484375 96.15625 C25.28924263 89.83386423 25.00735699 83.48753654 24.71484375 77.15625 C22.57256418 77.15625 20.7375605 77.50327456 18.63671875 77.92578125 Z " fill="#141414" transform="translate(611.28515625,53.84375)"/>
<path d="M0 0 C7.79994306 7.03837381 12.14055273 15.88116341 13.48046875 26.23828125 C13.61540276 29.49527775 13.60695476 32.74794688 13.59399414 36.00732422 C13.59414017 36.97380386 13.59428619 37.94028351 13.59443665 38.93605042 C13.59374226 42.11754635 13.58597208 45.29898309 13.578125 48.48046875 C13.57625914 50.69149748 13.57483603 52.90252662 13.57383728 55.11355591 C13.57002537 60.92335152 13.5602064 66.73312201 13.5491333 72.54290771 C13.53889067 78.47521627 13.53433355 84.4075289 13.52929688 90.33984375 C13.51858294 101.97266905 13.50099687 113.60546912 13.48046875 125.23828125 C1.60046875 125.23828125 -10.27953125 125.23828125 -22.51953125 125.23828125 C-22.84953125 119.95828125 -23.17953125 114.67828125 -23.51953125 109.23828125 C-24.50953125 110.43453125 -25.49953125 111.63078125 -26.51953125 112.86328125 C-33.79123092 121.1113414 -42.49307744 126.60300208 -53.51953125 128.23828125 C-68.62977193 129.18581267 -82.75972465 128.23482692 -95.51953125 119.23828125 C-102.57889811 112.93824124 -107.89161862 104.74291976 -108.6965332 95.12280273 C-109.33098002 71.68871329 -109.33098002 71.68871329 -101.08203125 61.80078125 C-86.2595022 46.41537135 -65.8522542 44.86395466 -45.70263672 42.72045898 C-44.6783683 42.60565186 -44.6783683 42.60565186 -43.63340759 42.48852539 C-41.75575421 42.27850264 -39.87680572 42.08015268 -37.99780273 41.88256836 C-33.25009787 41.00314159 -29.01025657 39.72900657 -25.51953125 36.23828125 C-24.66095094 30.66308444 -25.33485983 25.96038025 -28.51953125 21.23828125 C-32.25668369 17.39435302 -36.25062434 15.78712572 -41.51953125 15.23828125 C-49.05660873 15.15348913 -56.35382382 15.53324255 -62.51953125 20.23828125 C-65.63762379 23.300569 -68.09961199 26.60840235 -70.51953125 30.23828125 C-81.95130959 29.02213462 -93.22069455 27.35946461 -104.51953125 25.23828125 C-103.32453611 14.848113 -98.11820727 7.30711761 -90.51953125 0.23828125 C-65.24355403 -18.9457314 -25.30502243 -19.38956264 0 0 Z M-30.59765625 64.0078125 C-31.83467285 64.25519165 -31.83467285 64.25519165 -33.09667969 64.50756836 C-36.71875696 65.24369568 -40.33997616 65.9839902 -43.9609375 66.72558594 C-46.19576214 67.17340385 -48.43256554 67.59298122 -50.67578125 67.99609375 C-59.14875331 69.59859064 -65.15251262 71.53456075 -71.01953125 77.98828125 C-72.97689554 82.22923721 -73.21728945 85.64328823 -72.51953125 90.23828125 C-70.47179573 95.08818116 -66.99885109 98.03130129 -62.296875 100.3203125 C-54.26754127 102.97417105 -45.46341032 102.19607159 -37.89453125 98.61328125 C-31.23442755 94.8049535 -27.40596466 90.42193294 -24.51953125 83.23828125 C-24.16656451 79.76965588 -24.23517642 76.34508809 -24.33203125 72.86328125 C-24.34556641 71.93644531 -24.35910156 71.00960937 -24.37304688 70.0546875 C-24.40819244 67.78194127 -24.45738993 65.51042278 -24.51953125 63.23828125 C-26.66181082 63.23828125 -28.4968145 63.58530581 -30.59765625 64.0078125 Z " fill="#141414" transform="translate(257.51953125,67.76171875)"/>
<path d="M0 0 C9.54870894 8.68432793 15.06516514 19.8104678 16.76171875 32.51171875 C12.27972137 33.39540172 7.79574169 34.26788366 3.30957031 35.13012695 C1.78423625 35.42491899 0.25948531 35.72274532 -1.26464844 36.02368164 C-3.45751469 36.456108 -5.65225722 36.8775226 -7.84765625 37.296875 C-8.52697205 37.43327896 -9.20628784 37.56968292 -9.90618896 37.71022034 C-16.12402204 38.87734748 -16.12402204 38.87734748 -19.23828125 37.51171875 C-20.29296875 35.47265625 -20.29296875 35.47265625 -21.11328125 32.88671875 C-23.3474596 26.87162319 -25.84336771 22.49110606 -31.49609375 19.1953125 C-39.2108037 15.72490223 -46.33024138 15.28382173 -54.36328125 17.94921875 C-61.00819154 20.93733879 -65.49086346 25.80921903 -68.5859375 32.3671875 C-74.31251674 47.57648936 -74.71130231 66.47501144 -68.23828125 81.51171875 C-64.95363661 88.15875111 -60.9441875 92.30889786 -54.23828125 95.51171875 C-47.57344967 97.73332928 -38.55796023 97.67975465 -32.078125 94.734375 C-23.80377231 89.2357075 -21.6683366 82.94437096 -18.23828125 73.51171875 C-7.01828125 75.49171875 4.20171875 77.47171875 15.76171875 79.51171875 C17.61647007 86.93072402 13.65560277 94.32536371 9.94921875 100.76171875 C1.03976254 114.61348524 -12.04218694 123.1540172 -28.17578125 126.82421875 C-49.62439546 130.05705336 -70.58082194 127.03081579 -88.37890625 114.2578125 C-103.07922596 101.79539063 -109.92197975 84.96894043 -111.95703125 66.046875 C-113.69342576 44.22136067 -109.28352844 23.36834807 -95.55078125 5.88671875 C-71.81555311 -20.38935626 -26.97498842 -21.33316078 0 0 Z " fill="#141414" transform="translate(392.23828125,68.48828125)"/>
</svg>
